Russolo-24ptExtraLight.ufo
<glyph name="exclam" format="2">
  <advance width="460.1"/>
  <unicode hex="0021"/>
  <note>
exclam
</note>
  <outline>
    <contour>
      <point x="214.4" y="320.7" type="curve"/>
      <point x="245.4" y="320.7" type="line"/>
      <point x="244.5" y="780.6"/>
      <point x="289.1" y="1082.3"/>
      <point x="289.1" y="1224.6" type="curve" smooth="yes"/>
      <point x="289.1" y="1287.7"/>
      <point x="255.8" y="1344.0"/>
      <point x="248.7" y="1461.7" type="curve"/>
      <point x="211.7" y="1461.7" type="line"/>
      <point x="204.6" y="1344.0"/>
      <point x="170.7" y="1287.7"/>
      <point x="170.7" y="1224.6" type="curve" smooth="yes"/>
      <point x="170.7" y="1082.3"/>
      <point x="215.3" y="780.6"/>
    </contour>
    <contour>
      <point x="229.9" y="-14.6" type="curve" smooth="yes"/>
      <point x="268.5" y="-14.6"/>
      <point x="295.8" y="13.3"/>
      <point x="295.8" y="52.3" type="curve" smooth="yes"/>
      <point x="295.8" y="91.30000000000001"/>
      <point x="267.8" y="117.2"/>
      <point x="229.9" y="117.2" type="curve" smooth="yes"/>
      <point x="192.0" y="117.2"/>
      <point x="164.0" y="91.30000000000001"/>
      <point x="164.0" y="52.3" type="curve" smooth="yes"/>
      <point x="164.0" y="13.3"/>
      <point x="191.3" y="-14.6"/>
    </contour>
  </outline>
</glyph>
<glyph name="quotedbl" format="2">
  <advance width="482.3"/>
  <unicode hex="0022"/>
  <note>
quotedbl
</note>
  <outline>
    <contour>
      <point x="296.6" y="845.0" type="line"/>
      <point x="328.7" y="845.0" type="line"/>
      <point x="347.3" y="1354.9" type="line"/>
      <point x="279.7" y="1354.9" type="line"/>
    </contour>
    <contour>
      <point x="152.6" y="845.0" type="line"/>
      <point x="184.7" y="845.0" type="line"/>
      <point x="203.6" y="1354.9" type="line"/>
      <point x="136.0" y="1354.9" type="line"/>
    </contour>
  </outline>
</glyph>
<glyph name="numbersign" format="2">
  <advance width="1256.2"/>
  <unicode hex="0023"/>
  <note>
numbersign
</note>
  <outline>
    <contour>
      <point x="717.5" y="0.0" type="line"/>
      <point x="788.6" y="0.0" type="line"/>
      <point x="1055.2" y="1430.0" type="line"/>
      <point x="984.1" y="1430.0" type="line"/>
    </contour>
    <contour>
      <point x="103.0" y="495.0" type="line"/>
      <point x="1088.7" y="495.0" type="line"/>
      <point x="1088.7" y="532.6" type="line"/>
      <point x="103.0" y="532.6" type="line"/>
    </contour>
    <contour>
      <point x="227.4" y="0.0" type="line"/>
      <point x="298.2" y="0.0" type="line"/>
      <point x="565.1" y="1430.0" type="line"/>
      <point x="494.0" y="1430.0" type="line"/>
    </contour>
    <contour>
      <point x="165.4" y="902.3" type="line"/>
      <point x="1151.1" y="902.3" type="line"/>
      <point x="1151.1" y="939.9" type="line"/>
      <point x="165.4" y="939.9" type="line"/>
    </contour>
  </outline>
</glyph>
<glyph name="ampersand" format="2">
  <advance width="1205.8"/>
  <unicode hex="0026"/>
  <note>
ampersand
</note>
  <outline>
    <contour>
      <point x="531.6" y="-27.7" type="curve" smooth="yes"/>
      <point x="652.5" y="-27.7"/>
      <point x="799.8" y="-9.8"/>
      <point x="861.9" y="28.5" type="curve"/>
      <point x="848.2" y="71.7" type="line"/>
      <point x="792.3" y="33.1"/>
      <point x="632.9" y="13.600000000000001"/>
      <point x="525.6" y="13.600000000000001" type="curve" smooth="yes"/>
      <point x="278.9" y="13.600000000000001"/>
      <point x="209.0" y="179.1"/>
      <point x="209.0" y="387.6" type="curve" smooth="yes"/>
      <point x="209.0" y="634.4"/>
      <point x="335.0" y="762.3"/>
      <point x="541.0" y="762.6" type="curve"/>
      <point x="547.1" y="806.6" type="line"/>
      <point x="368.3" y="806.0"/>
      <point x="287.6" y="942.9"/>
      <point x="287.6" y="1096.8" type="curve" smooth="yes"/>
      <point x="287.6" y="1278.0"/>
      <point x="397.2" y="1418.4"/>
      <point x="581.3" y="1418.4" type="curve" smooth="yes"/>
      <point x="724.5" y="1418.4" type="line"/>
      <point x="724.5" y="1459.7" type="line"/>
      <point x="577.3" y="1459.7" type="line" smooth="yes"/>
      <point x="357.3" y="1459.7"/>
      <point x="226.3" y="1295.6"/>
      <point x="226.3" y="1096.1" type="curve" smooth="yes"/>
      <point x="226.3" y="952.3"/>
      <point x="294.3" y="832.5"/>
      <point x="443.3" y="786.6" type="curve"/>
      <point x="275.3" y="751.1"/>
      <point x="137.1" y="616.6"/>
      <point x="137.1" y="381.6" type="curve" smooth="yes"/>
      <point x="137.1" y="137.6"/>
      <point x="248.0" y="-27.7"/>
    </contour>
    <contour>
      <point x="938.7" y="-25.7" type="curve" smooth="yes"/>
      <point x="981.5" y="-25.7"/>
      <point x="1050.3" y="-14.0"/>
      <point x="1086.3" y="6.6" type="curve"/>
      <point x="1086.3" y="61.5" type="line"/>
      <point x="1057.7" y="36.5"/>
      <point x="1002.1" y="20.6"/>
      <point x="958.2" y="20.6" type="curve" smooth="yes"/>
      <point x="902.7" y="20.6"/>
      <point x="897.2" y="50.900000000000006"/>
      <point x="897.2" y="167.0" type="curve" smooth="yes"/>
      <point x="897.2" y="762.6" type="line"/>
      <point x="1038.4" y="762.6" type="line"/>
      <point x="1038.4" y="806.6" type="line"/>
      <point x="897.2" y="806.6" type="line"/>
      <point x="897.2" y="1081.3" type="line"/>
      <point x="864.9" y="1081.3" type="line"/>
      <point x="865.2" y="823.0"/>
      <point x="857.8" y="806.6"/>
      <point x="719.9" y="806.6" type="curve" smooth="yes"/>
      <point x="533.7" y="806.6" type="line"/>
      <point x="524.7" y="762.6" type="line"/>
      <point x="838.3" y="762.6" type="line"/>
      <point x="838.3" y="195.7" type="line" smooth="yes"/>
      <point x="838.3" y="38.7"/>
      <point x="841.0" y="-25.7"/>
    </contour>
  </outline>
</glyph>
<glyph name="quotesingle" format="2">
  <advance width="338.6"/>
  <unicode hex="0027"/>
  <note>
quotesingle
</note>
  <outline>
    <contour>
      <point x="152.6" y="845.0" type="line"/>
      <point x="184.7" y="845.0" type="line"/>
      <point x="203.6" y="1354.9" type="line"/>
      <point x="136.0" y="1354.9" type="line"/>
    </contour>
  </outline>
</glyph>
<glyph name="parenleft" format="2">
  <advance width="536.6"/>
  <unicode hex="0028"/>
  <note>
parenleft
</note>
  <outline>
    <contour>
      <point x="435.0" y="-396.8" type="curve"/>
      <point x="452.3" y="-359.8" type="line"/>
      <point x="310.2" y="-147.9"/>
      <point x="175.8" y="221.0"/>
      <point x="175.8" y="551.8" type="curve" smooth="yes"/>
      <point x="175.8" y="887.2"/>
      <point x="315.4" y="1278.8"/>
      <point x="456.9" y="1476.4" type="curve"/>
      <point x="431.8" y="1506.0" type="line"/>
      <point x="194.4" y="1149.3"/>
      <point x="101.7" y="889.1"/>
      <point x="101.7" y="551.8" type="curve" smooth="yes"/>
      <point x="101.7" y="207.6"/>
      <point x="198.0" y="-66.8"/>
    </contour>
  </outline>
</glyph>
<glyph name="parenright" format="2">
  <advance width="536.3"/>
  <unicode hex="0029"/>
  <note>
parenright
</note>
  <outline>
    <contour>
      <point x="101.6" y="-396.8" type="line"/>
      <point x="338.0" y="-67.1"/>
      <point x="434.6" y="207.6"/>
      <point x="434.6" y="551.8" type="curve" smooth="yes"/>
      <point x="434.6" y="889.1"/>
      <point x="341.9" y="1149.3"/>
      <point x="104.5" y="1506.3" type="curve"/>
      <point x="79.7" y="1476.4" type="line"/>
      <point x="221.5" y="1277.9"/>
      <point x="360.5" y="887.8"/>
      <point x="360.5" y="551.8" type="curve" smooth="yes"/>
      <point x="360.5" y="221.0"/>
      <point x="226.4" y="-147.3"/>
      <point x="84.3" y="-359.8" type="curve"/>
    </contour>
  </outline>
</glyph>
<glyph name="asterisk" format="2">
  <advance width="731.2"/>
  <unicode hex="002A"/>
  <note>
asterisk
</note>
  <outline>
    <contour>
      <point x="362.2" y="1139.7" type="line"/>
      <point x="459.1" y="1191.0"/>
      <point x="531.8" y="1203.1"/>
      <point x="565.1" y="1221.7" type="curve" smooth="yes"/>
      <point x="573.2" y="1226.4"/>
      <point x="580.5" y="1259.0"/>
      <point x="605.6" y="1274.2" type="curve"/>
      <point x="593.4" y="1295.2" type="line"/>
      <point x="568.0" y="1280.7"/>
      <point x="545.2" y="1293.8"/>
      <point x="528.6" y="1283.8" type="curve" smooth="yes"/>
      <point x="491.8" y="1262.4"/>
      <point x="447.4" y="1209.3"/>
      <point x="355.0" y="1150.8" type="curve"/>
    </contour>
    <contour>
      <point x="123.80000000000001" y="996.0" type="line"/>
      <point x="148.9" y="1010.2"/>
      <point x="179.4" y="1000.3"/>
      <point x="188.9" y="1005.4" type="curve" smooth="yes"/>
      <point x="224.3" y="1025.4"/>
      <point x="269.2" y="1080.9"/>
      <point x="362.2" y="1139.7" type="curve"/>
      <point x="355.0" y="1150.8" type="line"/>
      <point x="258.4" y="1100.5"/>
      <point x="187.4" y="1087.5"/>
      <point x="153.1" y="1067.5" type="curve" smooth="yes"/>
      <point x="144.5" y="1062.7"/>
      <point x="137.0" y="1031.5"/>
      <point x="111.6" y="1017.0" type="curve"/>
    </contour>
    <contour>
      <point x="345.7" y="866.4" type="curve"/>
      <point x="370.5" y="866.4" type="line"/>
      <point x="370.5" y="895.8"/>
      <point x="395.1" y="916.4"/>
      <point x="395.1" y="927.6" type="curve" smooth="yes"/>
      <point x="395.1" y="964.3"/>
      <point x="369.0" y="1035.2"/>
      <point x="364.8" y="1144.6" type="curve"/>
      <point x="351.4" y="1144.6" type="line"/>
      <point x="347.2" y="1035.8"/>
      <point x="323.1" y="963.7"/>
      <point x="323.1" y="927.6" type="curve" smooth="yes"/>
      <point x="323.1" y="916.1"/>
      <point x="345.7" y="896.1"/>
    </contour>
    <contour>
      <point x="355.0" y="1139.7" type="curve"/>
      <point x="362.2" y="1150.8" type="line"/>
      <point x="269.8" y="1209.3"/>
      <point x="225.4" y="1263.1"/>
      <point x="188.6" y="1283.8" type="curve" smooth="yes"/>
      <point x="183.9" y="1286.8"/>
      <point x="149.2" y="1280.0"/>
      <point x="123.80000000000001" y="1295.2" type="curve"/>
      <point x="111.6" y="1273.5" type="line"/>
      <point x="136.7" y="1259.0"/>
      <point x="145.4" y="1226.4"/>
      <point x="152.8" y="1221.7" type="curve" smooth="yes"/>
      <point x="188.9" y="1200.3"/>
      <point x="258.8" y="1190.3"/>
    </contour>
    <contour>
      <point x="528.3" y="1005.4" type="curve" smooth="yes"/>
      <point x="539.9" y="998.9"/>
      <point x="568.3" y="1010.2"/>
      <point x="593.4" y="995.3" type="curve"/>
      <point x="605.6" y="1017.0" type="line"/>
      <point x="580.2" y="1031.5"/>
      <point x="580.4" y="1057.8"/>
      <point x="564.1" y="1066.8" type="curve" smooth="yes"/>
      <point x="536.8" y="1081.9"/>
      <point x="458.5" y="1100.5"/>
      <point x="362.2" y="1150.8" type="curve"/>
      <point x="355.0" y="1139.7" type="line"/>
      <point x="448.7" y="1080.9"/>
      <point x="494.3" y="1025.4"/>
    </contour>
    <contour>
      <point x="351.4" y="1144.6" type="curve"/>
      <point x="364.8" y="1144.6" type="line"/>
      <point x="369.0" y="1254.7"/>
      <point x="395.1" y="1325.6"/>
      <point x="395.1" y="1361.6" type="curve" smooth="yes"/>
      <point x="395.1" y="1372.8"/>
      <point x="370.5" y="1393.4"/>
      <point x="370.5" y="1422.8" type="curve"/>
      <point x="345.7" y="1422.8" type="line"/>
      <point x="345.7" y="1393.1"/>
      <point x="323.1" y="1373.1"/>
      <point x="323.1" y="1361.6" type="curve" smooth="yes"/>
      <point x="323.1" y="1326.2"/>
      <point x="347.2" y="1254.1"/>
    </contour>
  </outline>
</glyph>
<glyph name="plus" format="2">
  <advance width="1024.3"/>
  <unicode hex="002B"/>
  <note>
plus
</note>
  <outline>
    <contour>
      <point x="119.8" y="649.6" type="line"/>
      <point x="904.5" y="649.6" type="line"/>
      <point x="904.5" y="687.3" type="line"/>
      <point x="119.8" y="687.3" type="line"/>
    </contour>
    <contour>
      <point x="493.3" y="276.1" type="line"/>
      <point x="531.0" y="276.1" type="line"/>
      <point x="531.0" y="1060.8" type="line"/>
      <point x="493.3" y="1060.8" type="line"/>
    </contour>
  </outline>
</glyph>
<glyph name="comma" format="2">
  <advance width="438.2"/>
  <unicode hex="002C"/>
  <note>
comma
</note>
  <outline>
    <contour>
      <point x="137.6" y="-128.0" type="curve"/>
      <point x="203.5" y="-128.0" type="line"/>
      <point x="249.5" y="-38.0"/>
      <point x="281.6" y="51.2"/>
      <point x="306.4" y="144.8" type="curve"/>
      <point x="211.3" y="144.8" type="line"/>
      <point x="182.9" y="80.6"/>
      <point x="147.4" y="-61.1"/>
    </contour>
  </outline>
</glyph>
<glyph name="period" format="2">
  <advance width="395.5"/>
  <unicode hex="002E"/>
  <note>
period
</note>
  <outline>
    <contour>
      <point x="197.9" y="-14.6" type="curve" smooth="yes"/>
      <point x="236.2" y="-14.6"/>
      <point x="263.5" y="13.0"/>
      <point x="263.5" y="52.3" type="curve" smooth="yes"/>
      <point x="263.5" y="91.30000000000001"/>
      <point x="235.5" y="117.2"/>
      <point x="197.9" y="117.2" type="curve" smooth="yes"/>
      <point x="160.0" y="117.2"/>
      <point x="132.0" y="91.6"/>
      <point x="132.0" y="52.3" type="curve" smooth="yes"/>
      <point x="132.0" y="13.3"/>
      <point x="159.3" y="-14.6"/>
    </contour>
  </outline>
</glyph>
<glyph name="slash" format="2">
  <advance width="634.5"/>
  <unicode hex="002F"/>
  <note>
slash
</note>
  <outline>
    <contour>
      <point x="49.1" y="-401.5" type="line"/>
      <point x="106.30000000000001" y="-401.5" type="line"/>
      <point x="585.4" y="1497.1" type="line"/>
      <point x="528.5" y="1497.1" type="line"/>
    </contour>
  </outline>
</glyph>
<glyph name="zero" format="2">
  <advance width="1221.3"/>
  <unicode hex="0030"/>
  <note>
zero
</note>
  <anchor x="610.8" y="715.7" name="center"/>
  <outline>
    <contour>
      <point x="610.8" y="-24.6" type="curve" smooth="yes"/>
      <point x="922.1" y="-24.6"/>
      <point x="1127.0" y="270.0"/>
      <point x="1127.0" y="715.7" type="curve" smooth="yes"/>
      <point x="1127.0" y="1161.1"/>
      <point x="921.8" y="1455.0"/>
      <point x="610.8" y="1455.0" type="curve" smooth="yes"/>
      <point x="299.2" y="1455.0"/>
      <point x="94.3" y="1161.4"/>
      <point x="94.3" y="715.7" type="curve" smooth="yes"/>
      <point x="94.3" y="270.0"/>
      <point x="299.2" y="-24.6"/>
    </contour>
    <contour>
      <point x="610.8" y="18.400000000000006" type="curve" smooth="yes"/>
      <point x="343.1" y="18.400000000000006"/>
      <point x="170.7" y="290.0"/>
      <point x="170.7" y="715.7" type="curve" smooth="yes"/>
      <point x="170.7" y="1141.4"/>
      <point x="343.1" y="1412.3"/>
      <point x="610.8" y="1412.3" type="curve" smooth="yes"/>
      <point x="878.2" y="1412.3"/>
      <point x="1050.0" y="1141.1"/>
      <point x="1050.0" y="715.7" type="curve" smooth="yes"/>
      <point x="1050.0" y="290.0"/>
      <point x="878.2" y="18.400000000000006"/>
    </contour>
  </outline>
</glyph>
<glyph name="one" format="2">
  <advance width="490.7"/>
  <unicode hex="0031"/>
  <note>
one
</note>
  <outline>
    <contour>
      <point x="265.0" y="-0.30000000000000004" type="line"/>
      <point x="333.4" y="-0.30000000000000004" type="line"/>
      <point x="333.4" y="1430.0" type="line"/>
      <point x="310.8" y="1430.0" type="line"/>
      <point x="47.6" y="1023.9" type="line"/>
      <point x="72.0" y="1006.0" type="line"/>
      <point x="289.9" y="1340.2" type="line"/>
      <point x="265.0" y="1342.3" type="line"/>
    </contour>
  </outline>
</glyph>
<glyph name="two" format="2">
  <advance width="1008.3"/>
  <unicode hex="0032"/>
  <note>
two
</note>
  <outline>
    <contour>
      <point x="58.800000000000004" y="0.0" type="line"/>
      <point x="932.0" y="0.0" type="line"/>
      <point x="932.0" y="66.6" type="line"/>
      <point x="154.4" y="67.3" type="line"/>
      <point x="139.4" y="36.9" type="line"/>
      <point x="234.9" y="141.0"/>
      <point x="546.2" y="482.8"/>
      <point x="662.6" y="619.5" type="curve" smooth="yes"/>
      <point x="853.9" y="840.7"/>
      <point x="904.4" y="972.9"/>
      <point x="904.4" y="1101.7" type="curve" smooth="yes"/>
      <point x="904.4" y="1309.0"/>
      <point x="758.3" y="1459.7"/>
      <point x="520.6" y="1459.7" type="curve" smooth="yes"/>
      <point x="285.8" y="1459.7"/>
      <point x="121.30000000000001" y="1282.4"/>
      <point x="121.30000000000001" y="1049.1" type="curve" smooth="yes"/>
      <point x="121.30000000000001" y="1028.9"/>
      <point x="121.30000000000001" y="1011.8"/>
      <point x="123.5" y="996.9" type="curve"/>
      <point x="188.4" y="996.9" type="line"/>
      <point x="188.4" y="1027.1" type="line" smooth="yes"/>
      <point x="188.4" y="1264.0"/>
      <point x="312.8" y="1420.6"/>
      <point x="508.0" y="1420.6" type="curve" smooth="yes"/>
      <point x="654.8" y="1420.6"/>
      <point x="828.6" y="1353.1"/>
      <point x="828.6" y="1096.2" type="curve" smooth="yes"/>
      <point x="828.6" y="824.6"/>
      <point x="631.5" y="645.8"/>
      <point x="391.9" y="375.5" type="curve" smooth="yes"/>
    </contour>
  </outline>
</glyph>
<glyph name="three" format="2">
  <advance width="971.3"/>
  <unicode hex="0033"/>
  <note>
three
</note>
  <outline>
    <contour>
      <point x="462.0" y="-33.0" type="curve" smooth="yes"/>
      <point x="720.0" y="-33.0"/>
      <point x="875.9" y="144.6"/>
      <point x="875.9" y="382.8" type="curve" smooth="yes"/>
      <point x="875.9" y="605.0"/>
      <point x="734.1" y="745.2"/>
      <point x="545.5" y="765.4" type="curve"/>
      <point x="474.7" y="743.8" type="line"/>
      <point x="681.7" y="750.1"/>
      <point x="849.5" y="870.6"/>
      <point x="849.5" y="1096.1" type="curve" smooth="yes"/>
      <point x="849.5" y="1301.5"/>
      <point x="723.8" y="1455.0"/>
      <point x="496.3" y="1455.0" type="curve" smooth="yes"/>
      <point x="275.1" y="1455.0"/>
      <point x="112.3" y="1313.9"/>
      <point x="101.3" y="1071.3" type="curve"/>
      <point x="164.4" y="1071.3" type="line"/>
      <point x="161.1" y="1306.9"/>
      <point x="305.8" y="1413.7"/>
      <point x="492.0" y="1413.7" type="curve" smooth="yes"/>
      <point x="701.1" y="1413.7"/>
      <point x="786.0" y="1274.5"/>
      <point x="786.0" y="1096.3" type="curve" smooth="yes"/>
      <point x="786.0" y="887.5"/>
      <point x="668.2" y="777.4"/>
      <point x="448.3" y="777.4" type="curve" smooth="yes"/>
      <point x="283.5" y="777.4" type="line"/>
      <point x="283.5" y="736.1" type="line"/>
      <point x="452.3" y="736.1" type="line" smooth="yes"/>
      <point x="670.0" y="736.1"/>
      <point x="802.2" y="607.0"/>
      <point x="802.2" y="379.4" type="curve" smooth="yes"/>
      <point x="802.2" y="152.1"/>
      <point x="664.5" y="8.300000000000004"/>
      <point x="468.0" y="8.300000000000004" type="curve" smooth="yes"/>
      <point x="273.1" y="8.300000000000004"/>
      <point x="144.1" y="151.2"/>
      <point x="144.1" y="349.9" type="curve" smooth="yes"/>
      <point x="144.1" y="368.4" type="line"/>
      <point x="75.3" y="368.4" type="line"/>
      <point x="75.3" y="339.9" type="line" smooth="yes"/>
      <point x="75.3" y="107.2"/>
      <point x="231.3" y="-33.0"/>
    </contour>
  </outline>
</glyph>
<glyph name="four" format="2">
  <advance width="952.8"/>
  <unicode hex="0034"/>
  <note>
four
</note>
  <outline>
    <contour>
      <point x="690.0" y="0.0" type="line"/>
      <point x="730.4" y="0.0" type="line"/>
      <point x="730.4" y="446.4" type="line"/>
      <point x="655.4" y="386.4" type="line"/>
      <point x="901.1" y="386.4" type="line"/>
      <point x="901.1" y="455.7" type="line"/>
      <point x="655.4" y="455.7" type="line"/>
      <point x="730.4" y="412.2" type="line"/>
      <point x="730.4" y="914.7" type="line"/>
      <point x="690.0" y="914.7" type="line"/>
      <point x="690.0" y="412.2" type="line"/>
      <point x="751.2" y="455.7" type="line"/>
      <point x="117.5" y="455.7" type="line"/>
      <point x="144.7" y="435.3" type="line"/>
      <point x="316.1" y="716.0"/>
      <point x="477.3" y="1033.4"/>
      <point x="598.5" y="1436.3" type="curve"/>
      <point x="550.9" y="1436.3" type="line"/>
      <point x="416.1" y="1014.3"/>
      <point x="247.3" y="691.2"/>
      <point x="47.2" y="386.4" type="curve"/>
      <point x="751.2" y="386.4" type="line"/>
      <point x="690.0" y="446.4" type="line"/>
    </contour>
  </outline>
</glyph>
<glyph name="five" format="2">
  <advance width="911.1"/>
  <unicode hex="0035"/>
  <note>
five
</note>
  <outline>
    <contour>
      <point x="336.9" y="-23.5" type="curve" smooth="yes"/>
      <point x="607.8" y="-23.5"/>
      <point x="833.4" y="173.4"/>
      <point x="833.4" y="455.2" type="curve" smooth="yes"/>
      <point x="833.4" y="729.3"/>
      <point x="655.5" y="864.3"/>
      <point x="422.9" y="864.3" type="curve" smooth="yes"/>
      <point x="331.0" y="864.3"/>
      <point x="220.9" y="843.2"/>
      <point x="150.7" y="801.4" type="curve"/>
      <point x="171.9" y="795.1" type="line"/>
      <point x="304.5" y="1383.0" type="line"/>
      <point x="263.4" y="1349.2" type="line"/>
      <point x="759.6" y="1349.2" type="line"/>
      <point x="759.6" y="1430.0" type="line"/>
      <point x="270.0" y="1430.0" type="line"/>
      <point x="121.1" y="763.4" type="line"/>
      <point x="127.5" y="762.5" type="line"/>
      <point x="208.4" y="802.3"/>
      <point x="316.0" y="825.5"/>
      <point x="397.9" y="825.5" type="curve" smooth="yes"/>
      <point x="613.1" y="825.5"/>
      <point x="762.0" y="685.0"/>
      <point x="762.0" y="455.2" type="curve" smooth="yes"/>
      <point x="762.0" y="209.1"/>
      <point x="572.8" y="18.800000000000004"/>
      <point x="340.9" y="18.800000000000004" type="curve" smooth="yes"/>
      <point x="229.6" y="18.800000000000004"/>
      <point x="138.3" y="62.6"/>
      <point x="86.2" y="114.0" type="curve"/>
      <point x="59.5" y="80.3" type="line"/>
      <point x="141.1" y="14.5"/>
      <point x="218.4" y="-23.5"/>
    </contour>
  </outline>
</glyph>
<glyph name="six" format="2">
  <advance width="1021.2"/>
  <unicode hex="0036"/>
  <note>
six
</note>
  <outline>
    <contour>
      <point x="493.7" y="-33.0" type="curve" smooth="yes"/>
      <point x="777.8" y="-37.7"/>
      <point x="949.8" y="171.0"/>
      <point x="949.8" y="438.7" type="curve" smooth="yes"/>
      <point x="949.8" y="696.2"/>
      <point x="777.8" y="883.0"/>
      <point x="530.4" y="883.0" type="curve" smooth="yes"/>
      <point x="319.8" y="883.0"/>
      <point x="178.2" y="757.4"/>
      <point x="136.7" y="560.8" type="curve"/>
      <point x="158.1" y="584.6" type="line"/>
      <point x="157.9" y="696.6"/>
      <point x="173.5" y="814.7"/>
      <point x="245.8" y="939.8" type="curve" smooth="yes"/>
      <point x="332.2" y="1144.2"/>
      <point x="517.2" y="1317.0"/>
      <point x="757.8" y="1383.0" type="curve"/>
      <point x="757.8" y="1434.3" type="line"/>
      <point x="532.4" y="1385.1"/>
      <point x="366.0" y="1250.4"/>
      <point x="257.9" y="1087.6" type="curve" smooth="yes"/>
      <point x="124.0" y="915.9"/>
      <point x="89.0" y="708.0"/>
      <point x="89.0" y="526.0" type="curve" smooth="yes"/>
      <point x="89.0" y="127.3"/>
      <point x="256.1" y="-29.3"/>
    </contour>
    <contour>
      <point x="511.7" y="7.600000000000001" type="curve" smooth="yes"/>
      <point x="259.0" y="11.300000000000004"/>
      <point x="160.9" y="233.0"/>
      <point x="164.9" y="462.0" type="curve" smooth="yes"/>
      <point x="168.2" y="658.7"/>
      <point x="318.0" y="840.7"/>
      <point x="540.1" y="840.7" type="curve" smooth="yes"/>
      <point x="801.4" y="840.7"/>
      <point x="876.9" y="585.0"/>
      <point x="876.9" y="422.0" type="curve" smooth="yes"/>
      <point x="876.9" y="211.5"/>
      <point x="757.1" y="3.200000000000003"/>
    </contour>
  </outline>
</glyph>
<glyph name="seven" format="2">
  <advance width="874.6"/>
  <unicode hex="0037"/>
  <note>
seven
</note>
  <outline>
    <contour>
      <point x="215.0" y="0.0" type="curve"/>
      <point x="271.3" y="0.0" type="line"/>
      <point x="371.1" y="550.2"/>
      <point x="559.6" y="1032.2"/>
      <point x="827.0" y="1416.0" type="curve"/>
      <point x="50.6" y="1416.0" type="line"/>
      <point x="50.6" y="1331.6" type="line"/>
      <point x="744.4" y="1331.6" type="line"/>
      <point x="729.1" y="1360.3" type="line"/>
      <point x="501.3" y="1000.1"/>
      <point x="313.7" y="532.5"/>
    </contour>
  </outline>
</glyph>
<glyph name="eight" format="2">
  <advance width="976.8"/>
  <unicode hex="0038"/>
  <note>
eight
</note>
  <outline>
    <contour>
      <point x="489.9" y="-30.7" type="curve" smooth="yes"/>
      <point x="732.8" y="-30.7"/>
      <point x="889.6" y="124.1"/>
      <point x="889.6" y="374.8" type="curve" smooth="yes"/>
      <point x="889.6" y="568.9"/>
      <point x="791.3" y="718.0"/>
      <point x="571.1" y="802.1" type="curve" smooth="yes"/>
      <point x="289.4" y="910.8"/>
      <point x="224.7" y="996.3"/>
      <point x="224.7" y="1112.5" type="curve" smooth="yes"/>
      <point x="224.7" y="1280.3"/>
      <point x="334.1" y="1401.0"/>
      <point x="495.6" y="1401.0" type="curve" smooth="yes"/>
      <point x="643.5" y="1401.0"/>
      <point x="784.8" y="1271.4"/>
      <point x="784.8" y="1111.9" type="curve" smooth="yes"/>
      <point x="784.8" y="990.1"/>
      <point x="698.4" y="860.7"/>
      <point x="558.0" y="792.5" type="curve"/>
      <point x="595.0" y="783.0" type="line"/>
      <point x="727.7" y="850.4"/>
      <point x="832.1" y="990.4"/>
      <point x="832.1" y="1123.5" type="curve" smooth="yes"/>
      <point x="832.1" y="1312.0"/>
      <point x="673.0" y="1441.6"/>
      <point x="495.1" y="1441.6" type="curve" smooth="yes"/>
      <point x="304.3" y="1441.6"/>
      <point x="158.8" y="1321.8"/>
      <point x="158.8" y="1109.9" type="curve" smooth="yes"/>
      <point x="158.8" y="954.9"/>
      <point x="256.0" y="838.7"/>
      <point x="412.0" y="774.7" type="curve" smooth="yes"/>
      <point x="759.7" y="631.4"/>
      <point x="816.7" y="510.5"/>
      <point x="816.7" y="368.6" type="curve" smooth="yes"/>
      <point x="816.7" y="168.6"/>
      <point x="699.8" y="22.500000000000004"/>
      <point x="486.9" y="19.0" type="curve" smooth="yes"/>
      <point x="249.60000000000002" y="15.5"/>
      <point x="139.2" y="190.0"/>
      <point x="139.2" y="375.8" type="curve" smooth="yes"/>
      <point x="139.2" y="545.2"/>
      <point x="236.2" y="684.2"/>
      <point x="422.5" y="776.1" type="curve"/>
      <point x="389.2" y="789.2" type="line"/>
      <point x="192.6" y="696.6"/>
      <point x="81.6" y="551.6"/>
      <point x="81.6" y="363.3" type="curve" smooth="yes"/>
      <point x="81.6" y="152.3"/>
      <point x="230.2" y="-30.7"/>
    </contour>
  </outline>
</glyph>
<glyph name="nine" format="2">
  <advance width="1023.0"/>
  <unicode hex="0039"/>
  <note>
nine
</note>
  <outline>
    <contour>
      <point x="275.3" y="-28.8" type="line"/>
      <point x="437.0" y="6.399999999999999"/>
      <point x="596.4" y="99.80000000000001"/>
      <point x="687.0" y="194.7" type="curve" smooth="yes"/>
      <point x="733.4" y="242.6"/>
      <point x="776.0" y="299.6"/>
      <point x="816.0" y="374.1" type="curve" smooth="yes"/>
      <point x="894.9" y="522.0"/>
      <point x="933.6" y="688.0"/>
      <point x="933.6" y="866.2" type="curve" smooth="yes"/>
      <point x="933.6" y="1248.1"/>
      <point x="779.1" y="1436.2"/>
      <point x="521.9" y="1437.1" type="curve" smooth="yes"/>
      <point x="239.2" y="1438.3"/>
      <point x="71.4" y="1227.5"/>
      <point x="71.4" y="968.2" type="curve" smooth="yes"/>
      <point x="71.4" y="707.9"/>
      <point x="249.0" y="521.1"/>
      <point x="491.5" y="521.1" type="curve" smooth="yes"/>
      <point x="701.4" y="521.1"/>
      <point x="839.5" y="662.1"/>
      <point x="878.9" y="832.1" type="curve"/>
      <point x="863.8" y="859.4" type="line"/>
      <point x="880.8" y="591.3"/>
      <point x="756.7" y="372.4"/>
      <point x="683.0" y="280.9" type="curve" smooth="yes"/>
      <point x="586.1" y="147.9"/>
      <point x="451.5" y="66.8"/>
      <point x="275.3" y="14.100000000000001" type="curve"/>
    </contour>
    <contour>
      <point x="486.7" y="566.2" type="curve" smooth="yes"/>
      <point x="221.9" y="566.2"/>
      <point x="144.3" y="820.5"/>
      <point x="144.3" y="984.2" type="curve" smooth="yes"/>
      <point x="144.3" y="1192.6"/>
      <point x="271.1" y="1393.2"/>
      <point x="504.6" y="1392.3" type="curve" smooth="yes"/>
      <point x="748.2" y="1391.4"/>
      <point x="861.0" y="1173.2"/>
      <point x="859.8" y="974.3" type="curve" smooth="yes"/>
      <point x="858.6" y="749.6"/>
      <point x="708.8" y="566.2"/>
    </contour>
  </outline>
</glyph>
<glyph name="greater" format="2">
  <advance width="1024.3"/>
  <unicode hex="003E"/>
  <note>
greater
</note>
  <outline>
    <contour>
      <point x="119.8" y="371.8" type="line"/>
      <point x="834.0" y="673.4" type="line"/>
      <point x="834.0" y="694.9" type="line"/>
      <point x="119.8" y="994.8" type="line"/>
      <point x="119.8" y="946.0" type="line"/>
      <point x="743.0" y="683.3" type="line"/>
      <point x="119.8" y="420.6" type="line"/>
    </contour>
  </outline>
</glyph>
<glyph name="question" format="2">
  <advance width="873.4"/>
  <unicode hex="003F"/>
  <note>
question
</note>
  <outline>
    <contour>
      <point x="370.8" y="315.7" type="curve"/>
      <point x="434.7" y="315.7" type="line"/>
      <point x="411.9" y="427.2"/>
      <point x="400.6" y="505.8"/>
      <point x="400.6" y="582.4" type="curve" smooth="yes"/>
      <point x="400.6" y="899.9"/>
      <point x="761.5" y="860.2"/>
      <point x="761.5" y="1184.6" type="curve" smooth="yes"/>
      <point x="761.5" y="1385.1"/>
      <point x="618.4" y="1462.0"/>
      <point x="408.4" y="1462.0" type="curve" smooth="yes"/>
      <point x="163.60000000000002" y="1462.0"/>
      <point x="63.400000000000006" y="1357.0"/>
      <point x="63.400000000000006" y="1176.2" type="curve" smooth="yes"/>
      <point x="63.400000000000006" y="1165.1"/>
      <point x="63.400000000000006" y="1153.1"/>
      <point x="63.400000000000006" y="1137.8" type="curve"/>
      <point x="140.8" y="1137.8" type="line"/>
      <point x="136.9" y="1154.2"/>
      <point x="136.5" y="1175.6"/>
      <point x="136.5" y="1193.9" type="curve" smooth="yes"/>
      <point x="136.5" y="1331.8"/>
      <point x="241.2" y="1418.9"/>
      <point x="405.4" y="1418.9" type="curve" smooth="yes"/>
      <point x="572.1" y="1418.9"/>
      <point x="682.9" y="1350.2"/>
      <point x="682.9" y="1171.3" type="curve" smooth="yes"/>
      <point x="682.9" y="868.4"/>
      <point x="347.0" y="940.2"/>
      <point x="347.0" y="570.7" type="curve" smooth="yes"/>
      <point x="347.0" y="511.7"/>
      <point x="354.8" y="431.3"/>
    </contour>
    <contour>
      <point x="410.7" y="-14.6" type="curve" smooth="yes"/>
      <point x="449.3" y="-14.6"/>
      <point x="476.6" y="13.3"/>
      <point x="476.6" y="52.3" type="curve" smooth="yes"/>
      <point x="476.6" y="91.30000000000001"/>
      <point x="448.6" y="117.2"/>
      <point x="410.7" y="117.2" type="curve" smooth="yes"/>
      <point x="372.8" y="117.2"/>
      <point x="344.8" y="91.30000000000001"/>
      <point x="344.8" y="52.3" type="curve" smooth="yes"/>
      <point x="344.8" y="13.3"/>
      <point x="372.1" y="-14.6"/>
    </contour>
  </outline>
</glyph>
<glyph name="at" format="2">
  <advance width="1672.5"/>
  <unicode hex="0040"/>
  <note>
at
</note>
  <outline>
    <contour>
      <point x="884.8" y="-30.0" type="curve" smooth="yes"/>
      <point x="1158.8" y="-30.0"/>
      <point x="1400.8" y="120.0"/>
      <point x="1528.8" y="342.0" type="curve"/>
      <point x="1477.2" y="347.4" type="line"/>
      <point x="1353.0" y="148.4"/>
      <point x="1134.3" y="16.200000000000003"/>
      <point x="883.9" y="16.200000000000003" type="curve" smooth="yes"/>
      <point x="497.6" y="16.200000000000003"/>
      <point x="184.4" y="329.7"/>
      <point x="184.4" y="716.0" type="curve" smooth="yes"/>
      <point x="184.4" y="1100.3"/>
      <point x="497.6" y="1413.8"/>
      <point x="883.9" y="1413.8" type="curve" smooth="yes"/>
      <point x="1224.1" y="1413.8"/>
      <point x="1479.2" y="1173.1"/>
      <point x="1479.2" y="840.2" type="curve" smooth="yes"/>
      <point x="1479.2" y="746.4"/>
      <point x="1452.2" y="649.0"/>
      <point x="1406.4" y="572.1" type="curve" smooth="yes"/>
      <point x="1351.9" y="480.8"/>
      <point x="1271.1" y="414.5"/>
      <point x="1170.7" y="414.5" type="curve" smooth="yes"/>
      <point x="1127.7" y="414.5"/>
      <point x="1061.7" y="449.0"/>
      <point x="1073.7" y="539.0" type="curve"/>
      <point x="1205.7" y="1074.0" type="line"/>
      <point x="1140.8" y="1074.0" type="line"/>
      <point x="1105.8" y="932.0" type="line"/>
      <point x="1089.8" y="1050.0"/>
      <point x="1036.8" y="1094.0"/>
      <point x="936.8" y="1094.0" type="curve" smooth="yes"/>
      <point x="684.8" y="1094.0"/>
      <point x="508.8" y="822.0"/>
      <point x="508.8" y="608.0" type="curve" smooth="yes"/>
      <point x="508.8" y="454.0"/>
      <point x="599.8" y="352.0"/>
      <point x="755.8" y="352.0" type="curve" smooth="yes"/>
      <point x="860.8" y="352.0"/>
      <point x="958.7" y="390.1"/>
      <point x="1013.8" y="530.0" type="curve"/>
      <point x="1020.8" y="426.0"/>
      <point x="1074.8" y="365.0"/>
      <point x="1165.8" y="365.0" type="curve" smooth="yes"/>
      <point x="1233.8" y="365.0"/>
      <point x="1294.8" y="389.0"/>
      <point x="1345.8" y="429.0" type="curve" smooth="yes"/>
      <point x="1399.8" y="471.0"/>
      <point x="1442.8" y="530.0"/>
      <point x="1472.8" y="598.0" type="curve" smooth="yes"/>
      <point x="1506.8" y="672.0"/>
      <point x="1524.8" y="757.0"/>
      <point x="1524.8" y="838.0" type="curve" smooth="yes"/>
      <point x="1524.8" y="1213.0"/>
      <point x="1257.8" y="1460.0"/>
      <point x="884.8" y="1460.0" type="curve" smooth="yes"/>
      <point x="472.8" y="1460.0"/>
      <point x="138.8" y="1126.0"/>
      <point x="138.8" y="716.0" type="curve" smooth="yes"/>
      <point x="138.8" y="304.0"/>
      <point x="472.8" y="-30.0"/>
    </contour>
    <contour>
      <point x="790.4" y="395.9" type="curve" smooth="yes"/>
      <point x="657.4" y="395.9"/>
      <point x="562.8" y="477.8"/>
      <point x="562.8" y="594.1" type="curve" smooth="yes"/>
      <point x="562.8" y="848.1"/>
      <point x="740.6" y="1052.3"/>
      <point x="952.5" y="1052.3" type="curve" smooth="yes"/>
      <point x="1037.7" y="1052.3"/>
      <point x="1068.8" y="970.4"/>
      <point x="1068.8" y="869.8" type="curve" smooth="yes"/>
      <point x="1068.8" y="717.1"/>
      <point x="970.2" y="395.9"/>
    </contour>
  </outline>
</glyph>
<glyph name="A" format="2">
  <advance width="1387.0"/>
  <unicode hex="0041"/>
  <note>
A
</note>
  <anchor x="675.3" y="-6.0" name="bottom"/>
  <anchor x="1238.7" y="0.0" name="ogonek"/>
  <anchor x="691.4" y="1430.0" name="top"/>
  <outline>
    <contour>
      <point x="82.6" y="0.0" type="line"/>
      <point x="122.80000000000001" y="0.0" type="line"/>
      <point x="687.9" y="1369.7" type="line"/>
      <point x="655.6" y="1375.2" type="line"/>
      <point x="1218.2" y="0.0" type="line"/>
      <point x="1304.4" y="0.0" type="line"/>
      <point x="692.5" y="1477.2" type="line"/>
    </contour>
    <contour>
      <point x="289.5" y="479.2" type="line"/>
      <point x="1070.5" y="479.2" type="line"/>
      <point x="1053.5" y="520.5" type="line"/>
      <point x="305.8" y="520.5" type="line"/>
    </contour>
  </outline>
</glyph>
<glyph name="B" format="2">
  <advance width="1125.1"/>
  <unicode hex="0042"/>
  <note>
B
</note>
  <anchor x="541.7" y="-6.0" name="bottom"/>
  <anchor x="541.7" y="1430.0" name="top"/>
  <outline>
    <contour>
      <point x="165.4" y="0.0" type="line"/>
      <point x="557.0" y="0.0" type="line" smooth="yes"/>
      <point x="840.2" y="0.0"/>
      <point x="1018.6" y="150.1"/>
      <point x="1018.6" y="390.5" type="curve" smooth="yes"/>
      <point x="1018.6" y="592.9"/>
      <point x="888.8" y="753.0"/>
      <point x="701.6" y="768.6" type="curve"/>
      <point x="704.7" y="743.1" type="line"/>
      <point x="860.1" y="776.6"/>
      <point x="974.8" y="896.3"/>
      <point x="974.8" y="1069.2" type="curve" smooth="yes"/>
      <point x="974.8" y="1276.2"/>
      <point x="813.1" y="1430.0"/>
      <point x="576.4" y="1430.0" type="curve" smooth="yes"/>
      <point x="165.4" y="1430.0" type="line"/>
    </contour>
    <contour>
      <point x="232.3" y="10.9" type="line"/>
      <point x="232.3" y="761.6" type="line"/>
      <point x="187.6" y="738.9" type="line"/>
      <point x="588.5" y="738.9" type="line" smooth="yes"/>
      <point x="797.7" y="738.9"/>
      <point x="943.4" y="621.3"/>
      <point x="943.4" y="400.9" type="curve" smooth="yes"/>
      <point x="943.4" y="188.5"/>
      <point x="809.1" y="41.300000000000004"/>
      <point x="517.6" y="41.300000000000004" type="curve" smooth="yes"/>
      <point x="207.9" y="41.300000000000004" type="line"/>
    </contour>
    <contour>
      <point x="232.3" y="753.5" type="line"/>
      <point x="232.3" y="1419.4" type="line"/>
      <point x="189.2" y="1388.7" type="line"/>
      <point x="557.0" y="1388.7" type="line" smooth="yes"/>
      <point x="806.8" y="1388.7"/>
      <point x="901.3" y="1239.8"/>
      <point x="901.3" y="1063.3" type="curve" smooth="yes"/>
      <point x="901.3" y="845.1"/>
      <point x="756.7" y="775.5"/>
      <point x="576.4" y="775.5" type="curve" smooth="yes"/>
      <point x="184.3" y="775.5" type="line"/>
    </contour>
  </outline>
</glyph>
<glyph name="C" format="2">
  <advance width="1388.5"/>
  <unicode hex="0043"/>
  <note>
C
</note>
  <anchor x="698.8" y="-6.0" name="bottom"/>
  <anchor x="713.8" y="1430.0" name="top"/>
  <outline>
    <contour>
      <point x="770.9" y="-7.2" type="curve" smooth="yes"/>
      <point x="1015.8" y="-7.2"/>
      <point x="1176.3" y="98.9"/>
      <point x="1300.0" y="320.3" type="curve"/>
      <point x="1229.8" y="320.3" type="line"/>
      <point x="1119.4" y="113.7"/>
      <point x="954.0" y="37.5"/>
      <point x="776.3" y="37.5" type="curve" smooth="yes"/>
      <point x="427.9" y="37.5"/>
      <point x="191.0" y="320.4"/>
      <point x="191.0" y="717.7" type="curve" smooth="yes"/>
      <point x="191.0" y="1122.3"/>
      <point x="430.5" y="1396.2"/>
      <point x="769.6" y="1396.2" type="curve" smooth="yes"/>
      <point x="948.4" y="1396.2"/>
      <point x="1133.8" y="1318.1"/>
      <point x="1232.1" y="1115.7" type="curve"/>
      <point x="1297.9" y="1115.7" type="line"/>
      <point x="1191.6" y="1342.2"/>
      <point x="1004.8" y="1440.9"/>
      <point x="771.6" y="1440.9" type="curve" smooth="yes"/>
      <point x="375.9" y="1440.9"/>
      <point x="108.4" y="1151.3"/>
      <point x="108.4" y="715.3" type="curve" smooth="yes"/>
      <point x="108.4" y="261.5"/>
      <point x="380.5" y="-7.2"/>
    </contour>
  </outline>
</glyph>
<glyph name="D" format="2">
  <advance width="1340.4"/>
  <unicode hex="0044"/>
  <note>
D
</note>
  <anchor x="670.2" y="-6.0" name="bottom"/>
  <anchor x="207.9" y="715.0" name="center"/>
  <anchor x="670.2" y="1430.0" name="top"/>
  <outline>
    <contour>
      <point x="165.4" y="0.0" type="line"/>
      <point x="494.8" y="0.0" type="line" smooth="yes"/>
      <point x="695.1" y="0.0"/>
      <point x="843.4" y="27.9"/>
      <point x="962.7" y="97.1" type="curve" smooth="yes"/>
      <point x="1135.8" y="197.0"/>
      <point x="1227.5" y="390.3"/>
      <point x="1227.5" y="714.7" type="curve" smooth="yes"/>
      <point x="1227.5" y="988.0"/>
      <point x="1162.5" y="1174.6"/>
      <point x="1024.1" y="1285.1" type="curve" smooth="yes"/>
      <point x="892.4" y="1390.3"/>
      <point x="705.3" y="1430.0"/>
      <point x="432.5" y="1430.0" type="curve" smooth="yes"/>
      <point x="165.4" y="1430.0" type="line"/>
    </contour>
    <contour>
      <point x="242.3" y="15.3" type="line"/>
      <point x="242.3" y="1414.7" type="line"/>
      <point x="210.5" y="1388.7" type="line"/>
      <point x="521.2" y="1388.7" type="line" smooth="yes"/>
      <point x="965.9" y="1388.7"/>
      <point x="1154.4" y="1173.1"/>
      <point x="1154.4" y="719.0" type="curve" smooth="yes"/>
      <point x="1154.4" y="257.2"/>
      <point x="960.4" y="41.300000000000004"/>
      <point x="511.8" y="41.300000000000004" type="curve" smooth="yes"/>
      <point x="210.5" y="41.300000000000004" type="line"/>
    </contour>
  </outline>
</glyph>
<glyph name="E" format="2">
  <advance width="1028.1"/>
  <unicode hex="0045"/>
  <note>
E
</note>
  <anchor x="531.2" y="-6.0" name="bottom"/>
  <anchor x="781.7" y="0.0" name="ogonek"/>
  <anchor x="543.2" y="1430.0" name="top"/>
  <anchor x="-12.0" y="1430.0" name="topleft"/>
  <outline>
    <contour>
      <point x="165.4" y="0.0" type="line"/>
      <point x="929.8" y="0.0" type="line"/>
      <point x="929.8" y="41.300000000000004" type="line"/>
      <point x="195.0" y="41.300000000000004" type="line"/>
      <point x="232.3" y="13.2" type="line"/>
      <point x="232.3" y="743.7" type="line"/>
      <point x="198.8" y="707.2" type="line"/>
      <point x="929.8" y="707.2" type="line"/>
      <point x="929.8" y="748.5" type="line"/>
      <point x="195.0" y="748.5" type="line"/>
      <point x="232.3" y="720.4" type="line"/>
      <point x="232.3" y="1419.7" type="line"/>
      <point x="187.4" y="1388.7" type="line"/>
      <point x="929.8" y="1388.7" type="line"/>
      <point x="929.8" y="1430.0" type="line"/>
      <point x="165.4" y="1430.0" type="line"/>
    </contour>
  </outline>
</glyph>
<glyph name="F" format="2">
  <advance width="1013.1"/>
  <unicode hex="0046"/>
  <note>
F
</note>
  <anchor x="532.8" y="-6.0" name="bottom"/>
  <anchor x="532.8" y="1430.0" name="top"/>
  <outline>
    <contour>
      <point x="165.4" y="0.0" type="line"/>
      <point x="232.3" y="0.0" type="line"/>
      <point x="232.3" y="744.3" type="line"/>
      <point x="200.0" y="707.2" type="line"/>
      <point x="924.1" y="707.2" type="line"/>
      <point x="924.1" y="748.5" type="line"/>
      <point x="197.7" y="748.5" type="line"/>
      <point x="232.3" y="719.8" type="line"/>
      <point x="232.3" y="1419.7" type="line"/>
      <point x="187.4" y="1388.7" type="line"/>
      <point x="924.1" y="1388.7" type="line"/>
      <point x="924.1" y="1430.0" type="line"/>
      <point x="165.4" y="1430.0" type="line"/>
    </contour>
  </outline>
</glyph>
<glyph name="G" format="2">
  <advance width="1481.3"/>
  <unicode hex="0047"/>
  <note>
G
</note>
  <anchor x="730.5" y="-6.0" name="bottom"/>
  <anchor x="730.5" y="1430.0" name="top"/>
  <outline>
    <contour>
      <point x="756.2" y="-7.2" type="curve" smooth="yes"/>
      <point x="1132.4" y="-7.2"/>
      <point x="1361.9" y="256.0"/>
      <point x="1391.5" y="633.0" type="curve"/>
      <point x="1322.2" y="633.0" type="line"/>
      <point x="1287.7" y="285.9"/>
      <point x="1069.8" y="47.900000000000006"/>
      <point x="756.2" y="37.5" type="curve"/>
      <point x="418.0" y="48.900000000000006"/>
      <point x="191.0" y="325.4"/>
      <point x="191.0" y="717.7" type="curve" smooth="yes"/>
      <point x="191.0" y="1114.2"/>
      <point x="423.8" y="1388.8"/>
      <point x="756.2" y="1396.2" type="curve"/>
      <point x="960.2" y="1391.5"/>
      <point x="1126.4" y="1287.1"/>
      <point x="1224.8" y="1115.0" type="curve"/>
      <point x="1312.5" y="1115.0" type="line"/>
      <point x="1206.6" y="1315.7"/>
      <point x="1012.7" y="1440.9"/>
      <point x="756.2" y="1440.9" type="curve" smooth="yes"/>
      <point x="355.6" y="1440.9"/>
      <point x="108.4" y="1135.2"/>
      <point x="108.4" y="714.7" type="curve" smooth="yes"/>
      <point x="108.4" y="295.6"/>
      <point x="352.6" y="-7.2"/>
    </contour>
    <contour>
      <point x="907.6" y="591.4" type="line"/>
      <point x="1356.1" y="591.4" type="line"/>
      <point x="1356.1" y="632.7" type="line"/>
      <point x="907.6" y="632.7" type="line"/>
    </contour>
  </outline>
</glyph>
<glyph name="H" format="2">
  <advance width="1491.9"/>
  <unicode hex="0048"/>
  <note>
H
</note>
  <anchor x="746.1" y="-6.0" name="bottom"/>
  <anchor x="746.1" y="715.0" name="center"/>
  <anchor x="746.1" y="1430.0" name="top"/>
  <anchor x="44.0" y="1430.0" name="topleft"/>
  <outline>
    <contour>
      <point x="165.4" y="0.0" type="line"/>
      <point x="238.3" y="0.0" type="line"/>
      <point x="238.3" y="732.5" type="line"/>
      <point x="213.6" y="711.2" type="line"/>
      <point x="1273.5" y="711.2" type="line"/>
      <point x="1253.9" y="732.5" type="line"/>
      <point x="1253.9" y="0.0" type="line"/>
      <point x="1326.5" y="0.0" type="line"/>
      <point x="1326.5" y="1430.0" type="line"/>
      <point x="1253.9" y="1430.0" type="line"/>
      <point x="1253.9" y="731.2" type="line"/>
      <point x="1273.5" y="752.5" type="line"/>
      <point x="213.6" y="752.5" type="line"/>
      <point x="238.3" y="731.2" type="line"/>
      <point x="238.3" y="1430.0" type="line"/>
      <point x="165.4" y="1430.0" type="line"/>
    </contour>
  </outline>
</glyph>
<glyph name="I" format="2">
  <advance width="397.7"/>
  <unicode hex="0049"/>
  <note>
I
</note>
  <anchor x="199.0" y="-6.0" name="bottom"/>
  <anchor x="198.8" y="0.0" name="ogonek"/>
  <anchor x="199.0" y="1430.0" name="top"/>
  <anchor x="15.299999999999997" y="1430.0" name="topleft"/>
  <outline>
    <contour>
      <point x="165.4" y="0.0" type="line"/>
      <point x="232.3" y="0.0" type="line"/>
      <point x="232.3" y="1430.0" type="line"/>
      <point x="165.4" y="1430.0" type="line"/>
    </contour>
  </outline>
</glyph>
<glyph name="J" format="2">
  <advance width="649.9"/>
  <unicode hex="004A"/>
  <note>
J
</note>
  <anchor x="337.7" y="-8.8" name="bottom"/>
  <anchor x="337.7" y="1434.2" name="top"/>
  <outline>
    <contour>
      <point x="81.1" y="-63.6" type="line"/>
      <point x="134.4" y="-124.6"/>
      <point x="203.5" y="-151.2"/>
      <point x="263.0" y="-151.2" type="curve" smooth="yes"/>
      <point x="413.9" y="-151.2"/>
      <point x="485.5" y="-26.3"/>
      <point x="485.5" y="221.7" type="curve" smooth="yes"/>
      <point x="485.5" y="1430.7" type="line"/>
      <point x="418.3" y="1430.7" type="line"/>
      <point x="418.3" y="179.6" type="line" smooth="yes"/>
      <point x="418.3" y="-73.0"/>
      <point x="318.2" y="-102.4"/>
      <point x="265.2" y="-102.4" type="curve" smooth="yes"/>
      <point x="192.6" y="-102.4"/>
      <point x="126.5" y="-51.099999999999994"/>
      <point x="81.1" y="9.100000000000001" type="curve"/>
    </contour>
  </outline>
</glyph>
<glyph name="K" format="2">
  <advance width="1261.8"/>
  <unicode hex="004B"/>
  <note>
K
</note>
  <anchor x="629.3" y="-6.0" name="bottom"/>
  <anchor x="629.3" y="1430.0" name="top"/>
  <outline>
    <contour>
      <point x="165.4" y="0.0" type="line"/>
      <point x="232.3" y="0.0" type="line"/>
      <point x="232.3" y="1430.0" type="line"/>
      <point x="165.4" y="1430.0" type="line"/>
    </contour>
    <contour>
      <point x="203.7" y="400.3" type="line"/>
      <point x="1114.5" y="1430.0" type="line"/>
      <point x="1065.2" y="1430.0" type="line"/>
      <point x="212.4" y="462.5" type="line"/>
    </contour>
    <contour>
      <point x="1091.3" y="0.0" type="line"/>
      <point x="1182.3" y="0.0" type="line"/>
      <point x="518.4" y="783.1" type="line"/>
      <point x="475.1" y="732.4" type="line"/>
    </contour>
  </outline>
</glyph>
<glyph name="L" format="2">
  <advance width="911.0"/>
  <unicode hex="004C"/>
  <note>
L
</note>
  <anchor x="455.5" y="-6.0" name="bottom"/>
  <anchor x="195.5" y="715.0" name="center"/>
  <anchor x="572.6" y="719.0" name="dot"/>
  <anchor x="826.8" y="10.0" name="ogonek"/>
  <anchor x="290.5" y="1430.0" name="top"/>
  <anchor x="-1.3000000000000043" y="1430.0" name="topleft"/>
  <anchor x="728.0" y="1430.0" name="topright"/>
  <outline>
    <contour>
      <point x="165.4" y="0.0" type="line"/>
      <point x="832.3" y="0.0" type="line"/>
      <point x="832.3" y="41.300000000000004" type="line"/>
      <point x="199.2" y="41.300000000000004" type="line"/>
      <point x="233.8" y="14.3" type="line"/>
      <point x="233.8" y="1430.0" type="line"/>
      <point x="165.4" y="1430.0" type="line"/>
    </contour>
  </outline>
</glyph>
<glyph name="M" format="2">
  <advance width="1584.6"/>
  <unicode hex="004D"/>
  <note>
M
</note>
  <guideline x="401.9" y="856.0" angle="112.9199"/>
  <guideline x="999.9" y="711.0" angle="247.1086"/>
  <guideline x="545.9" y="730.0" angle="111.5953"/>
  <guideline x="1098.9" y="730.0" angle="248.2128"/>
  <guideline x="1058.9" y="689.0" angle="68.3561"/>
  <guideline x="481.9" y="712.0" angle="292.8657"/>
  <anchor x="792.3" y="-6.0" name="bottom"/>
  <anchor x="792.3" y="1430.0" name="top"/>
  <outline>
    <contour>
      <point x="165.4" y="0.0" type="line"/>
      <point x="208.5" y="0.0" type="line"/>
      <point x="208.5" y="1413.4" type="line"/>
      <point x="183.9" y="1408.5" type="line"/>
      <point x="794.4" y="78.7" type="line"/>
      <point x="1376.2" y="1402.5" type="line"/>
      <point x="1352.3" y="1406.4" type="line"/>
      <point x="1352.3" y="0.0" type="line"/>
      <point x="1419.2" y="0.0" type="line"/>
      <point x="1419.2" y="1430.0" type="line"/>
      <point x="1337.3" y="1430.0" type="line"/>
      <point x="786.7" y="182.1" type="line"/>
      <point x="830.8" y="194.7" type="line"/>
      <point x="264.1" y="1430.0" type="line"/>
      <point x="165.4" y="1430.0" type="line"/>
    </contour>
  </outline>
</glyph>
<glyph name="N" format="2">
  <advance width="1473.9"/>
  <unicode hex="004E"/>
  <note>
N
</note>
  <anchor x="737.1" y="-6.0" name="bottom"/>
  <anchor x="737.1" y="1430.0" name="top"/>
  <outline>
    <contour>
      <point x="165.4" y="0.0" type="line"/>
      <point x="208.5" y="0.0" type="line"/>
      <point x="208.5" y="1403.4" type="line"/>
      <point x="184.2" y="1399.6" type="line"/>
      <point x="1222.6" y="0.0" type="line"/>
      <point x="1308.5" y="0.0" type="line"/>
      <point x="1308.5" y="1430.0" type="line"/>
      <point x="1265.4" y="1430.0" type="line"/>
      <point x="1265.4" y="18.200000000000003" type="line"/>
      <point x="1284.0" y="44.1" type="line"/>
      <point x="262.0" y="1430.0" type="line"/>
      <point x="165.4" y="1430.0" type="line"/>
    </contour>
  </outline>
</glyph>
<glyph name="O" format="2">
  <advance width="1512.4"/>
  <unicode hex="004F"/>
  <note>
O
</note>
  <anchor x="756.2" y="-6.0" name="bottom"/>
  <anchor x="756.2" y="715.0" name="center"/>
  <anchor x="831.3" y="0.0" name="ogonek"/>
  <anchor x="756.2" y="1430.0" name="top"/>
  <anchor x="34.199999999999996" y="1430.0" name="topleft"/>
  <anchor x="1374.0" y="1430.0" name="topright"/>
  <outline>
    <contour>
      <point x="756.2" y="-7.2" type="curve" smooth="yes"/>
      <point x="1159.1" y="-7.2"/>
      <point x="1404.0" y="294.9"/>
      <point x="1404.0" y="714.7" type="curve" smooth="yes"/>
      <point x="1404.0" y="1134.8"/>
      <point x="1157.8" y="1440.9"/>
      <point x="756.2" y="1440.9" type="curve" smooth="yes"/>
      <point x="355.6" y="1440.9"/>
      <point x="108.4" y="1135.2"/>
      <point x="108.4" y="714.7" type="curve" smooth="yes"/>
      <point x="108.4" y="295.6"/>
      <point x="352.6" y="-7.2"/>
    </contour>
    <contour>
      <point x="756.2" y="37.5" type="curve"/>
      <point x="418.0" y="48.900000000000006"/>
      <point x="191.0" y="325.4"/>
      <point x="191.0" y="717.7" type="curve" smooth="yes"/>
      <point x="191.0" y="1114.2"/>
      <point x="423.8" y="1388.8"/>
      <point x="756.2" y="1396.2" type="curve"/>
      <point x="1088.6" y="1388.8"/>
      <point x="1321.4" y="1114.2"/>
      <point x="1321.4" y="717.7" type="curve" smooth="yes"/>
      <point x="1321.4" y="325.4"/>
      <point x="1094.4" y="48.900000000000006"/>
    </contour>
  </outline>
</glyph>
<glyph name="P" format="2">
  <advance width="991.3"/>
  <unicode hex="0050"/>
  <note>
P
</note>
  <anchor x="495.3" y="-6.0" name="bottom"/>
  <anchor x="495.3" y="1430.0" name="top"/>
  <outline>
    <contour>
      <point x="165.4" y="0.0" type="line"/>
      <point x="232.3" y="0.0" type="line"/>
      <point x="232.3" y="656.5" type="line"/>
      <point x="189.7" y="630.8" type="line"/>
      <point x="431.5" y="630.8" type="line" smooth="yes"/>
      <point x="572.9" y="630.8"/>
      <point x="678.1" y="657.9"/>
      <point x="752.0" y="708.2" type="curve" smooth="yes"/>
      <point x="852.1" y="776.4"/>
      <point x="894.3" y="887.2"/>
      <point x="894.3" y="1031.4" type="curve" smooth="yes"/>
      <point x="894.3" y="1166.9"/>
      <point x="856.9" y="1266.9"/>
      <point x="780.1" y="1332.8" type="curve" smooth="yes"/>
      <point x="706.9" y="1395.8"/>
      <point x="591.6" y="1430.0"/>
      <point x="431.8" y="1430.0" type="curve" smooth="yes"/>
      <point x="165.4" y="1430.0" type="line"/>
    </contour>
    <contour>
      <point x="232.3" y="645.7" type="line"/>
      <point x="232.3" y="1416.0" type="line"/>
      <point x="182.2" y="1388.7" type="line"/>
      <point x="391.7" y="1388.7" type="line" smooth="yes"/>
      <point x="704.7" y="1388.7"/>
      <point x="822.1" y="1279.7"/>
      <point x="822.1" y="1030.8" type="curve" smooth="yes"/>
      <point x="822.1" y="778.6"/>
      <point x="703.3" y="672.1"/>
      <point x="391.7" y="672.1" type="curve" smooth="yes"/>
      <point x="189.1" y="672.1" type="line"/>
    </contour>
  </outline>
</glyph>
<glyph name="Q" format="2">
  <advance width="1512.4"/>
  <unicode hex="0051"/>
  <note>
Q
</note>
  <anchor x="738.8" y="1.5" name="bottom"/>
  <anchor x="738.8" y="1422.5" name="top"/>
  <anchor x="756.2" y="723.8049999999998" name="center"/>
  <anchor x="831.3" y="3.8000000000000007" name="ogonek"/>
  <anchor x="34.199999999999996" y="1443.8099999999997" name="topleft"/>
  <anchor x="1374.0" y="1443.8099999999997" name="topright"/>
  <outline>
    <contour>
      <point x="981.3" y="-376.6" type="curve" smooth="yes"/>
      <point x="1041.9" y="-376.6"/>
      <point x="1062.9" y="-371.6"/>
      <point x="1064.3" y="-334.1" type="curve"/>
      <point x="1051.1" y="-334.1"/>
      <point x="1036.9" y="-334.1"/>
      <point x="1023.7" y="-334.1" type="curve" smooth="yes"/>
      <point x="855.0" y="-334.1"/>
      <point x="755.7" y="-284.3"/>
      <point x="755.7" y="-153.8" type="curve" smooth="yes"/>
      <point x="755.7" y="17.400000000000006" type="line"/>
      <point x="701.8" y="17.400000000000006" type="line"/>
      <point x="701.8" y="-168.0" type="line" smooth="yes"/>
      <point x="701.8" y="-257.0"/>
      <point x="751.7" y="-310.1"/>
      <point x="793.4" y="-335.6" type="curve" smooth="yes"/>
      <point x="841.0" y="-364.2"/>
      <point x="892.7" y="-376.6"/>
    </contour>
    <component base="O" yScale="1.007" yOffset="3.8000000000000007"/>
  </outline>
</glyph>
<glyph name="R" format="2">
  <advance width="1051.3"/>
  <unicode hex="0052"/>
  <note>
R
</note>
  <anchor x="525.8" y="-6.0" name="bottom"/>
  <anchor x="525.8" y="1430.0" name="top"/>
  <outline>
    <contour>
      <point x="165.4" y="0.0" type="line"/>
      <point x="232.3" y="0.0" type="line"/>
      <point x="232.3" y="686.3" type="line"/>
      <point x="188.8" y="670.8" type="line"/>
      <point x="530.1" y="670.8" type="line"/>
      <point x="572.7" y="670.8" type="line"/>
      <point x="747.4" y="714.5"/>
      <point x="894.3" y="799.3"/>
      <point x="894.3" y="1065.4" type="curve" smooth="yes"/>
      <point x="894.3" y="1328.6"/>
      <point x="684.9" y="1430.0"/>
      <point x="431.8" y="1430.0" type="curve" smooth="yes"/>
      <point x="165.4" y="1430.0" type="line"/>
    </contour>
    <contour>
      <point x="188.8" y="712.1" type="line"/>
      <point x="232.3" y="694.5" type="line"/>
      <point x="232.3" y="1411.2" type="line"/>
      <point x="188.8" y="1388.7" type="line"/>
      <point x="391.7" y="1388.7" type="line" smooth="yes"/>
      <point x="662.7" y="1388.7"/>
      <point x="822.1" y="1310.2"/>
      <point x="822.1" y="1064.8" type="curve" smooth="yes"/>
      <point x="822.1" y="809.1"/>
      <point x="668.3" y="712.1"/>
      <point x="419.7" y="712.1" type="curve" smooth="yes"/>
    </contour>
    <contour>
      <point x="448.3" y="670.8" type="line"/>
      <point x="507.0" y="670.8"/>
      <point x="605.1" y="660.0"/>
      <point x="659.7" y="624.9" type="curve" smooth="yes"/>
      <point x="737.1" y="574.5"/>
      <point x="758.7" y="550.9"/>
      <point x="822.0" y="242.0" type="curve" smooth="yes"/>
      <point x="826.8" y="218.39999999999998"/>
      <point x="861.7" y="46.0"/>
      <point x="872.1" y="0.0" type="curve"/>
      <point x="948.8" y="0.0" type="line"/>
      <point x="927.4" y="87.2"/>
      <point x="901.1" y="204.2"/>
      <point x="879.5" y="313.5" type="curve" smooth="yes"/>
      <point x="846.4" y="475.0"/>
      <point x="818.2" y="570.6"/>
      <point x="758.7" y="632.6" type="curve" smooth="yes"/>
      <point x="716.0" y="677.4"/>
      <point x="668.9" y="687.3"/>
      <point x="640.4" y="696.4" type="curve"/>
    </contour>
  </outline>
</glyph>
<glyph name="S" format="2">
  <advance width="1098.7"/>
  <unicode hex="0053"/>
  <note>
S
</note>
  <anchor x="540.4" y="-6.0" name="bottom"/>
  <anchor x="540.4" y="1430.0" name="top"/>
  <outline>
    <contour>
      <point x="548.4" y="-25.7" type="curve" smooth="yes"/>
      <point x="864.5" y="-25.7"/>
      <point x="995.4" y="147.3"/>
      <point x="995.4" y="387.0" type="curve" smooth="yes"/>
      <point x="995.4" y="621.5"/>
      <point x="801.4" y="729.4"/>
      <point x="580.1" y="792.8" type="curve" smooth="yes"/>
      <point x="310.4" y="870.0"/>
      <point x="225.9" y="968.0"/>
      <point x="225.9" y="1126.7" type="curve" smooth="yes"/>
      <point x="225.9" y="1299.8"/>
      <point x="357.5" y="1421.8"/>
      <point x="531.9" y="1421.8" type="curve" smooth="yes"/>
      <point x="722.9" y="1421.8"/>
      <point x="894.9" y="1284.1"/>
      <point x="906.4" y="1121.7" type="curve"/>
      <point x="967.8" y="1121.7" type="line"/>
      <point x="940.3" y="1331.5"/>
      <point x="758.0" y="1463.7"/>
      <point x="539.5" y="1463.7" type="curve" smooth="yes"/>
      <point x="295.8" y="1463.7"/>
      <point x="153.1" y="1300.4"/>
      <point x="153.1" y="1104.8" type="curve" smooth="yes"/>
      <point x="153.1" y="897.7"/>
      <point x="291.9" y="809.4"/>
      <point x="522.7" y="736.8" type="curve" smooth="yes"/>
      <point x="756.7" y="662.6"/>
      <point x="918.5" y="592.9"/>
      <point x="918.5" y="358.9" type="curve" smooth="yes"/>
      <point x="918.5" y="173.9"/>
      <point x="825.7" y="16.200000000000003"/>
      <point x="553.0" y="16.200000000000003" type="curve" smooth="yes"/>
      <point x="331.3" y="16.200000000000003"/>
      <point x="191.2" y="123.7"/>
      <point x="160.2" y="399.3" type="curve"/>
      <point x="95.8" y="399.3" type="line"/>
      <point x="122.0" y="107.5"/>
      <point x="285.7" y="-25.7"/>
    </contour>
  </outline>
</glyph>
<glyph name="T" format="2">
  <advance width="1203.1"/>
  <unicode hex="0054"/>
  <note>
T
</note>
  <anchor x="601.7" y="-6.0" name="bottom"/>
  <anchor x="601.7" y="715.0" name="center"/>
  <anchor x="601.7" y="1430.0" name="top"/>
  <outline>
    <contour>
      <point x="567.1" y="0.0" type="line"/>
      <point x="636.0" y="0.0" type="line"/>
      <point x="636.0" y="1418.4" type="line"/>
      <point x="576.8" y="1388.7" type="line"/>
      <point x="1124.4" y="1388.7" type="line"/>
      <point x="1124.4" y="1430.0" type="line"/>
      <point x="78.7" y="1430.0" type="line"/>
      <point x="78.7" y="1388.7" type="line"/>
      <point x="626.3" y="1388.7" type="line"/>
      <point x="567.1" y="1418.4" type="line"/>
    </contour>
  </outline>
</glyph>
<glyph name="U" format="2">
  <advance width="1410.4"/>
  <unicode hex="0055"/>
  <note>
U
</note>
  <anchor x="705.7" y="-6.0" name="bottom"/>
  <anchor x="833.4" y="0.0" name="ogonek"/>
  <anchor x="705.7" y="1430.0" name="top"/>
  <anchor x="1349.7" y="1430.0" name="topright"/>
  <outline>
    <contour>
      <point x="705.4" y="-24.0" type="curve" smooth="yes"/>
      <point x="1007.4" y="-24.0"/>
      <point x="1268.9" y="235.8"/>
      <point x="1268.9" y="577.7" type="curve" smooth="yes"/>
      <point x="1268.9" y="1430.0" type="line"/>
      <point x="1227.4" y="1430.0" type="line"/>
      <point x="1227.4" y="560.2" type="line" smooth="yes"/>
      <point x="1227.4" y="243.2"/>
      <point x="952.7" y="17.300000000000004"/>
      <point x="704.0" y="17.300000000000004" type="curve" smooth="yes"/>
      <point x="455.9" y="17.300000000000004"/>
      <point x="209.8" y="243.2"/>
      <point x="209.8" y="560.2" type="curve" smooth="yes"/>
      <point x="209.8" y="1430.0" type="line"/>
      <point x="142.9" y="1430.0" type="line"/>
      <point x="142.9" y="556.7" type="line" smooth="yes"/>
      <point x="142.9" y="195.2"/>
      <point x="428.6" y="-24.0"/>
    </contour>
  </outline>
</glyph>
<glyph name="V" format="2">
  <advance width="1370.9"/>
  <unicode hex="0056"/>
  <note>
V
</note>
  <anchor x="685.8" y="-6.0" name="bottom"/>
  <anchor x="685.8" y="1430.0" name="top"/>
  <outline>
    <contour>
      <point x="689.7" y="-39.5" type="line"/>
      <point x="1287.6" y="1429.3" type="line"/>
      <point x="1253.2" y="1429.3" type="line"/>
      <point x="681.5" y="24.0" type="line"/>
      <point x="724.9" y="62.5" type="line"/>
      <point x="162.7" y="1430.0" type="line"/>
      <point x="82.6" y="1429.3" type="line"/>
    </contour>
  </outline>
</glyph>
<glyph name="X" format="2">
  <advance width="1176.9"/>
  <unicode hex="0058"/>
  <note>
X
</note>
  <anchor x="589.3" y="-6.0" name="bottom"/>
  <anchor x="589.3" y="1430.0" name="top"/>
  <outline>
    <contour>
      <point x="1004.8" y="0.0" type="line"/>
      <point x="1092.2" y="0.0" type="line"/>
      <point x="188.4" y="1429.4" type="line"/>
      <point x="100.7" y="1429.4" type="line"/>
    </contour>
    <contour>
      <point x="89.6" y="0.0" type="line"/>
      <point x="134.2" y="0.0" type="line"/>
      <point x="594.6" y="723.8" type="line"/>
      <point x="567.0" y="751.0" type="line"/>
    </contour>
    <contour>
      <point x="605.2" y="719.9" type="line"/>
      <point x="1055.5" y="1430.0" type="line"/>
      <point x="1010.9" y="1430.0" type="line"/>
      <point x="577.6" y="747.1" type="line"/>
    </contour>
  </outline>
</glyph>
<glyph name="Y" format="2">
  <advance width="1032.4"/>
  <unicode hex="0059"/>
  <note>
Y
</note>
  <guideline x="744.1" y="1192.0" angle="245.6375"/>
  <guideline x="273.1" y="1004.0" angle="294.3172"/>
  <anchor x="517.7" y="0.0" name="bottom"/>
  <anchor x="516.2" y="1430.0" name="top"/>
  <anchor x="31.4" y="1430.0" name="topleft"/>
  <outline>
    <contour>
      <point x="486.9" y="0.0" type="line"/>
      <point x="553.8" y="0.0" type="line"/>
      <point x="553.8" y="629.1" type="line"/>
      <point x="950.5" y="1430.0" type="line"/>
      <point x="913.0" y="1430.0" type="line"/>
      <point x="518.2" y="630.7" type="line"/>
      <point x="554.1" y="648.3" type="line"/>
      <point x="169.9" y="1430.0" type="line"/>
      <point x="81.9" y="1430.0" type="line"/>
      <point x="486.9" y="617.0" type="line"/>
    </contour>
  </outline>
</glyph>
<glyph name="Z" format="2">
  <advance width="1200.4"/>
  <unicode hex="005A"/>
  <note>
Z
</note>
  <anchor x="600.2" y="-6.0" name="bottom"/>
  <anchor x="600.2" y="715.0" name="center"/>
  <anchor x="600.2" y="1430.0" name="top"/>
  <outline>
    <contour>
      <point x="79.5" y="0.0" type="line"/>
      <point x="1104.5" y="0.0" type="line"/>
      <point x="1102.9" y="43.400000000000006" type="line"/>
      <point x="131.7" y="43.400000000000006" type="line"/>
      <point x="142.2" y="16.7" type="line"/>
      <point x="1101.0" y="1430.0" type="line"/>
      <point x="170.1" y="1430.0" type="line"/>
      <point x="170.1" y="1386.6" type="line"/>
      <point x="1057.9" y="1386.6" type="line"/>
      <point x="1038.9" y="1412.2" type="line"/>
    </contour>
  </outline>
</glyph>
<glyph name="bracketleft" format="2">
  <advance width="572.8"/>
  <unicode hex="005B"/>
  <note>
bracketleft
</note>
  <outline>
    <contour>
      <point x="160.4" y="-397.8" type="line"/>
      <point x="492.9" y="-397.8" type="line"/>
      <point x="492.9" y="-335.2" type="line"/>
      <point x="215.7" y="-335.2" type="line"/>
      <point x="215.7" y="1399.1" type="line"/>
      <point x="492.9" y="1399.1" type="line"/>
      <point x="492.9" y="1461.7" type="line"/>
      <point x="160.4" y="1461.7" type="line"/>
    </contour>
  </outline>
</glyph>
<glyph name="bracketright" format="2">
  <advance width="572.8"/>
  <unicode hex="005D"/>
  <note>
bracketright
</note>
  <outline>
    <contour>
      <point x="79.9" y="-397.8" type="line"/>
      <point x="412.4" y="-397.8" type="line"/>
      <point x="412.4" y="1461.7" type="line"/>
      <point x="79.9" y="1461.7" type="line"/>
      <point x="79.9" y="1399.1" type="line"/>
      <point x="357.1" y="1399.1" type="line"/>
      <point x="357.1" y="-335.2" type="line"/>
      <point x="79.9" y="-335.2" type="line"/>
    </contour>
  </outline>
</glyph>
<glyph name="asciicircum" format="2">
  <advance width="970.4"/>
  <unicode hex="005E"/>
  <note>
asciicircum
</note>
  <outline>
    <contour>
      <point x="125.5" y="849.1" type="line"/>
      <point x="177.9" y="849.1" type="line"/>
      <point x="498.9" y="1413.8" type="line"/>
      <point x="472.7" y="1411.4" type="line"/>
      <point x="792.5" y="849.1" type="line"/>
      <point x="844.9" y="849.1" type="line"/>
      <point x="496.2" y="1457.9" type="line"/>
      <point x="472.2" y="1457.9" type="line"/>
    </contour>
  </outline>
</glyph>
<glyph name="underscore" format="2">
  <advance width="1223.4"/>
  <unicode hex="005F"/>
  <note>
underscore
</note>
  <outline>
    <contour>
      <point x="79.7" y="-331.4" type="line"/>
      <point x="1143.7" y="-331.4" type="line"/>
      <point x="1143.7" y="-278.2" type="line"/>
      <point x="79.7" y="-278.2" type="line"/>
    </contour>
  </outline>
</glyph>
<glyph name="a" format="2">
  <advance width="1038.5"/>
  <unicode hex="0061"/>
  <note>
a
</note>
  <anchor x="496.2" y="-6.0" name="bottom"/>
  <anchor x="882.2" y="0.0" name="ogonek"/>
  <anchor x="499.2" y="942.5" name="top"/>
  <outline>
    <contour>
      <point x="486.1" y="-25.2" type="curve" smooth="yes"/>
      <point x="681.9" y="-25.2"/>
      <point x="820.6" y="91.6"/>
      <point x="873.4" y="282.7" type="curve"/>
      <point x="858.3" y="302.1" type="line"/>
      <point x="847.7" y="0.0" type="line"/>
      <point x="915.2" y="0.0" type="line"/>
      <point x="915.2" y="935.4" type="line"/>
      <point x="848.0" y="935.4" type="line"/>
      <point x="848.0" y="613.0" type="line"/>
      <point x="874.0" y="630.6" type="line"/>
      <point x="819.6" y="830.5"/>
      <point x="680.6" y="961.4"/>
      <point x="485.8" y="961.4" type="curve" smooth="yes"/>
      <point x="235.9" y="961.4"/>
      <point x="77.3" y="744.2"/>
      <point x="77.3" y="455.4" type="curve" smooth="yes"/>
      <point x="77.3" y="169.0"/>
      <point x="234.8" y="-25.2"/>
    </contour>
    <contour>
      <point x="487.3" y="18.700000000000003" type="curve" smooth="yes"/>
      <point x="271.8" y="18.700000000000003"/>
      <point x="145.1" y="181.0"/>
      <point x="145.1" y="465.4" type="curve" smooth="yes"/>
      <point x="145.1" y="755.0"/>
      <point x="277.7" y="917.5"/>
      <point x="487.0" y="917.5" type="curve" smooth="yes"/>
      <point x="701.1" y="917.5"/>
      <point x="844.9" y="739.2"/>
      <point x="844.9" y="455.4" type="curve" smooth="yes"/>
      <point x="844.9" y="169.1"/>
      <point x="697.0" y="18.700000000000003"/>
    </contour>
  </outline>
</glyph>
<glyph name="b" format="2">
  <advance width="1043.7"/>
  <unicode hex="0062"/>
  <note>
b
</note>
  <anchor x="486.4" y="-6.0" name="bottom"/>
  <anchor x="486.4" y="1514.0" name="top"/>
  <outline>
    <contour>
      <point x="558.3" y="-25.2" type="curve" smooth="yes"/>
      <point x="809.3" y="-25.2"/>
      <point x="967.1" y="168.7"/>
      <point x="967.1" y="455.4" type="curve" smooth="yes"/>
      <point x="967.1" y="744.5"/>
      <point x="808.8" y="961.4"/>
      <point x="558.6" y="961.4" type="curve" smooth="yes"/>
      <point x="364.1" y="961.4"/>
      <point x="224.2" y="829.9"/>
      <point x="170.1" y="630.3" type="curve"/>
      <point x="196.4" y="613.0" type="line"/>
      <point x="196.4" y="1514.0" type="line"/>
      <point x="134.2" y="1514.0" type="line"/>
      <point x="134.2" y="0.0" type="line"/>
      <point x="196.1" y="0.0" type="line"/>
      <point x="196.1" y="301.8" type="line"/>
      <point x="170.1" y="284.2" type="line"/>
      <point x="223.2" y="92.2"/>
      <point x="361.3" y="-25.2"/>
    </contour>
    <contour>
      <point x="557.1" y="18.700000000000003" type="curve" smooth="yes"/>
      <point x="347.7" y="18.700000000000003"/>
      <point x="199.8" y="169.4"/>
      <point x="199.8" y="455.4" type="curve" smooth="yes"/>
      <point x="199.8" y="739.8"/>
      <point x="343.6" y="917.8"/>
      <point x="557.4" y="917.8" type="curve" smooth="yes"/>
      <point x="766.4" y="917.8"/>
      <point x="904.9" y="755.0"/>
      <point x="904.9" y="465.4" type="curve" smooth="yes"/>
      <point x="904.9" y="181.0"/>
      <point x="772.6" y="18.700000000000003"/>
    </contour>
  </outline>
</glyph>
<glyph name="c" format="2">
  <advance width="803.0"/>
  <unicode hex="0063"/>
  <note>
c
</note>
  <anchor x="446.1" y="-14.0" name="bottom"/>
  <anchor x="480.1" y="942.5" name="top"/>
  <outline>
    <contour>
      <point x="497.4" y="-28.7" type="curve" smooth="yes"/>
      <point x="584.3" y="-28.7"/>
      <point x="669.7" y="-3.0999999999999996"/>
      <point x="738.6" y="46.7" type="curve"/>
      <point x="738.6" y="114.1" type="line"/>
      <point x="676.4" y="53.900000000000006"/>
      <point x="587.6" y="15.900000000000006"/>
      <point x="496.7" y="15.900000000000006" type="curve" smooth="yes"/>
      <point x="296.6" y="15.900000000000006"/>
      <point x="142.5" y="195.7"/>
      <point x="142.5" y="467.8" type="curve" smooth="yes"/>
      <point x="142.5" y="737.9"/>
      <point x="296.9" y="916.8"/>
      <point x="497.0" y="916.8" type="curve" smooth="yes"/>
      <point x="587.0" y="916.8"/>
      <point x="677.0" y="879.1"/>
      <point x="738.3" y="819.2" type="curve"/>
      <point x="738.3" y="886.0" type="line"/>
      <point x="669.1" y="935.1"/>
      <point x="583.1" y="961.4"/>
      <point x="497.1" y="961.4" type="curve" smooth="yes"/>
      <point x="288.4" y="961.4"/>
      <point x="77.3" y="801.7"/>
      <point x="77.3" y="467.5" type="curve" smooth="yes"/>
      <point x="77.3" y="131.0"/>
      <point x="288.1" y="-28.7"/>
    </contour>
  </outline>
</glyph>
<glyph name="d" format="2">
  <advance width="1044.4"/>
  <unicode hex="0064"/>
  <note>
d
</note>
  <anchor x="490.0" y="-6.0" name="bottom"/>
  <anchor x="873.2" y="1304.6" name="center"/>
  <anchor x="556.9" y="1514.0" name="top"/>
  <anchor x="1111.5" y="1514.0" name="topright"/>
  <outline>
    <contour>
      <point x="486.1" y="-32.9" type="curve" smooth="yes"/>
      <point x="682.8" y="-32.9"/>
      <point x="821.5" y="83.8"/>
      <point x="874.6" y="277.8" type="curve"/>
      <point x="848.3" y="295.8" type="line"/>
      <point x="848.3" y="-7.0" type="line"/>
      <point x="910.2" y="-7.0" type="line"/>
      <point x="910.2" y="1521.7" type="line"/>
      <point x="848.3" y="1521.7" type="line"/>
      <point x="848.3" y="611.3" type="line"/>
      <point x="874.3" y="628.3" type="line"/>
      <point x="820.2" y="831.2"/>
      <point x="680.6" y="964.4"/>
      <point x="485.8" y="964.4" type="curve" smooth="yes"/>
      <point x="235.9" y="964.4"/>
      <point x="77.3" y="745.7"/>
      <point x="77.3" y="453.2" type="curve" smooth="yes"/>
      <point x="77.3" y="162.5"/>
      <point x="235.1" y="-32.9"/>
    </contour>
    <contour>
      <point x="487.3" y="12.0" type="curve" smooth="yes"/>
      <point x="271.8" y="12.0"/>
      <point x="139.5" y="174.5"/>
      <point x="139.5" y="462.9" type="curve" smooth="yes"/>
      <point x="139.5" y="756.8"/>
      <point x="277.7" y="919.5"/>
      <point x="487.0" y="919.5" type="curve" smooth="yes"/>
      <point x="701.4" y="919.5"/>
      <point x="844.9" y="739.2"/>
      <point x="844.9" y="451.4" type="curve" smooth="yes"/>
      <point x="844.9" y="161.7"/>
      <point x="697.0" y="12.0"/>
    </contour>
  </outline>
</glyph>
<glyph name="e" format="2">
  <advance width="970.0"/>
  <unicode hex="0065"/>
  <note>
e
</note>
  <anchor x="490.4" y="-13.0" name="bottom"/>
  <anchor x="620.7" y="3.0" name="ogonek"/>
  <anchor x="490.4" y="942.5" name="top"/>
  <outline>
    <contour>
      <point x="490.6" y="-25.2" type="curve" smooth="yes"/>
      <point x="684.8" y="-25.2"/>
      <point x="828.3" y="90.3"/>
      <point x="882.4" y="279.7" type="curve"/>
      <point x="814.1" y="279.7" type="line"/>
      <point x="764.5" y="109.9"/>
      <point x="647.7" y="18.700000000000003"/>
      <point x="491.2" y="18.700000000000003" type="curve" smooth="yes"/>
      <point x="279.5" y="18.700000000000003"/>
      <point x="146.5" y="182.3"/>
      <point x="146.5" y="465.1" type="curve" smooth="yes"/>
      <point x="146.5" y="754.2"/>
      <point x="285.7" y="917.8"/>
      <point x="490.6" y="917.8" type="curve" smooth="yes"/>
      <point x="677.8" y="917.8"/>
      <point x="823.5" y="782.1"/>
      <point x="848.4" y="511.5" type="curve"/>
      <point x="901.9" y="511.5" type="line"/>
      <point x="882.4" y="793.3"/>
      <point x="716.4" y="961.4"/>
      <point x="490.6" y="961.4" type="curve" smooth="yes"/>
      <point x="235.2" y="961.4"/>
      <point x="77.3" y="740.7"/>
      <point x="77.3" y="455.4" type="curve" smooth="yes"/>
      <point x="77.3" y="165.8"/>
      <point x="241.7" y="-25.2"/>
    </contour>
    <contour>
      <point x="112.3" y="511.5" type="line"/>
      <point x="875.3" y="511.5" type="line"/>
      <point x="874.4" y="550.1" type="line"/>
      <point x="112.3" y="550.1" type="line"/>
    </contour>
  </outline>
</glyph>
<glyph name="f" format="2">
  <advance width="462.6"/>
  <unicode hex="0066"/>
  <note>
f
</note>
  <anchor x="231.3" y="-6.0" name="bottom"/>
  <anchor x="231.3" y="1514.0" name="top"/>
  <outline>
    <contour>
      <point x="199.8" y="0.0" type="line"/>
      <point x="261.7" y="0.0" type="line"/>
      <point x="261.7" y="1143.0" type="line" smooth="yes"/>
      <point x="261.7" y="1413.7"/>
      <point x="281.6" y="1486.4"/>
      <point x="368.2" y="1486.4" type="curve" smooth="yes"/>
      <point x="435.4" y="1479.4"/>
      <point x="453.0" y="1428.7"/>
      <point x="453.0" y="1382.4" type="curve" smooth="yes"/>
      <point x="453.0" y="1357.0"/>
      <point x="446.3" y="1323.8"/>
      <point x="438.9" y="1307.9" type="curve"/>
      <point x="494.1" y="1307.9" type="line"/>
      <point x="506.1" y="1341.8"/>
      <point x="511.20000000000005" y="1376.8"/>
      <point x="511.20000000000005" y="1400.9" type="curve" smooth="yes"/>
      <point x="511.20000000000005" y="1476.1"/>
      <point x="462.1" y="1531.3"/>
      <point x="360.9" y="1531.3" type="curve" smooth="yes"/>
      <point x="196.8" y="1531.3"/>
      <point x="199.8" y="1342.1"/>
      <point x="199.8" y="1142.7" type="curve" smooth="yes"/>
    </contour>
    <contour>
      <point x="54.6" y="892.9" type="line"/>
      <point x="409.4" y="892.9" type="line"/>
      <point x="409.4" y="934.8" type="line"/>
      <point x="54.6" y="934.8" type="line"/>
    </contour>
  </outline>
</glyph>
<glyph name="g" format="2">
  <advance width="1042.8"/>
  <unicode hex="0067"/>
  <note>
g
</note>
  <anchor x="513.9" y="-532.0" name="bottom"/>
  <anchor x="495.4" y="942.5" name="top"/>
  <outline>
    <contour>
      <point x="479.1" y="-557.3" type="curve" smooth="yes"/>
      <point x="793.2" y="-557.3"/>
      <point x="909.9" y="-327.3"/>
      <point x="909.9" y="60.900000000000006" type="curve" smooth="yes"/>
      <point x="909.9" y="935.4" type="line"/>
      <point x="843.0" y="935.4" type="line"/>
      <point x="843.0" y="639.2" type="line"/>
      <point x="858.8" y="662.9" type="line"/>
      <point x="799.1" y="844.7"/>
      <point x="666.9" y="961.4"/>
      <point x="483.5" y="961.4" type="curve" smooth="yes"/>
      <point x="235.8" y="961.4"/>
      <point x="78.0" y="744.2"/>
      <point x="78.0" y="455.4" type="curve" smooth="yes"/>
      <point x="78.0" y="168.7"/>
      <point x="234.3" y="-25.2"/>
      <point x="483.8" y="-25.2" type="curve" smooth="yes"/>
      <point x="675.8" y="-25.2"/>
      <point x="811.4" y="94.7"/>
      <point x="865.5" y="274.7" type="curve"/>
      <point x="852.3" y="297.7" type="line"/>
      <point x="844.0" y="32.800000000000004" type="line"/>
      <point x="844.0" y="-304.7"/>
      <point x="750.0" y="-513.7"/>
      <point x="464.5" y="-513.7" type="curve" smooth="yes"/>
      <point x="278.3" y="-513.7"/>
      <point x="168.2" y="-426.0"/>
      <point x="145.2" y="-319.8" type="curve"/>
      <point x="81.9" y="-319.8" type="line"/>
      <point x="129.6" y="-513.2"/>
      <point x="352.3" y="-557.3"/>
    </contour>
    <contour>
      <point x="485.0" y="18.700000000000003" type="curve" smooth="yes"/>
      <point x="269.6" y="18.700000000000003"/>
      <point x="140.2" y="181.1"/>
      <point x="140.2" y="465.4" type="curve" smooth="yes"/>
      <point x="140.2" y="756.0"/>
      <point x="278.9" y="917.8"/>
      <point x="484.7" y="917.8" type="curve" smooth="yes"/>
      <point x="698.4" y="917.8"/>
      <point x="839.6" y="738.4"/>
      <point x="839.6" y="455.4" type="curve" smooth="yes"/>
      <point x="839.6" y="168.0"/>
      <point x="691.2" y="18.700000000000003"/>
    </contour>
  </outline>
</glyph>
<glyph name="h" format="2">
  <advance width="970.2"/>
  <unicode hex="0068"/>
  <note>
h
</note>
  <anchor x="485.6" y="0.0" name="bottom"/>
  <anchor x="164.2" y="1302.5" name="center"/>
  <anchor x="485.6" y="1514.0" name="top"/>
  <outline>
    <contour>
      <point x="133.5" y="0.0" type="line"/>
      <point x="195.7" y="0.0" type="line"/>
      <point x="195.7" y="550.7" type="line" smooth="yes"/>
      <point x="195.7" y="768.7"/>
      <point x="309.5" y="917.5"/>
      <point x="512.6" y="917.5" type="curve" smooth="yes"/>
      <point x="725.5" y="917.5"/>
      <point x="800.3" y="782.9"/>
      <point x="800.3" y="551.3" type="curve" smooth="yes"/>
      <point x="800.3" y="0.0" type="line"/>
      <point x="862.5" y="0.0" type="line"/>
      <point x="862.5" y="551.0" type="line" smooth="yes"/>
      <point x="862.5" y="797.7"/>
      <point x="779.5" y="961.4"/>
      <point x="523.8" y="961.4" type="curve" smooth="yes"/>
      <point x="329.4" y="961.4"/>
      <point x="203.5" y="841.1"/>
      <point x="181.6" y="644.6" type="curve"/>
      <point x="195.7" y="653.2" type="line"/>
      <point x="195.7" y="1514.0" type="line"/>
      <point x="133.5" y="1514.0" type="line"/>
    </contour>
  </outline>
</glyph>
<glyph name="k" format="2">
  <advance width="890.1"/>
  <unicode hex="006B"/>
  <note>
k
</note>
  <guideline x="589.4" y="226.0" angle="315.2524"/>
  <anchor x="421.0" y="0.0" name="bottom"/>
  <anchor x="436.0" y="1514.0" name="top"/>
  <outline>
    <contour>
      <point x="134.2" y="0.0" type="line"/>
      <point x="196.4" y="0.0" type="line"/>
      <point x="196.4" y="1514.0" type="line"/>
      <point x="134.2" y="1514.0" type="line"/>
    </contour>
    <contour>
      <point x="748.8" y="0.0" type="line"/>
      <point x="845.5" y="0.0" type="line"/>
      <point x="290.2" y="566.0" type="line"/>
      <point x="239.1" y="518.9" type="line"/>
    </contour>
    <contour>
      <point x="184.9" y="416.8" type="line"/>
      <point x="728.0" y="935.4" type="line"/>
      <point x="664.5" y="935.4" type="line"/>
      <point x="151.6" y="448.8" type="line"/>
    </contour>
  </outline>
</glyph>
<glyph name="l" format="2">
  <advance width="329.7"/>
  <unicode hex="006C"/>
  <note>
l
</note>
  <anchor x="118.5" y="0.0" name="bottom"/>
  <anchor x="166.8" y="787.3" name="center"/>
  <anchor x="358.6" y="788.7" name="dot"/>
  <anchor x="200.3" y="1514.0" name="top"/>
  <anchor x="314.8" y="1490.1" name="topright"/>
  <outline>
    <contour>
      <point x="134.2" y="0.0" type="line"/>
      <point x="195.5" y="0.0" type="line"/>
      <point x="195.5" y="1514.0" type="line"/>
      <point x="134.2" y="1514.0" type="line"/>
    </contour>
  </outline>
</glyph>
<glyph name="m" format="2">
  <advance width="1665.8"/>
  <unicode hex="006D"/>
  <note>
m
</note>
  <anchor x="825.9" y="0.0" name="bottom"/>
  <anchor x="832.9" y="942.5" name="top"/>
  <outline>
    <contour>
      <point x="123.3" y="0.0" type="line"/>
      <point x="185.5" y="0.0" type="line"/>
      <point x="185.5" y="550.7" type="line" smooth="yes"/>
      <point x="185.5" y="769.6"/>
      <point x="304.1" y="917.8"/>
      <point x="540.3" y="917.8" type="curve" smooth="yes"/>
      <point x="737.2" y="917.8"/>
      <point x="809.5" y="817.7"/>
      <point x="809.5" y="608.6" type="curve" smooth="yes"/>
      <point x="809.5" y="0.0" type="line"/>
      <point x="871.7" y="0.0" type="line"/>
      <point x="871.7" y="550.7" type="line" smooth="yes"/>
      <point x="871.7" y="769.9"/>
      <point x="989.1" y="916.9"/>
      <point x="1225.3" y="916.9" type="curve" smooth="yes"/>
      <point x="1422.2" y="916.9"/>
      <point x="1493.9" y="817.4"/>
      <point x="1493.9" y="608.6" type="curve" smooth="yes"/>
      <point x="1493.9" y="1.0" type="line"/>
      <point x="1556.1" y="1.0" type="line"/>
      <point x="1556.1" y="628.6" type="line" smooth="yes"/>
      <point x="1556.1" y="827.1"/>
      <point x="1474.6" y="961.4"/>
      <point x="1237.4" y="961.4" type="curve" smooth="yes"/>
      <point x="1012.8" y="961.4"/>
      <point x="876.0" y="843.3"/>
      <point x="852.5" y="654.8" type="curve"/>
      <point x="868.4" y="653.5" type="line"/>
      <point x="861.4" y="840.0"/>
      <point x="778.4" y="961.4"/>
      <point x="552.4" y="961.4" type="curve" smooth="yes"/>
      <point x="336.9" y="961.4"/>
      <point x="204.4" y="851.1"/>
      <point x="174.4" y="674.2" type="curve"/>
      <point x="185.5" y="649.2" type="line"/>
      <point x="185.5" y="935.4" type="line"/>
      <point x="123.3" y="935.4" type="line"/>
    </contour>
  </outline>
</glyph>
<glyph name="n" format="2">
  <advance width="960.3"/>
  <unicode hex="006E"/>
  <note>
n
</note>
  <anchor x="480.5" y="0.0" name="bottom"/>
  <anchor x="480.5" y="942.5" name="top"/>
  <outline>
    <contour>
      <point x="123.0" y="0.0" type="line"/>
      <point x="185.5" y="0.0" type="line"/>
      <point x="185.5" y="550.7" type="line" smooth="yes"/>
      <point x="185.5" y="768.7"/>
      <point x="299.3" y="916.9"/>
      <point x="502.7" y="916.9" type="curve" smooth="yes"/>
      <point x="715.3" y="916.9"/>
      <point x="790.1" y="782.9"/>
      <point x="790.1" y="551.3" type="curve" smooth="yes"/>
      <point x="790.1" y="0.0" type="line"/>
      <point x="852.6" y="0.0" type="line"/>
      <point x="852.6" y="551.3" type="line" smooth="yes"/>
      <point x="852.6" y="797.7"/>
      <point x="769.3" y="961.4"/>
      <point x="513.6" y="961.4" type="curve" smooth="yes"/>
      <point x="316.2" y="961.4"/>
      <point x="188.8" y="837.2"/>
      <point x="171.4" y="644.9" type="curve"/>
      <point x="185.5" y="652.6" type="line"/>
      <point x="185.5" y="935.4" type="line"/>
      <point x="123.0" y="935.4" type="line"/>
    </contour>
  </outline>
</glyph>
<glyph name="o" format="2">
  <advance width="992.5"/>
  <unicode hex="006F"/>
  <note>
o
</note>
  <anchor x="495.9" y="-3.200000000000003" name="bottom"/>
  <anchor x="496.6" y="468.4" name="center"/>
  <anchor x="618.6" y="0.0" name="ogonek"/>
  <anchor x="496.6" y="942.5" name="top"/>
  <anchor x="961.0" y="936.5" name="topright"/>
  <outline>
    <contour>
      <point x="495.6" y="-25.2" type="curve" smooth="yes"/>
      <point x="748.2" y="-25.2"/>
      <point x="915.9" y="169.9"/>
      <point x="915.9" y="455.4" type="curve" smooth="yes"/>
      <point x="915.9" y="742.0"/>
      <point x="746.4" y="961.4"/>
      <point x="495.6" y="961.4" type="curve" smooth="yes"/>
      <point x="245.1" y="961.4"/>
      <point x="77.3" y="742.3"/>
      <point x="77.3" y="455.4" type="curve" smooth="yes"/>
      <point x="77.3" y="169.6"/>
      <point x="243.3" y="-25.2"/>
    </contour>
    <contour>
      <point x="495.6" y="19.0" type="curve" smooth="yes"/>
      <point x="291.8" y="19.0"/>
      <point x="150.5" y="174.1"/>
      <point x="150.5" y="463.7" type="curve" smooth="yes"/>
      <point x="150.5" y="743.3"/>
      <point x="292.6" y="917.5"/>
      <point x="495.6" y="917.5" type="curve" smooth="yes"/>
      <point x="698.3" y="917.5"/>
      <point x="840.0" y="736.2"/>
      <point x="840.0" y="455.4" type="curve" smooth="yes"/>
      <point x="840.0" y="166.7"/>
      <point x="700.3" y="19.0"/>
    </contour>
  </outline>
</glyph>
<glyph name="p" format="2">
  <advance width="1037.7"/>
  <unicode hex="0070"/>
  <note>
p
</note>
  <anchor x="517.1" y="-6.0" name="bottom"/>
  <anchor x="517.1" y="936.5" name="top"/>
  <outline>
    <contour>
      <point x="134.2" y="-577.8" type="line"/>
      <point x="196.4" y="-577.8" type="line"/>
      <point x="196.4" y="324.1" type="line"/>
      <point x="170.4" y="306.8" type="line"/>
      <point x="223.9" y="107.2"/>
      <point x="362.6" y="-24.3"/>
      <point x="555.6" y="-24.3" type="curve" smooth="yes"/>
      <point x="804.3" y="-24.3"/>
      <point x="961.1" y="192.9"/>
      <point x="961.1" y="481.7" type="curve" smooth="yes"/>
      <point x="961.1" y="768.1"/>
      <point x="804.8" y="961.4"/>
      <point x="555.3" y="961.4" type="curve" smooth="yes"/>
      <point x="360.1" y="961.4"/>
      <point x="222.9" y="844.9"/>
      <point x="170.4" y="653.2" type="curve"/>
      <point x="196.1" y="635.6" type="line"/>
      <point x="196.1" y="935.4" type="line"/>
      <point x="134.2" y="935.4" type="line"/>
    </contour>
    <contour>
      <point x="554.4" y="19.6" type="curve" smooth="yes"/>
      <point x="342.4" y="19.6"/>
      <point x="199.8" y="197.6"/>
      <point x="199.8" y="481.7" type="curve" smooth="yes"/>
      <point x="199.8" y="768.0"/>
      <point x="346.5" y="917.8"/>
      <point x="554.1" y="917.8" type="curve" smooth="yes"/>
      <point x="767.8" y="917.8"/>
      <point x="898.9" y="756.7"/>
      <point x="898.9" y="471.7" type="curve" smooth="yes"/>
      <point x="898.9" y="181.8"/>
      <point x="761.9" y="19.6"/>
    </contour>
  </outline>
</glyph>
<glyph name="q" format="2">
  <advance width="1027.5"/>
  <unicode hex="0071"/>
  <note>
q
</note>
  <anchor x="521.3" y="-6.0" name="bottom"/>
  <anchor x="521.3" y="936.5" name="top"/>
  <outline>
    <contour>
      <point x="842.3" y="-577.8" type="line"/>
      <point x="904.2" y="-577.8" type="line"/>
      <point x="904.2" y="936.8" type="line"/>
      <point x="842.3" y="936.8" type="line"/>
      <point x="842.3" y="635.6" type="line"/>
      <point x="868.3" y="652.9" type="line"/>
      <point x="815.8" y="844.9"/>
      <point x="678.6" y="961.4"/>
      <point x="483.1" y="961.4" type="curve" smooth="yes"/>
      <point x="233.6" y="961.4"/>
      <point x="77.3" y="768.4"/>
      <point x="77.3" y="481.7" type="curve" smooth="yes"/>
      <point x="77.3" y="192.9"/>
      <point x="234.4" y="-24.3"/>
      <point x="482.8" y="-24.3" type="curve" smooth="yes"/>
      <point x="676.1" y="-24.3"/>
      <point x="814.5" y="106.9"/>
      <point x="868.0" y="306.5" type="curve"/>
      <point x="842.3" y="324.1" type="line"/>
    </contour>
    <contour>
      <point x="484.0" y="19.6" type="curve" smooth="yes"/>
      <point x="276.8" y="19.6"/>
      <point x="139.5" y="181.8"/>
      <point x="139.5" y="471.7" type="curve" smooth="yes"/>
      <point x="139.5" y="756.4"/>
      <point x="270.6" y="917.8"/>
      <point x="484.3" y="917.8" type="curve" smooth="yes"/>
      <point x="691.9" y="917.8"/>
      <point x="838.9" y="768.0"/>
      <point x="838.9" y="481.7" type="curve" smooth="yes"/>
      <point x="838.9" y="197.6"/>
      <point x="696.3" y="19.6"/>
    </contour>
  </outline>
</glyph>
<glyph name="r" format="2">
  <advance width="758.9"/>
  <unicode hex="0072"/>
  <note>
r
</note>
  <anchor x="114.9" y="0.0" name="bottom"/>
  <anchor x="448.9" y="942.5" name="top"/>
  <outline>
    <contour>
      <point x="123.3" y="0.0" type="line"/>
      <point x="185.5" y="0.0" type="line"/>
      <point x="185.5" y="575.5" type="line" smooth="yes"/>
      <point x="185.5" y="783.0"/>
      <point x="299.2" y="917.5"/>
      <point x="462.3" y="917.5" type="curve" smooth="yes"/>
      <point x="563.6" y="917.5"/>
      <point x="648.0" y="870.2"/>
      <point x="648.0" y="787.7" type="curve" smooth="yes"/>
      <point x="648.0" y="755.5"/>
      <point x="634.6" y="712.4"/>
      <point x="624.6" y="694.1" type="curve"/>
      <point x="677.7" y="676.0" type="line"/>
      <point x="686.2" y="695.9"/>
      <point x="703.0" y="736.4"/>
      <point x="703.0" y="785.5" type="curve" smooth="yes"/>
      <point x="703.0" y="899.1"/>
      <point x="595.9" y="961.4"/>
      <point x="476.6" y="961.4" type="curve" smooth="yes"/>
      <point x="313.5" y="961.4"/>
      <point x="197.2" y="844.0"/>
      <point x="171.5" y="662.3" type="curve"/>
      <point x="185.5" y="650.1" type="line"/>
      <point x="185.5" y="935.4" type="line"/>
      <point x="123.3" y="935.4" type="line"/>
    </contour>
  </outline>
</glyph>
<glyph name="s" format="2">
  <advance width="758.2"/>
  <unicode hex="0073"/>
  <note>
s
</note>
  <anchor x="348.3" y="-6.0" name="bottom"/>
  <anchor x="366.3" y="942.5" name="top"/>
  <outline>
    <contour>
      <point x="354.5" y="-24.3" type="curve" smooth="yes"/>
      <point x="561.5" y="-24.3"/>
      <point x="692.9" y="87.2"/>
      <point x="692.9" y="252.9" type="curve" smooth="yes"/>
      <point x="692.9" y="400.5"/>
      <point x="600.6" y="472.0"/>
      <point x="367.3" y="521.1" type="curve" smooth="yes"/>
      <point x="185.3" y="559.3"/>
      <point x="145.0" y="615.7"/>
      <point x="145.0" y="731.6" type="curve" smooth="yes"/>
      <point x="145.0" y="851.7"/>
      <point x="244.0" y="918.1"/>
      <point x="383.0" y="916.0" type="curve" smooth="yes"/>
      <point x="502.9" y="913.9"/>
      <point x="569.7" y="872.9"/>
      <point x="637.4" y="789.5" type="curve"/>
      <point x="637.4" y="867.2" type="line"/>
      <point x="568.4" y="933.5"/>
      <point x="496.6" y="961.4"/>
      <point x="383.1" y="961.4" type="curve" smooth="yes"/>
      <point x="193.0" y="961.4"/>
      <point x="84.9" y="872.5"/>
      <point x="84.9" y="715.5" type="curve" smooth="yes"/>
      <point x="84.9" y="575.0"/>
      <point x="159.9" y="504.3"/>
      <point x="357.4" y="464.5" type="curve" smooth="yes"/>
      <point x="566.2" y="422.5"/>
      <point x="627.8" y="365.1"/>
      <point x="627.8" y="240.5" type="curve" smooth="yes"/>
      <point x="627.8" y="104.9"/>
      <point x="518.6" y="24.1"/>
      <point x="353.5" y="24.1" type="curve" smooth="yes"/>
      <point x="224.0" y="24.1"/>
      <point x="131.8" y="81.2"/>
      <point x="72.5" y="168.7" type="curve"/>
      <point x="72.2" y="82.4" type="line"/>
      <point x="137.0" y="13.2"/>
      <point x="230.1" y="-24.3"/>
    </contour>
  </outline>
</glyph>
<glyph name="t" format="2">
  <advance width="533.8"/>
  <unicode hex="0074"/>
  <note>
t
</note>
  <anchor x="286.4" y="-3.0" name="bottom"/>
  <anchor x="231.4" y="584.4" name="center"/>
  <anchor x="274.4" y="936.5" name="top"/>
  <anchor x="495.70000000000005" y="1315.5" name="topright"/>
  <outline>
    <contour>
      <point x="317.0" y="-26.3" type="curve" smooth="yes"/>
      <point x="364.9" y="-26.3"/>
      <point x="438.5" y="-14.0"/>
      <point x="479.3" y="3.8999999999999995" type="curve"/>
      <point x="479.3" y="58.5" type="line"/>
      <point x="446.5" y="36.800000000000004"/>
      <point x="384.6" y="19.700000000000003"/>
      <point x="337.4" y="19.700000000000003" type="curve" smooth="yes"/>
      <point x="257.9" y="19.700000000000003"/>
      <point x="261.7" y="71.60000000000001"/>
      <point x="261.7" y="188.3" type="curve" smooth="yes"/>
      <point x="261.7" y="889.9" type="line"/>
      <point x="439.5" y="889.9" type="line"/>
      <point x="439.5" y="934.8" type="line"/>
      <point x="261.7" y="934.8" type="line"/>
      <point x="261.7" y="1212.9" type="line"/>
      <point x="222.8" y="1212.9" type="line"/>
      <point x="223.4" y="949.1"/>
      <point x="224.4" y="934.5"/>
      <point x="55.3" y="934.8" type="curve"/>
      <point x="55.3" y="889.9" type="line"/>
      <point x="199.2" y="889.9" type="line"/>
      <point x="199.2" y="202.3" type="line" smooth="yes"/>
      <point x="199.2" y="55.2"/>
      <point x="202.8" y="-26.3"/>
    </contour>
  </outline>
</glyph>
<glyph name="u" format="2">
  <advance width="986.5"/>
  <unicode hex="0075"/>
  <note>
u
</note>
  <anchor x="481.9" y="-6.0" name="bottom"/>
  <anchor x="832.1" y="0.0" name="ogonek"/>
  <anchor x="493.9" y="936.5" name="top"/>
  <anchor x="1077.3" y="936.5" name="topright"/>
  <outline>
    <contour>
      <point x="431.4" y="-26.6" type="curve" smooth="yes"/>
      <point x="687.9" y="-26.6"/>
      <point x="790.7" y="146.6"/>
      <point x="816.9" y="362.0" type="curve"/>
      <point x="801.3" y="327.1" type="line"/>
      <point x="801.3" y="0.0" type="line"/>
      <point x="863.8" y="0.0" type="line"/>
      <point x="863.8" y="935.4" type="line"/>
      <point x="801.3" y="935.4" type="line"/>
      <point x="801.3" y="500.2" type="line" smooth="yes"/>
      <point x="801.3" y="208.3"/>
      <point x="694.4" y="17.900000000000006"/>
      <point x="442.0" y="17.900000000000006" type="curve" smooth="yes"/>
      <point x="248.7" y="17.900000000000006"/>
      <point x="171.9" y="127.6"/>
      <point x="171.9" y="327.7" type="curve" smooth="yes"/>
      <point x="171.9" y="935.4" type="line"/>
      <point x="109.4" y="935.4" type="line"/>
      <point x="109.4" y="305.3" type="line" smooth="yes"/>
      <point x="109.4" y="110.1"/>
      <point x="203.6" y="-26.6"/>
    </contour>
  </outline>
</glyph>
<glyph name="v" format="2">
  <advance width="984.7"/>
  <unicode hex="0076"/>
  <note>
v
</note>
  <guideline x="756.1" y="525.0" angle="246.2505"/>
  <guideline x="141.1" y="689.0" angle="114.2118"/>
  <guideline x="744.1" y="524.0" angle="246.4287"/>
  <anchor x="492.7" y="-6.0" name="bottom"/>
  <anchor x="492.7" y="936.5" name="top"/>
  <outline>
    <contour>
      <point x="494.7" y="-39.6" type="line"/>
      <point x="501.1" y="-39.6" type="line"/>
      <point x="933.8" y="935.4" type="line"/>
      <point x="902.0" y="935.4" type="line"/>
      <point x="499.6" y="17.300000000000004" type="line"/>
      <point x="528.3" y="55.400000000000006" type="line"/>
      <point x="132.1" y="935.4" type="line"/>
      <point x="50.900000000000006" y="935.4" type="line"/>
    </contour>
  </outline>
</glyph>
<glyph name="w" format="2">
  <advance width="1464.9"/>
  <unicode hex="0077"/>
  <note>
w
</note>
  <anchor x="732.8" y="0.0" name="bottom"/>
  <anchor x="732.8" y="936.5" name="top"/>
  <outline>
    <contour>
      <point x="986.5" y="-22.6" type="line"/>
      <point x="992.9" y="-22.6" type="line"/>
      <point x="1413.7" y="935.1" type="line"/>
      <point x="1382.4" y="935.1" type="line"/>
      <point x="986.6" y="25.300000000000004" type="line"/>
      <point x="1025.5" y="61.6" type="line"/>
      <point x="636.9" y="935.4" type="line"/>
      <point x="556.6" y="935.1" type="line"/>
    </contour>
    <contour>
      <point x="481.4" y="-22.6" type="line"/>
      <point x="487.8" y="-22.6" type="line"/>
      <point x="749.0" y="568.1" type="line"/>
      <point x="734.0" y="603.3" type="line"/>
      <point x="482.1" y="25.300000000000004" type="line"/>
      <point x="520.4" y="61.6" type="line"/>
      <point x="131.5" y="935.4" type="line"/>
      <point x="51.2" y="935.1" type="line"/>
    </contour>
    <contour>
      <point x="757.5" y="568.1" type="line"/>
      <point x="918.3" y="935.1" type="line"/>
      <point x="887.0" y="935.1" type="line"/>
      <point x="742.8" y="603.3" type="line"/>
    </contour>
  </outline>
</glyph>
<glyph name="x" format="2">
  <advance width="861.9"/>
  <unicode hex="0078"/>
  <note>
x
</note>
  <anchor x="431.1" y="-6.0" name="bottom"/>
  <anchor x="431.1" y="936.5" name="top"/>
  <outline>
    <contour>
      <point x="712.2" y="0.0" type="line"/>
      <point x="787.6" y="0.0" type="line"/>
      <point x="178.7" y="935.4" type="line"/>
      <point x="103.3" y="935.4" type="line"/>
    </contour>
    <contour>
      <point x="49.400000000000006" y="0.0" type="line"/>
      <point x="94.9" y="0.0" type="line"/>
      <point x="442.8" y="466.7" type="line"/>
      <point x="411.1" y="491.3" type="line"/>
    </contour>
    <contour>
      <point x="456.1" y="474.5" type="line"/>
      <point x="794.8" y="935.4" type="line"/>
      <point x="745.6" y="935.4" type="line"/>
      <point x="433.9" y="508.5" type="line"/>
    </contour>
  </outline>
</glyph>
<glyph name="y" format="2">
  <advance width="946.3"/>
  <unicode hex="0079"/>
  <note>
y
</note>
  <guideline x="696.1" y="419.0" angle="69.7563"/>
  <anchor x="669.5" y="0.0" name="bottom"/>
  <anchor x="473.5" y="936.5" name="top"/>
  <outline>
    <contour>
      <point x="249.5" y="-549.8" type="curve" smooth="yes"/>
      <point x="323.6" y="-549.8"/>
      <point x="354.7" y="-493.6"/>
      <point x="399.3" y="-375.3" type="curve" smooth="yes"/>
      <point x="559.1" y="68.19999999999999"/>
      <point x="545.1" y="29.899999999999977"/>
      <point x="586.5" y="142.0" type="curve"/>
      <point x="893.0" y="935.1" type="line"/>
      <point x="860.5" y="935.1" type="line"/>
      <point x="515.4" y="28.5" type="line"/>
      <point x="532.9" y="41.10000000000001" type="line"/>
      <point x="132.1" y="935.4" type="line"/>
      <point x="51.2" y="935.1" type="line"/>
      <point x="496.7" y="-53.99999999999999" type="line"/>
      <point x="497.5" y="-15.899999999999991" type="line"/>
      <point x="392.9" y="-308.0" type="line" smooth="yes"/>
      <point x="343.7" y="-444.6"/>
      <point x="323.7" y="-513.9"/>
      <point x="254.8" y="-513.9" type="curve" smooth="yes"/>
      <point x="216.0" y="-513.9"/>
      <point x="182.9" y="-487.8"/>
      <point x="180.4" y="-437.6" type="curve"/>
      <point x="128.5" y="-437.6" type="line"/>
      <point x="136.0" y="-510.0"/>
      <point x="191.7" y="-549.8"/>
    </contour>
  </outline>
</glyph>
<glyph name="z" format="2">
  <advance width="783.4"/>
  <unicode hex="007A"/>
  <note>
z
</note>
  <anchor x="391.7" y="0.0" name="bottom"/>
  <anchor x="391.7" y="468.4" name="center"/>
  <anchor x="391.7" y="936.5" name="top"/>
  <outline>
    <contour>
      <point x="58.900000000000006" y="0.0" type="line"/>
      <point x="713.7" y="0.0" type="line"/>
      <point x="713.7" y="47.6" type="line"/>
      <point x="128.7" y="47.6" type="line"/>
      <point x="149.6" y="18.2" type="line"/>
      <point x="721.8" y="935.4" type="line"/>
      <point x="78.9" y="935.4" type="line"/>
      <point x="78.9" y="887.8" type="line"/>
      <point x="653.3" y="887.8" type="line"/>
      <point x="630.1" y="913.8" type="line"/>
    </contour>
  </outline>
</glyph>
<glyph name="braceleft" format="2">
  <advance width="604.7"/>
  <unicode hex="007B"/>
  <note>
braceleft
</note>
  <outline>
    <contour>
      <point x="524.8" y="-397.5" type="curve"/>
      <point x="524.8" y="-334.9" type="line"/>
      <point x="332.8" y="-335.2"/>
      <point x="247.60000000000002" y="-216.2"/>
      <point x="247.60000000000002" y="15.5" type="curve" smooth="yes"/>
      <point x="247.60000000000002" y="333.9" type="line" smooth="yes"/>
      <point x="247.60000000000002" y="399.1"/>
      <point x="198.10000000000002" y="446.7"/>
      <point x="152.7" y="480.7" type="curve"/>
      <point x="198.10000000000002" y="516.7"/>
      <point x="247.60000000000002" y="562.3"/>
      <point x="247.60000000000002" y="626.9" type="curve" smooth="yes"/>
      <point x="247.60000000000002" y="1048.4" type="line" smooth="yes"/>
      <point x="247.60000000000002" y="1274.4"/>
      <point x="337.6" y="1399.1"/>
      <point x="524.8" y="1398.8" type="curve"/>
      <point x="524.8" y="1461.4" type="line"/>
      <point x="313.9" y="1464.7"/>
      <point x="192.3" y="1325.3"/>
      <point x="192.3" y="1117.8" type="curve" smooth="yes"/>
      <point x="192.3" y="626.9" type="line" smooth="yes"/>
      <point x="192.3" y="563.2"/>
      <point x="142.8" y="522.4"/>
      <point x="85.4" y="480.4" type="curve"/>
      <point x="141.3" y="440.8"/>
      <point x="192.3" y="397.0"/>
      <point x="192.3" y="333.9" type="curve" smooth="yes"/>
      <point x="192.3" y="-53.9" type="line" smooth="yes"/>
      <point x="192.3" y="-261.7"/>
      <point x="312.2" y="-400.5"/>
    </contour>
  </outline>
</glyph>
<glyph name="bar" format="2">
  <advance width="477.8"/>
  <unicode hex="007C"/>
  <note>
bar
</note>
  <outline>
    <contour>
      <point x="204.4" y="-300.0" type="line"/>
      <point x="273.4" y="-300.0" type="line"/>
      <point x="273.4" y="1664.0" type="line"/>
      <point x="204.4" y="1664.0" type="line"/>
    </contour>
  </outline>
</glyph>
<glyph name="braceright" format="2">
  <advance width="604.7"/>
  <unicode hex="007D"/>
  <note>
braceright
</note>
  <outline>
    <contour>
      <point x="79.9" y="-397.5" type="line"/>
      <point x="292.5" y="-400.5"/>
      <point x="412.4" y="-261.7"/>
      <point x="412.4" y="-53.9" type="curve" smooth="yes"/>
      <point x="412.4" y="333.9" type="line" smooth="yes"/>
      <point x="412.4" y="397.0"/>
      <point x="463.4" y="440.8"/>
      <point x="519.3" y="480.4" type="curve"/>
      <point x="461.9" y="522.4"/>
      <point x="412.4" y="563.2"/>
      <point x="412.4" y="626.9" type="curve" smooth="yes"/>
      <point x="412.4" y="1117.8" type="line" smooth="yes"/>
      <point x="412.4" y="1325.3"/>
      <point x="290.8" y="1464.7"/>
      <point x="79.9" y="1461.4" type="curve"/>
      <point x="79.9" y="1398.8" type="line"/>
      <point x="267.1" y="1399.1"/>
      <point x="357.1" y="1274.4"/>
      <point x="357.1" y="1048.4" type="curve" smooth="yes"/>
      <point x="357.1" y="626.9" type="line" smooth="yes"/>
      <point x="357.1" y="562.3"/>
      <point x="406.6" y="516.7"/>
      <point x="452.0" y="480.7" type="curve"/>
      <point x="406.6" y="446.7"/>
      <point x="357.1" y="399.1"/>
      <point x="357.1" y="333.9" type="curve" smooth="yes"/>
      <point x="357.1" y="15.5" type="line" smooth="yes"/>
      <point x="357.1" y="-216.2"/>
      <point x="271.9" y="-335.2"/>
      <point x="79.9" y="-334.9" type="curve"/>
    </contour>
  </outline>
</glyph>
<glyph name="asciitilde" format="2">
  <advance width="1086.0"/>
  <unicode hex="007E"/>
  <note>
asciitilde
</note>
  <outline>
    <contour>
      <point x="706.1" y="640.7" type="curve" smooth="yes"/>
      <point x="810.5" y="640.7"/>
      <point x="878.7" y="686.0"/>
      <point x="951.5" y="790.6" type="curve"/>
      <point x="923.4" y="816.5" type="line"/>
      <point x="880.5" y="753.9"/>
      <point x="783.9" y="700.3"/>
      <point x="700.4" y="700.3" type="curve" smooth="yes"/>
      <point x="638.4" y="700.3"/>
      <point x="599.1" y="730.4"/>
      <point x="563.7" y="757.1" type="curve" smooth="yes"/>
      <point x="512.4" y="794.4"/>
      <point x="463.7" y="828.4"/>
      <point x="373.5" y="828.4" type="curve" smooth="yes"/>
      <point x="267.2" y="828.4"/>
      <point x="195.4" y="780.6"/>
      <point x="134.5" y="676.0" type="curve"/>
      <point x="164.9" y="652.0" type="line"/>
      <point x="206.9" y="713.4"/>
      <point x="290.7" y="766.5"/>
      <point x="376.2" y="766.5" type="curve" smooth="yes"/>
      <point x="447.2" y="766.5"/>
      <point x="488.8" y="729.0"/>
      <point x="531.6" y="699.6" type="curve" smooth="yes"/>
      <point x="584.7" y="664.0"/>
      <point x="630.6" y="640.7"/>
    </contour>
  </outline>
</glyph>
<glyph name=".notdef" format="2">
  <advance width="1260.9"/>
  <unicode hex="007F"/>
  <note>
.notdef
</note>
  <outline>
    <contour>
      <point x="126.1" y="-354.0" type="line"/>
      <point x="1134.8" y="-354.0" type="line"/>
      <point x="1134.8" y="1410.0" type="line"/>
      <point x="126.1" y="1410.0" type="line"/>
    </contour>
    <contour>
      <point x="239.0" y="-242.0" type="line"/>
      <point x="239.0" y="1298.0" type="line"/>
      <point x="1022.2" y="1298.0" type="line"/>
      <point x="1022.2" y="-242.0" type="line"/>
    </contour>
  </outline>
</glyph>
<glyph name="Euro" format="2">
  <advance width="1464.2"/>
  <unicode hex="0080"/>
  <note>
Euro
</note>
  <outline>
    <contour>
      <point x="867.5" y="-7.800000000000001" type="curve" smooth="yes"/>
      <point x="1079.5" y="-7.800000000000001"/>
      <point x="1218.0" y="97.4"/>
      <point x="1323.6" y="305.9" type="curve"/>
      <point x="1256.3" y="305.9" type="line"/>
      <point x="1166.7" y="113.4"/>
      <point x="1026.8" y="37.2"/>
      <point x="873.5" y="37.2" type="curve" smooth="yes"/>
      <point x="575.7" y="37.2"/>
      <point x="366.0" y="320.5"/>
      <point x="366.0" y="717.1" type="curve" smooth="yes"/>
      <point x="366.0" y="1118.1"/>
      <point x="578.6" y="1395.0"/>
      <point x="868.1" y="1395.0" type="curve" smooth="yes"/>
      <point x="1020.5" y="1395.0"/>
      <point x="1178.0" y="1316.0"/>
      <point x="1258.0" y="1130.7" type="curve"/>
      <point x="1320.4" y="1130.7" type="line"/>
      <point x="1229.0" y="1341.3"/>
      <point x="1071.4" y="1440.0"/>
      <point x="868.5" y="1440.0" type="curve" smooth="yes"/>
      <point x="524.1" y="1440.0"/>
      <point x="292.6" y="1153.1"/>
      <point x="292.9" y="714.4" type="curve" smooth="yes"/>
      <point x="293.2" y="262.4"/>
      <point x="528.6" y="-7.800000000000001"/>
    </contour>
    <contour>
      <point x="132.6" y="530.0" type="line"/>
      <point x="926.4" y="530.0" type="line"/>
      <point x="935.7" y="571.3" type="line"/>
      <point x="141.9" y="571.3" type="line"/>
    </contour>
    <contour>
      <point x="180.6" y="829.0" type="line"/>
      <point x="974.4" y="829.0" type="line"/>
      <point x="984.6" y="870.3" type="line"/>
      <point x="190.8" y="870.3" type="line"/>
    </contour>
  </outline>
</glyph>
<glyph name="sterling" format="2">
  <advance width="1169.9"/>
  <unicode hex="00A3"/>
  <note>
sterling
</note>
  <outline>
    <contour>
      <point x="313.5" y="40.6" type="curve" smooth="yes"/>
      <point x="459.7" y="40.6"/>
      <point x="679.0" y="219.0"/>
      <point x="679.0" y="448.8" type="curve" smooth="yes"/>
      <point x="679.0" y="679.1"/>
      <point x="572.8" y="742.8"/>
      <point x="454.2" y="829.7" type="curve" smooth="yes"/>
      <point x="352.5" y="903.6"/>
      <point x="268.7" y="1013.4"/>
      <point x="268.7" y="1161.0" type="curve" smooth="yes"/>
      <point x="268.7" y="1327.2"/>
      <point x="386.8" y="1420.9"/>
      <point x="574.7" y="1420.9" type="curve" smooth="yes"/>
      <point x="756.4" y="1420.9"/>
      <point x="924.5" y="1310.8"/>
      <point x="939.3" y="1150.8" type="curve"/>
      <point x="995.0" y="1150.8" type="line"/>
      <point x="963.0" y="1347.4"/>
      <point x="801.4" y="1461.6"/>
      <point x="582.3" y="1461.6" type="curve" smooth="yes"/>
      <point x="329.9" y="1461.6"/>
      <point x="198.9" y="1332.3"/>
      <point x="198.9" y="1142.1" type="curve" smooth="yes"/>
      <point x="198.9" y="931.1"/>
      <point x="327.3" y="833.8"/>
      <point x="446.7" y="746.3" type="curve" smooth="yes"/>
      <point x="543.7" y="675.7"/>
      <point x="603.9" y="640.0"/>
      <point x="603.9" y="421.3" type="curve" smooth="yes"/>
      <point x="603.9" y="236.6"/>
      <point x="425.0" y="54.1"/>
      <point x="158.0" y="51.400000000000006" type="curve"/>
      <point x="216.8" y="30.7"/>
      <point x="237.3" y="40.6"/>
    </contour>
    <contour>
      <point x="148.2" y="0.0" type="line"/>
      <point x="1030.7" y="0.0" type="line"/>
      <point x="1030.7" y="51.400000000000006" type="line"/>
      <point x="148.2" y="51.400000000000006" type="line"/>
    </contour>
    <contour>
      <point x="160.4" y="707.1" type="line"/>
      <point x="958.9" y="707.1" type="line"/>
      <point x="958.9" y="748.4" type="line"/>
      <point x="160.4" y="748.4" type="line"/>
    </contour>
  </outline>
</glyph>
<glyph name="currency" format="2">
  <advance width="1103.3"/>
  <unicode hex="00A4"/>
  <note>
currency
</note>
  <outline>
    <contour>
      <point x="184.7" y="286.4" type="line"/>
      <point x="355.1" y="463.8" type="line"/>
      <point x="409.9" y="418.2"/>
      <point x="480.0" y="390.9"/>
      <point x="556.4" y="390.9" type="curve" smooth="yes"/>
      <point x="629.7" y="390.9"/>
      <point x="696.3" y="416.1"/>
      <point x="749.7" y="457.5" type="curve"/>
      <point x="915.5" y="286.4" type="line"/>
      <point x="954.3" y="325.6" type="line"/>
      <point x="789.9" y="495.6" type="line"/>
      <point x="840.4" y="551.1"/>
      <point x="870.5" y="624.7"/>
      <point x="870.5" y="705.0" type="curve" smooth="yes"/>
      <point x="870.5" y="787.0"/>
      <point x="839.0" y="861.3"/>
      <point x="787.8" y="917.5" type="curve"/>
      <point x="954.0" y="1089.3" type="line"/>
      <point x="913.8" y="1128.1" type="line"/>
      <point x="746.9" y="954.9" type="line"/>
      <point x="694.2" y="995.3"/>
      <point x="628.3" y="1019.1"/>
      <point x="556.4" y="1019.1" type="curve" smooth="yes"/>
      <point x="481.7" y="1019.1"/>
      <point x="412.3" y="993.2"/>
      <point x="358.9" y="949.3" type="curve"/>
      <point x="186.4" y="1127.8" type="line"/>
      <point x="146.2" y="1089.3" type="line"/>
      <point x="318.7" y="910.5" type="line"/>
      <point x="271.0" y="855.7"/>
      <point x="242.3" y="784.2"/>
      <point x="242.3" y="705.0" type="curve" smooth="yes"/>
      <point x="242.3" y="627.5"/>
      <point x="270.3" y="556.7"/>
      <point x="316.3" y="502.6" type="curve"/>
      <point x="146.2" y="325.9" type="line"/>
    </contour>
    <contour>
      <point x="556.4" y="444.5" type="curve" smooth="yes"/>
      <point x="412.5" y="444.5"/>
      <point x="295.9" y="561.1"/>
      <point x="295.9" y="705.0" type="curve" smooth="yes"/>
      <point x="295.9" y="848.9"/>
      <point x="412.5" y="965.5"/>
      <point x="556.4" y="965.5" type="curve" smooth="yes"/>
      <point x="700.3" y="965.5"/>
      <point x="816.9" y="848.9"/>
      <point x="816.9" y="705.0" type="curve" smooth="yes"/>
      <point x="816.9" y="561.1"/>
      <point x="700.3" y="444.5"/>
    </contour>
  </outline>
</glyph>
<glyph name="section" format="2">
  <advance width="1100.1"/>
  <unicode hex="00A7"/>
  <note>
section
</note>
  <outline>
    <contour>
      <point x="521.2" y="-417.1" type="curve" smooth="yes"/>
      <point x="730.7" y="-417.1"/>
      <point x="904.8" y="-315.7"/>
      <point x="902.7" y="-124.7" type="curve" smooth="yes"/>
      <point x="900.6" y="60.8"/>
      <point x="743.0" y="140.4"/>
      <point x="561.5" y="191.0" type="curve"/>
      <point x="558.9" y="162.1" type="line"/>
      <point x="793.2" y="165.4"/>
      <point x="967.7" y="305.8"/>
      <point x="964.9" y="518.0" type="curve" smooth="yes"/>
      <point x="962.1" y="717.4"/>
      <point x="829.2" y="799.2"/>
      <point x="632.0" y="872.4" type="curve" smooth="yes"/>
      <point x="471.6" y="932.6"/>
      <point x="337.5" y="989.6"/>
      <point x="334.70000000000005" y="1146.0" type="curve" smooth="yes"/>
      <point x="332.6" y="1295.0"/>
      <point x="436.20000000000005" y="1396.5"/>
      <point x="565.8" y="1396.5" type="curve" smooth="yes"/>
      <point x="709.7" y="1396.5"/>
      <point x="787.6" y="1278.5"/>
      <point x="782.3" y="1142.9" type="curve"/>
      <point x="904.9" y="1142.9" type="line"/>
      <point x="904.9" y="1166.0" type="line" smooth="yes"/>
      <point x="904.9" y="1338.1"/>
      <point x="790.2" y="1439.1"/>
      <point x="575.4" y="1439.1" type="curve" smooth="yes"/>
      <point x="362.6" y="1439.1"/>
      <point x="195.3" y="1340.0"/>
      <point x="197.4" y="1148.0" type="curve" smooth="yes"/>
      <point x="199.5" y="991.1"/>
      <point x="307.7" y="891.7"/>
      <point x="549.5" y="828.0" type="curve"/>
      <point x="539.0" y="858.4" type="line"/>
      <point x="321.1" y="868.5"/>
      <point x="134.1" y="741.7"/>
      <point x="136.9" y="504.0" type="curve" smooth="yes"/>
      <point x="138.3" y="348.2"/>
      <point x="242.1" y="226.4"/>
      <point x="503.7" y="141.3" type="curve" smooth="yes"/>
      <point x="651.1" y="94.6"/>
      <point x="765.5" y="5.099999999999998"/>
      <point x="766.9" y="-118.0" type="curve" smooth="yes"/>
      <point x="768.3" y="-247.5"/>
      <point x="670.9" y="-374.5"/>
      <point x="524.5" y="-374.5" type="curve" smooth="yes"/>
      <point x="382.6" y="-374.5"/>
      <point x="292.0" y="-249.2"/>
      <point x="297.3" y="-112.9" type="curve"/>
      <point x="174.5" y="-112.9" type="line"/>
      <point x="174.5" y="-136.0" type="line" smooth="yes"/>
      <point x="174.5" y="-296.7"/>
      <point x="300.0" y="-417.1"/>
    </contour>
    <contour>
      <point x="553.5" y="205.4" type="curve" smooth="yes"/>
      <point x="397.8" y="205.4"/>
      <point x="270.3" y="359.0"/>
      <point x="268.20000000000005" y="518.0" type="curve" smooth="yes"/>
      <point x="266.1" y="676.2"/>
      <point x="389.4" y="821.6"/>
      <point x="546.5" y="821.6" type="curve" smooth="yes"/>
      <point x="703.9" y="821.6"/>
      <point x="831.5" y="682.5"/>
      <point x="833.6" y="525.0" type="curve" smooth="yes"/>
      <point x="835.7" y="367.0"/>
      <point x="708.9" y="205.4"/>
    </contour>
  </outline>
</glyph>
<glyph name="copyright" format="2">
  <advance width="1724.9"/>
  <unicode hex="00A9"/>
  <note>
copyright
</note>
  <outline>
    <contour>
      <point x="861.1" y="-10.0" type="curve" smooth="yes"/>
      <point x="1053.9" y="-10.0"/>
      <point x="1237.4" y="69.3"/>
      <point x="1377.6" y="203.4" type="curve" smooth="yes"/>
      <point x="1516.2" y="336.9"/>
      <point x="1585.4" y="516.2"/>
      <point x="1585.4" y="708.0" type="curve" smooth="yes"/>
      <point x="1585.4" y="908.5"/>
      <point x="1513.2" y="1083.1"/>
      <point x="1377.6" y="1215.4" type="curve" smooth="yes"/>
      <point x="1240.7" y="1349.3"/>
      <point x="1060.7" y="1426.0"/>
      <point x="861.1" y="1426.0" type="curve" smooth="yes"/>
      <point x="667.9" y="1426.0"/>
      <point x="488.7" y="1351.8"/>
      <point x="354.3" y="1217.4" type="curve" smooth="yes"/>
      <point x="214.6" y="1078.0"/>
      <point x="138.8" y="897.2"/>
      <point x="138.8" y="708.0" type="curve" smooth="yes"/>
      <point x="138.8" y="513.8"/>
      <point x="212.9" y="338.3"/>
      <point x="352.9" y="201.4" type="curve" smooth="yes"/>
      <point x="494.7" y="62.4"/>
      <point x="673.0" y="-10.0"/>
    </contour>
    <contour>
      <point x="861.2" y="265.3" type="curve" smooth="yes"/>
      <point x="1048.8" y="265.3"/>
      <point x="1172.8" y="374.6"/>
      <point x="1205.3" y="533.8" type="curve"/>
      <point x="1146.0" y="533.8" type="line"/>
      <point x="1108.6" y="395.5"/>
      <point x="1007.6" y="310.8"/>
      <point x="869.9" y="310.8" type="curve" smooth="yes"/>
      <point x="687.2" y="310.8"/>
      <point x="552.2" y="460.1"/>
      <point x="552.2" y="705.3" type="curve" smooth="yes"/>
      <point x="552.2" y="948.9"/>
      <point x="685.2" y="1109.2"/>
      <point x="869.9" y="1109.2" type="curve" smooth="yes"/>
      <point x="999.7" y="1109.2"/>
      <point x="1097.5" y="1029.3"/>
      <point x="1134.0" y="907.6" type="curve"/>
      <point x="1195.3" y="907.6" type="line"/>
      <point x="1162.5" y="1053.4"/>
      <point x="1049.1" y="1153.0"/>
      <point x="871.2" y="1153.0" type="curve" smooth="yes"/>
      <point x="634.4" y="1153.0"/>
      <point x="481.9" y="977.2"/>
      <point x="481.9" y="704.0" type="curve" smooth="yes"/>
      <point x="481.9" y="438.2"/>
      <point x="625.0" y="265.3"/>
    </contour>
    <contour>
      <point x="861.1" y="55.3" type="curve" smooth="yes"/>
      <point x="688.1" y="55.3"/>
      <point x="522.9" y="124.3"/>
      <point x="398.4" y="247.7" type="curve" smooth="yes"/>
      <point x="270.2" y="374.5"/>
      <point x="203.3" y="539.7"/>
      <point x="203.3" y="708.0" type="curve" smooth="yes"/>
      <point x="203.3" y="883.4"/>
      <point x="271.5" y="1044.9"/>
      <point x="399.8" y="1172.5" type="curve" smooth="yes"/>
      <point x="522.1" y="1294.4"/>
      <point x="681.0" y="1362.1"/>
      <point x="861.1" y="1362.1" type="curve" smooth="yes"/>
      <point x="1038.7" y="1362.1"/>
      <point x="1206.5" y="1292.0"/>
      <point x="1330.7" y="1170.5" type="curve" smooth="yes"/>
      <point x="1456.2" y="1048.0"/>
      <point x="1522.3" y="881.0"/>
      <point x="1522.3" y="708.0" type="curve" smooth="yes"/>
      <point x="1522.3" y="522.7"/>
      <point x="1454.2" y="366.7"/>
      <point x="1332.1" y="249.7" type="curve" smooth="yes"/>
      <point x="1208.0" y="130.4"/>
      <point x="1040.2" y="55.3"/>
    </contour>
  </outline>
</glyph>
<glyph name="ordfeminine" format="2">
  <advance width="699.2"/>
  <unicode hex="00AA"/>
  <note>
ordfeminine
</note>
  <outline>
    <contour>
      <point x="319.2" y="845.0" type="curve" smooth="yes"/>
      <point x="397.9" y="845.0"/>
      <point x="536.2" y="876.6"/>
      <point x="549.0" y="1058.0" type="curve"/>
      <point x="549.0" y="863.0" type="line"/>
      <point x="576.5" y="863.0" type="line"/>
      <point x="576.5" y="1435.0" type="line"/>
      <point x="546.7" y="1435.0" type="line"/>
      <point x="546.7" y="1236.0" type="line"/>
      <point x="533.9" y="1418.4"/>
      <point x="393.5" y="1451.0"/>
      <point x="314.9" y="1451.0" type="curve" smooth="yes"/>
      <point x="174.7" y="1451.0"/>
      <point x="90.4" y="1325.0"/>
      <point x="90.4" y="1146.0" type="curve" smooth="yes"/>
      <point x="90.4" y="960.9"/>
      <point x="177.4" y="845.0"/>
    </contour>
    <contour>
      <point x="325.2" y="874.1" type="curve" smooth="yes"/>
      <point x="191.8" y="874.1"/>
      <point x="134.3" y="992.8"/>
      <point x="134.3" y="1146.0" type="curve" smooth="yes"/>
      <point x="134.3" y="1299.8"/>
      <point x="187.0" y="1421.9"/>
      <point x="322.2" y="1421.9" type="curve" smooth="yes"/>
      <point x="457.2" y="1421.9"/>
      <point x="532.0" y="1328.3"/>
      <point x="532.0" y="1146.0" type="curve" smooth="yes"/>
      <point x="532.0" y="965.0"/>
      <point x="459.6" y="874.1"/>
    </contour>
    <contour>
      <point x="92.8" y="730.0" type="line"/>
      <point x="595.8" y="730.0" type="line"/>
      <point x="595.8" y="767.0" type="line"/>
      <point x="92.8" y="767.0" type="line"/>
    </contour>
  </outline>
</glyph>
<glyph name="logicalnot" format="2">
  <advance width="1024.3"/>
  <unicode hex="00AC"/>
  <note>
logicalnot
</note>
  <outline>
    <contour>
      <point x="1031.5" y="347.1" type="line"/>
      <point x="1083.2" y="347.1" type="line"/>
      <point x="1083.2" y="865.5" type="line"/>
      <point x="125.3" y="865.5" type="line"/>
      <point x="125.3" y="820.0" type="line"/>
      <point x="1031.5" y="820.0" type="line"/>
    </contour>
  </outline>
</glyph>
<glyph name="registered" format="2">
  <advance width="1724.9"/>
  <unicode hex="00AE"/>
  <note>
registered
</note>
  <outline>
    <contour>
      <point x="861.1" y="-10.0" type="curve" smooth="yes"/>
      <point x="1053.9" y="-10.0"/>
      <point x="1237.4" y="69.3"/>
      <point x="1377.6" y="203.4" type="curve" smooth="yes"/>
      <point x="1516.2" y="336.9"/>
      <point x="1585.4" y="516.2"/>
      <point x="1585.4" y="708.0" type="curve" smooth="yes"/>
      <point x="1585.4" y="908.5"/>
      <point x="1513.2" y="1083.1"/>
      <point x="1377.6" y="1215.4" type="curve" smooth="yes"/>
      <point x="1240.7" y="1349.3"/>
      <point x="1060.7" y="1426.0"/>
      <point x="861.1" y="1426.0" type="curve" smooth="yes"/>
      <point x="667.9" y="1426.0"/>
      <point x="488.7" y="1351.8"/>
      <point x="354.3" y="1217.4" type="curve" smooth="yes"/>
      <point x="214.6" y="1078.0"/>
      <point x="138.8" y="897.2"/>
      <point x="138.8" y="708.0" type="curve" smooth="yes"/>
      <point x="138.8" y="513.8"/>
      <point x="212.9" y="338.3"/>
      <point x="352.9" y="201.4" type="curve" smooth="yes"/>
      <point x="494.7" y="62.4"/>
      <point x="673.0" y="-10.0"/>
    </contour>
    <contour>
      <point x="861.1" y="55.3" type="curve" smooth="yes"/>
      <point x="688.1" y="55.3"/>
      <point x="522.9" y="124.3"/>
      <point x="398.4" y="247.7" type="curve" smooth="yes"/>
      <point x="270.2" y="374.5"/>
      <point x="203.3" y="539.7"/>
      <point x="203.3" y="708.0" type="curve" smooth="yes"/>
      <point x="203.3" y="883.4"/>
      <point x="271.5" y="1044.9"/>
      <point x="399.8" y="1172.5" type="curve" smooth="yes"/>
      <point x="522.1" y="1294.4"/>
      <point x="681.0" y="1362.1"/>
      <point x="861.1" y="1362.1" type="curve" smooth="yes"/>
      <point x="1038.7" y="1362.1"/>
      <point x="1206.5" y="1292.0"/>
      <point x="1330.7" y="1170.5" type="curve" smooth="yes"/>
      <point x="1456.2" y="1048.0"/>
      <point x="1522.3" y="881.0"/>
      <point x="1522.3" y="708.0" type="curve" smooth="yes"/>
      <point x="1522.3" y="522.7"/>
      <point x="1454.2" y="366.7"/>
      <point x="1332.1" y="249.7" type="curve" smooth="yes"/>
      <point x="1208.0" y="130.4"/>
      <point x="1040.2" y="55.3"/>
    </contour>
    <contour>
      <point x="609.6" y="310.0" type="line"/>
      <point x="655.4" y="310.0" type="line"/>
      <point x="655.4" y="681.0" type="line"/>
      <point x="884.6" y="681.0" type="line"/>
      <point x="1081.6" y="310.0" type="line"/>
      <point x="1127.6" y="310.0" type="line"/>
      <point x="925.6" y="686.0" type="line"/>
      <point x="1047.6" y="701.0"/>
      <point x="1127.4" y="776.0"/>
      <point x="1127.4" y="907.0" type="curve" smooth="yes"/>
      <point x="1127.4" y="1053.0"/>
      <point x="1045.6" y="1130.0"/>
      <point x="813.6" y="1130.0" type="curve" smooth="yes"/>
      <point x="609.6" y="1130.0" type="line"/>
    </contour>
    <contour>
      <point x="655.4" y="720.6" type="line"/>
      <point x="655.4" y="1090.4" type="line"/>
      <point x="856.2" y="1090.4" type="line" smooth="yes"/>
      <point x="1010.1" y="1090.4"/>
      <point x="1080.6" y="1037.4"/>
      <point x="1080.6" y="906.0" type="curve" smooth="yes"/>
      <point x="1080.6" y="778.6"/>
      <point x="1011.1" y="720.6"/>
      <point x="859.9" y="720.6" type="curve" smooth="yes"/>
    </contour>
  </outline>
</glyph>
<glyph name="degree" format="2">
  <advance width="687.2"/>
  <unicode hex="00B0"/>
  <note>
degree
</note>
  <outline>
    <contour>
      <point x="341.8" y="1035.5" type="curve" smooth="yes"/>
      <point x="453.2" y="1035.5"/>
      <point x="542.5" y="1124.8"/>
      <point x="542.5" y="1233.9" type="curve" smooth="yes"/>
      <point x="542.5" y="1343.0"/>
      <point x="453.2" y="1432.3"/>
      <point x="344.1" y="1432.3" type="curve" smooth="yes"/>
      <point x="233.0" y="1432.3"/>
      <point x="145.7" y="1345.0"/>
      <point x="145.7" y="1233.9" type="curve" smooth="yes"/>
      <point x="145.7" y="1122.8"/>
      <point x="232.0" y="1035.5"/>
    </contour>
    <contour>
      <point x="344.1" y="1071.9" type="curve" smooth="yes"/>
      <point x="254.1" y="1071.9"/>
      <point x="182.1" y="1143.9"/>
      <point x="182.1" y="1233.9" type="curve" smooth="yes"/>
      <point x="182.1" y="1322.9"/>
      <point x="254.1" y="1394.9"/>
      <point x="344.1" y="1394.9" type="curve" smooth="yes"/>
      <point x="434.1" y="1394.9"/>
      <point x="505.1" y="1322.9"/>
      <point x="505.1" y="1233.9" type="curve" smooth="yes"/>
      <point x="505.1" y="1143.9"/>
      <point x="434.1" y="1071.9"/>
    </contour>
  </outline>
</glyph>
<glyph name="plusminus" format="2">
  <advance width="1024.3"/>
  <unicode hex="00B1"/>
  <note>
plusminus
</note>
  <outline>
    <contour>
      <point x="415.8" y="389.7" type="line"/>
      <point x="453.5" y="389.7" type="line"/>
      <point x="453.5" y="649.3" type="line"/>
      <point x="730.6" y="649.3" type="line"/>
      <point x="730.6" y="687.0" type="line"/>
      <point x="453.5" y="687.0" type="line"/>
      <point x="453.5" y="946.9" type="line"/>
      <point x="415.8" y="946.9" type="line"/>
      <point x="415.8" y="687.0" type="line"/>
      <point x="138.4" y="687.0" type="line"/>
      <point x="138.4" y="649.3" type="line"/>
      <point x="415.8" y="649.3" type="line"/>
    </contour>
    <contour>
      <point x="137.7" y="252.8" type="line"/>
      <point x="729.9" y="252.8" type="line"/>
      <point x="729.9" y="290.5" type="line"/>
      <point x="137.7" y="290.5" type="line"/>
    </contour>
  </outline>
</glyph>
<glyph name="paragraph" format="2">
  <advance width="1046.3"/>
  <unicode hex="00B6"/>
  <note>
paragraph
</note>
  <outline>
    <contour>
      <point x="497.4" y="0.0" type="line"/>
      <point x="559.2" y="0.0" type="line"/>
      <point x="559.2" y="1400.3" type="line"/>
      <point x="739.0" y="1400.3" type="line"/>
      <point x="739.0" y="0.0" type="line"/>
      <point x="800.8" y="0.0" type="line"/>
      <point x="800.8" y="1400.3" type="line"/>
      <point x="924.0" y="1400.3" type="line"/>
      <point x="924.0" y="1443.7" type="line"/>
      <point x="515.4" y="1443.7" type="line" smooth="yes"/>
      <point x="281.3" y="1443.7"/>
      <point x="128.1" y="1306.5"/>
      <point x="128.1" y="1099.8" type="curve" smooth="yes"/>
      <point x="128.1" y="900.8"/>
      <point x="269.9" y="765.9"/>
      <point x="497.4" y="755.9" type="curve"/>
    </contour>
  </outline>
</glyph>
<glyph name="ordmasculine" format="2">
  <advance width="741.1"/>
  <unicode hex="00BA"/>
  <note>
ordmasculine
</note>
  <outline>
    <contour>
      <point x="370.0" y="860.0" type="curve" smooth="yes"/>
      <point x="506.4" y="860.0"/>
      <point x="626.8" y="965.0"/>
      <point x="626.8" y="1147.0" type="curve" smooth="yes"/>
      <point x="626.8" y="1330.0"/>
      <point x="507.4" y="1438.0"/>
      <point x="370.0" y="1438.0" type="curve" smooth="yes"/>
      <point x="232.6" y="1438.0"/>
      <point x="115.5" y="1331.0"/>
      <point x="115.5" y="1147.0" type="curve" smooth="yes"/>
      <point x="115.5" y="964.0"/>
      <point x="233.6" y="860.0"/>
    </contour>
    <contour>
      <point x="371.0" y="888.6" type="curve" smooth="yes"/>
      <point x="255.3" y="888.6"/>
      <point x="158.0" y="984.1"/>
      <point x="158.0" y="1147.0" type="curve" smooth="yes"/>
      <point x="158.0" y="1309.9"/>
      <point x="256.3" y="1408.4"/>
      <point x="371.0" y="1408.4" type="curve" smooth="yes"/>
      <point x="485.7" y="1408.4"/>
      <point x="584.3" y="1309.9"/>
      <point x="584.3" y="1147.0" type="curve" smooth="yes"/>
      <point x="584.3" y="984.1"/>
      <point x="486.7" y="888.6"/>
    </contour>
    <contour>
      <point x="116.5" y="730.0" type="line"/>
      <point x="624.3" y="730.0" type="line"/>
      <point x="624.3" y="767.0" type="line"/>
      <point x="116.5" y="767.0" type="line"/>
    </contour>
  </outline>
</glyph>
<glyph name="AE" format="2">
  <advance width="1725.5"/>
  <unicode hex="00C6"/>
  <note>
AE
</note>
  <anchor x="895.1" y="-20.0" name="bottom"/>
  <anchor x="895.1" y="1444.0" name="top"/>
  <outline>
    <contour>
      <point x="79.8" y="-7.0" type="line"/>
      <point x="153.0" y="-7.0" type="line"/>
      <point x="1018.4" y="1437.0" type="line"/>
      <point x="945.2" y="1437.0" type="line"/>
    </contour>
    <contour>
      <point x="391.1" y="454.5" type="line"/>
      <point x="1040.0" y="454.5" type="line"/>
      <point x="1040.0" y="496.8" type="line"/>
      <point x="391.1" y="496.8" type="line"/>
    </contour>
    <contour>
      <point x="1001.0" y="-7.0" type="line"/>
      <point x="1627.2" y="-7.0" type="line"/>
      <point x="1627.2" y="35.300000000000004" type="line"/>
      <point x="1035.3" y="35.300000000000004" type="line"/>
      <point x="1068.2" y="3.6000000000000014" type="line"/>
      <point x="1068.2" y="749.8" type="line"/>
      <point x="1040.2" y="707.2" type="line"/>
      <point x="1627.2" y="707.2" type="line"/>
      <point x="1627.2" y="749.5" type="line"/>
      <point x="1030.0" y="749.5" type="line"/>
      <point x="1068.2" y="715.7" type="line"/>
      <point x="1068.2" y="1434.9" type="line"/>
      <point x="1005.6" y="1394.7" type="line"/>
      <point x="1627.2" y="1394.7" type="line"/>
      <point x="1627.2" y="1437.0" type="line"/>
      <point x="1001.0" y="1437.0" type="line"/>
    </contour>
  </outline>
</glyph>
<glyph name="Thorn" format="2">
  <advance width="988.3"/>
  <unicode hex="00DE"/>
  <note>
Thorn
</note>
  <anchor x="493.8" y="-6.0" name="bottom"/>
  <anchor x="493.8" y="1430.0" name="top"/>
  <outline>
    <contour>
      <point x="209.5" y="332.8" type="line"/>
      <point x="428.5" y="332.8" type="line" smooth="yes"/>
      <point x="569.9" y="332.8"/>
      <point x="675.1" y="359.9"/>
      <point x="749.0" y="410.2" type="curve" smooth="yes"/>
      <point x="849.8" y="477.7"/>
      <point x="891.3" y="589.2"/>
      <point x="891.3" y="733.4" type="curve" smooth="yes"/>
      <point x="891.3" y="868.9"/>
      <point x="853.9" y="968.9"/>
      <point x="777.1" y="1034.8" type="curve" smooth="yes"/>
      <point x="701.1" y="1100.6"/>
      <point x="585.1" y="1132.0"/>
      <point x="428.8" y="1132.0" type="curve" smooth="yes"/>
      <point x="215.5" y="1132.0" type="line"/>
      <point x="215.5" y="1090.7" type="line"/>
      <point x="388.7" y="1090.7" type="line" smooth="yes"/>
      <point x="701.7" y="1090.7"/>
      <point x="819.1" y="981.7"/>
      <point x="819.1" y="732.8" type="curve" smooth="yes"/>
      <point x="819.1" y="480.6"/>
      <point x="700.3" y="374.1"/>
      <point x="388.7" y="374.1" type="curve" smooth="yes"/>
      <point x="209.5" y="374.1" type="line"/>
    </contour>
    <contour>
      <point x="165.4" y="0.0" type="line"/>
      <point x="232.3" y="0.0" type="line"/>
      <point x="232.3" y="1430.0" type="line"/>
      <point x="165.4" y="1430.0" type="line"/>
    </contour>
  </outline>
</glyph>
<glyph name="germandbls" format="2">
  <advance width="999.9"/>
  <unicode hex="00DF"/>
  <note>
germandbls
</note>
  <anchor x="500.3" y="-6.0" name="bottom"/>
  <anchor x="500.3" y="936.5" name="top"/>
  <outline>
    <contour>
      <point x="616.4" y="-25.2" type="curve" smooth="yes"/>
      <point x="830.6" y="-25.2"/>
      <point x="937.8" y="79.4"/>
      <point x="937.8" y="253.2" type="curve" smooth="yes"/>
      <point x="937.8" y="402.6"/>
      <point x="858.3" y="478.9"/>
      <point x="627.1" y="526.5" type="curve" smooth="yes"/>
      <point x="444.2" y="563.8"/>
      <point x="422.1" y="607.0"/>
      <point x="422.1" y="726.5" type="curve" smooth="yes"/>
      <point x="422.1" y="817.6"/>
      <point x="490.7" y="869.5"/>
      <point x="564.1" y="925.5" type="curve" smooth="yes"/>
      <point x="647.9" y="990.1"/>
      <point x="752.4" y="1059.7"/>
      <point x="752.4" y="1228.7" type="curve" smooth="yes"/>
      <point x="752.4" y="1384.4"/>
      <point x="655.6" y="1531.3"/>
      <point x="460.5" y="1531.3" type="curve" smooth="yes"/>
      <point x="282.8" y="1531.3"/>
      <point x="194.4" y="1367.0"/>
      <point x="194.4" y="1142.7" type="curve" smooth="yes"/>
      <point x="194.4" y="0.0" type="line"/>
      <point x="256.6" y="0.0" type="line"/>
      <point x="256.6" y="1142.7" type="line" smooth="yes"/>
      <point x="256.6" y="1405.3"/>
      <point x="361.9" y="1486.7"/>
      <point x="467.8" y="1486.7" type="curve" smooth="yes"/>
      <point x="614.1" y="1486.7"/>
      <point x="688.7" y="1340.6"/>
      <point x="688.7" y="1209.9" type="curve" smooth="yes"/>
      <point x="688.7" y="1087.8"/>
      <point x="620.3" y="1029.5"/>
      <point x="543.4" y="969.5" type="curve" smooth="yes"/>
      <point x="460.3" y="904.3"/>
      <point x="362.0" y="842.9"/>
      <point x="362.0" y="712.8" type="curve" smooth="yes"/>
      <point x="362.0" y="569.3"/>
      <point x="417.3" y="506.4"/>
      <point x="617.8" y="467.2" type="curve" smooth="yes"/>
      <point x="820.9" y="427.3"/>
      <point x="872.1" y="369.6"/>
      <point x="872.1" y="240.5" type="curve" smooth="yes"/>
      <point x="872.1" y="104.3"/>
      <point x="785.3" y="24.400000000000006"/>
      <point x="615.1" y="24.400000000000006" type="curve" smooth="yes"/>
      <point x="488.9" y="24.400000000000006"/>
      <point x="403.3" y="73.7"/>
      <point x="343.4" y="155.2" type="curve"/>
      <point x="343.4" y="68.9" type="line"/>
      <point x="409.4" y="5.399999999999999"/>
      <point x="498.0" y="-25.2"/>
    </contour>
    <contour>
      <point x="46.900000000000006" y="895.6" type="line"/>
      <point x="207.4" y="895.6" type="line"/>
      <point x="207.4" y="937.5" type="line"/>
      <point x="46.900000000000006" y="937.5" type="line"/>
    </contour>
  </outline>
</glyph>
<glyph name="ae" format="2">
  <advance width="1715.6"/>
  <unicode hex="00E6"/>
  <note>
ae
</note>
  <anchor x="858.5" y="-6.0" name="bottom"/>
  <anchor x="873.5" y="936.5" name="top"/>
  <outline>
    <contour>
      <point x="483.1" y="-25.2" type="curve" smooth="yes"/>
      <point x="677.7" y="-25.2"/>
      <point x="814.9" y="92.6"/>
      <point x="867.7" y="284.4" type="curve"/>
      <point x="852.0" y="303.5" type="line"/>
      <point x="841.7" y="0.0" type="line"/>
      <point x="909.2" y="0.0" type="line"/>
      <point x="909.2" y="941.0" type="line"/>
      <point x="841.7" y="941.0" type="line"/>
      <point x="841.7" y="617.0" type="line"/>
      <point x="867.7" y="634.0" type="line"/>
      <point x="814.2" y="835.9"/>
      <point x="675.5" y="966.3"/>
      <point x="482.8" y="966.3" type="curve" smooth="yes"/>
      <point x="233.5" y="966.3"/>
      <point x="77.3" y="748.3"/>
      <point x="77.3" y="458.4" type="curve" smooth="yes"/>
      <point x="77.3" y="168.8"/>
      <point x="233.3" y="-25.2"/>
    </contour>
    <contour>
      <point x="484.3" y="18.700000000000003" type="curve" smooth="yes"/>
      <point x="269.7" y="18.700000000000003"/>
      <point x="139.5" y="181.7"/>
      <point x="139.5" y="468.4" type="curve" smooth="yes"/>
      <point x="139.5" y="760.6"/>
      <point x="277.7" y="921.7"/>
      <point x="484.0" y="921.7" type="curve" smooth="yes"/>
      <point x="697.2" y="921.7"/>
      <point x="838.9" y="743.3"/>
      <point x="838.9" y="458.4" type="curve" smooth="yes"/>
      <point x="838.9" y="169.2"/>
      <point x="691.3" y="18.700000000000003"/>
    </contour>
    <contour>
      <point x="1255.8" y="-25.2" type="curve" smooth="yes"/>
      <point x="1440.7" y="-25.2"/>
      <point x="1577.9" y="90.6"/>
      <point x="1629.0" y="279.7" type="curve"/>
      <point x="1563.7" y="279.7" type="line"/>
      <point x="1515.8" y="109.6"/>
      <point x="1405.6" y="18.700000000000003"/>
      <point x="1256.1" y="18.700000000000003" type="curve" smooth="yes"/>
      <point x="1055.0" y="18.700000000000003"/>
      <point x="927.7" y="182.6"/>
      <point x="927.7" y="465.1" type="curve" smooth="yes"/>
      <point x="927.7" y="754.2"/>
      <point x="1061.2" y="917.8"/>
      <point x="1255.8" y="917.8" type="curve" smooth="yes"/>
      <point x="1433.7" y="917.8"/>
      <point x="1572.1" y="782.1"/>
      <point x="1596.3" y="511.5" type="curve"/>
      <point x="1647.5" y="511.5" type="line"/>
      <point x="1628.7" y="793.6"/>
      <point x="1469.8" y="961.4"/>
      <point x="1255.5" y="961.4" type="curve" smooth="yes"/>
      <point x="1011.2" y="961.4"/>
      <point x="861.8" y="739.2"/>
      <point x="861.8" y="455.4" type="curve" smooth="yes"/>
      <point x="861.8" y="164.6"/>
      <point x="1019.2" y="-25.2"/>
    </contour>
    <contour>
      <point x="895.2" y="511.5" type="line"/>
      <point x="1621.9" y="511.5" type="line"/>
      <point x="1621.0" y="550.1" type="line"/>
      <point x="896.1" y="550.1" type="line"/>
    </contour>
  </outline>
</glyph>
<glyph name="eth" format="2">
  <advance width="1025.9"/>
  <unicode hex="00F0"/>
  <note>
eth
</note>
  <outline>
    <contour>
      <point x="504.2" y="-25.2" type="curve" smooth="yes"/>
      <point x="619.1" y="-25.2"/>
      <point x="713.7" y="11.7"/>
      <point x="785.6" y="77.3" type="curve" smooth="yes"/>
      <point x="856.9" y="142.0"/>
      <point x="934.4" y="244.0"/>
      <point x="933.4" y="458.1" type="curve" smooth="yes"/>
      <point x="932.4" y="606.6"/>
      <point x="923.7" y="794.5"/>
      <point x="850.1" y="962.0" type="curve" smooth="yes"/>
      <point x="738.2" y="1217.5"/>
      <point x="462.5" y="1457.1"/>
      <point x="166.5" y="1519.8" type="curve"/>
      <point x="146.2" y="1490.3" type="line"/>
      <point x="534.7" y="1394.1"/>
      <point x="850.4" y="1058.5"/>
      <point x="863.2" y="691.8" type="curve"/>
      <point x="885.6" y="693.8" type="line"/>
      <point x="816.2" y="858.3"/>
      <point x="682.7" y="960.8"/>
      <point x="504.2" y="960.8" type="curve" smooth="yes"/>
      <point x="387.4" y="960.8"/>
      <point x="290.6" y="916.7"/>
      <point x="215.9" y="839.6" type="curve" smooth="yes"/>
      <point x="128.4" y="749.3"/>
      <point x="77.0" y="610.4"/>
      <point x="77.0" y="455.4" type="curve" smooth="yes"/>
      <point x="77.0" y="301.5"/>
      <point x="129.3" y="173.3"/>
      <point x="209.9" y="91.6" type="curve" smooth="yes"/>
      <point x="285.3" y="15.1"/>
      <point x="383.5" y="-25.2"/>
    </contour>
    <contour>
      <point x="507.0" y="18.700000000000003" type="curve" smooth="yes"/>
      <point x="292.2" y="18.700000000000003"/>
      <point x="147.3" y="186.4"/>
      <point x="147.3" y="465.1" type="curve" smooth="yes"/>
      <point x="147.3" y="749.0"/>
      <point x="300.4" y="916.6"/>
      <point x="507.0" y="916.6" type="curve" smooth="yes"/>
      <point x="718.6" y="916.6"/>
      <point x="865.9" y="735.3"/>
      <point x="865.9" y="455.4" type="curve" smooth="yes"/>
      <point x="865.9" y="173.3"/>
      <point x="713.5" y="18.700000000000003"/>
    </contour>
    <contour>
      <point x="234.0" y="1101.2" type="line"/>
      <point x="279.9" y="1101.2" type="line"/>
      <point x="768.9" y="1569.0" type="line"/>
      <point x="723.0" y="1569.0" type="line"/>
    </contour>
  </outline>
</glyph>
<glyph name="divide" format="2">
  <advance width="1024.3"/>
  <unicode hex="00F7"/>
  <note>
divide
</note>
  <outline>
    <contour>
      <point x="123.1" y="646.1" type="line"/>
      <point x="907.8" y="646.1" type="line"/>
      <point x="907.8" y="690.8" type="line"/>
      <point x="123.1" y="690.8" type="line"/>
    </contour>
    <contour>
      <point x="515.3" y="339.5" type="curve" smooth="yes"/>
      <point x="553.9" y="339.5"/>
      <point x="581.5" y="367.1"/>
      <point x="581.5" y="406.4" type="curve" smooth="yes"/>
      <point x="581.5" y="445.4"/>
      <point x="553.2" y="471.6"/>
      <point x="515.3" y="471.6" type="curve" smooth="yes"/>
      <point x="477.7" y="471.6"/>
      <point x="449.4" y="445.4"/>
      <point x="449.4" y="406.4" type="curve" smooth="yes"/>
      <point x="449.4" y="367.4"/>
      <point x="477.0" y="339.5"/>
    </contour>
    <contour>
      <point x="515.3" y="857.2" type="curve" smooth="yes"/>
      <point x="553.9" y="857.2"/>
      <point x="581.5" y="884.8"/>
      <point x="581.5" y="924.1" type="curve" smooth="yes"/>
      <point x="581.5" y="963.1"/>
      <point x="553.2" y="989.3"/>
      <point x="515.3" y="989.3" type="curve" smooth="yes"/>
      <point x="477.7" y="989.3"/>
      <point x="449.4" y="963.1"/>
      <point x="449.4" y="924.1" type="curve" smooth="yes"/>
      <point x="449.4" y="884.8"/>
      <point x="476.7" y="857.2"/>
    </contour>
  </outline>
</glyph>
<glyph name="thorn" format="2">
  <advance width="1047.9"/>
  <unicode hex="00FE"/>
  <note>
thorn
</note>
  <anchor x="526.4" y="-6.0" name="bottom"/>
  <anchor x="526.4" y="936.5" name="top"/>
  <outline>
    <contour>
      <point x="144.4" y="-577.8" type="line"/>
      <point x="206.6" y="-577.8" type="line"/>
      <point x="206.6" y="324.1" type="line"/>
      <point x="180.6" y="306.8" type="line"/>
      <point x="234.1" y="106.9"/>
      <point x="372.5" y="-24.3"/>
      <point x="565.8" y="-24.3" type="curve" smooth="yes"/>
      <point x="814.5" y="-24.3"/>
      <point x="971.3" y="192.9"/>
      <point x="971.3" y="481.7" type="curve" smooth="yes"/>
      <point x="971.3" y="768.1"/>
      <point x="815.0" y="961.4"/>
      <point x="565.5" y="961.4" type="curve" smooth="yes"/>
      <point x="370.0" y="961.4"/>
      <point x="233.1" y="845.2"/>
      <point x="180.6" y="653.2" type="curve"/>
      <point x="206.3" y="635.6" type="line"/>
      <point x="206.3" y="1514.0" type="line"/>
      <point x="144.4" y="1514.0" type="line"/>
    </contour>
    <contour>
      <point x="564.6" y="19.6" type="curve" smooth="yes"/>
      <point x="352.6" y="19.6"/>
      <point x="210.0" y="197.6"/>
      <point x="210.0" y="481.7" type="curve" smooth="yes"/>
      <point x="210.0" y="768.0"/>
      <point x="356.7" y="917.8"/>
      <point x="564.3" y="917.8" type="curve" smooth="yes"/>
      <point x="778.0" y="917.8"/>
      <point x="909.1" y="756.7"/>
      <point x="909.1" y="471.7" type="curve" smooth="yes"/>
      <point x="909.1" y="181.8"/>
      <point x="772.1" y="19.6"/>
    </contour>
  </outline>
</glyph>
<glyph name="kgreenlandic" format="2">
  <advance width="878.9"/>
  <unicode hex="0138"/>
  <anchor x="439.1" y="-6.0" name="bottom"/>
  <anchor x="439.1" y="936.5" name="top"/>
  <outline>
    <contour>
      <point x="123.0" y="0.0" type="line"/>
      <point x="185.2" y="0.0" type="line"/>
      <point x="185.2" y="934.0" type="line"/>
      <point x="123.0" y="934.0" type="line"/>
    </contour>
    <contour>
      <point x="737.6" y="0.0" type="line"/>
      <point x="834.3" y="0.0" type="line"/>
      <point x="279.0" y="566.0" type="line"/>
      <point x="227.9" y="518.9" type="line"/>
    </contour>
    <contour>
      <point x="173.7" y="416.8" type="line"/>
      <point x="716.8" y="933.7" type="line"/>
      <point x="653.3" y="933.7" type="line"/>
      <point x="140.4" y="448.8" type="line"/>
    </contour>
  </outline>
</glyph>
<glyph name="lslash" format="2">
  <advance width="605.7"/>
  <unicode hex="0142"/>
  <outline>
    <contour>
      <point x="270.1" y="0.0" type="line"/>
      <point x="340.7" y="0.0" type="line"/>
      <point x="340.7" y="1514.0" type="line"/>
      <point x="270.1" y="1514.0" type="line"/>
    </contour>
    <contour>
      <point x="74.2" y="553.6" type="line"/>
      <point x="560.1" y="846.1" type="line"/>
      <point x="531.5" y="893.3" type="line"/>
      <point x="45.6" y="600.8" type="line"/>
    </contour>
  </outline>
</glyph>
<glyph name="Eng" format="2">
  <advance width="1480.0"/>
  <unicode hex="014A"/>
  <outline>
    <contour>
      <point x="1085.3" y="-350.3" type="curve" smooth="yes"/>
      <point x="1219.4" y="-350.3"/>
      <point x="1307.8" y="-242.9"/>
      <point x="1307.8" y="-83.8" type="curve" smooth="yes"/>
      <point x="1307.8" y="1430.0" type="line"/>
      <point x="1264.7" y="1430.0" type="line"/>
      <point x="1264.7" y="43.1" type="line"/>
      <point x="1281.0" y="48.400000000000006" type="line"/>
      <point x="261.3" y="1430.0" type="line"/>
      <point x="164.7" y="1430.0" type="line"/>
      <point x="164.7" y="0.0" type="line"/>
      <point x="207.8" y="0.0" type="line"/>
      <point x="207.8" y="1392.6" type="line"/>
      <point x="191.5" y="1388.7" type="line"/>
      <point x="1212.3" y="12.3" type="line" smooth="yes"/>
      <point x="1240.2" y="-25.7"/>
      <point x="1256.8" y="-43.9"/>
      <point x="1256.8" y="-94.3" type="curve" smooth="yes"/>
      <point x="1256.8" y="-261.9"/>
      <point x="1148.4" y="-301.5"/>
      <point x="1087.5" y="-301.5" type="curve" smooth="yes"/>
      <point x="1019.8" y="-301.5"/>
      <point x="948.8" y="-250.2"/>
      <point x="903.4" y="-190.0" type="curve"/>
      <point x="903.4" y="-262.7" type="line"/>
      <point x="956.7" y="-323.7"/>
      <point x="1018.1" y="-350.3"/>
    </contour>
  </outline>
</glyph>
<glyph name="eng" format="2">
  <advance width="973.7"/>
  <unicode hex="014B"/>
  <outline>
    <contour>
      <point x="704.9" y="-445.3" type="curve" smooth="yes"/>
      <point x="869.3" y="-445.3"/>
      <point x="866.0" y="-255.8"/>
      <point x="866.0" y="-56.699999999999996" type="curve" smooth="yes"/>
      <point x="866.0" y="607.3" type="line" smooth="yes"/>
      <point x="866.0" y="820.8"/>
      <point x="783.0" y="961.4"/>
      <point x="541.3" y="961.4" type="curve" smooth="yes"/>
      <point x="338.9" y="961.4"/>
      <point x="213.2" y="857.1"/>
      <point x="179.2" y="693.7" type="curve"/>
      <point x="185.2" y="679.8" type="line"/>
      <point x="185.2" y="935.4" type="line"/>
      <point x="123.0" y="935.4" type="line"/>
      <point x="123.0" y="0.0" type="line"/>
      <point x="185.2" y="0.0" type="line"/>
      <point x="185.2" y="550.7" type="line" smooth="yes"/>
      <point x="185.2" y="768.7"/>
      <point x="301.1" y="917.5"/>
      <point x="530.4" y="917.5" type="curve" smooth="yes"/>
      <point x="729.7" y="917.5"/>
      <point x="803.8" y="812.3"/>
      <point x="803.8" y="593.3" type="curve" smooth="yes"/>
      <point x="803.8" y="-56.699999999999996" type="line" smooth="yes"/>
      <point x="803.8" y="-326.5"/>
      <point x="784.8" y="-400.4"/>
      <point x="697.6" y="-400.4" type="curve" smooth="yes"/>
      <point x="630.7" y="-393.4"/>
      <point x="612.8" y="-340.6"/>
      <point x="612.8" y="-288.0" type="curve" smooth="yes"/>
      <point x="612.8" y="-264.4"/>
      <point x="618.0" y="-235.4"/>
      <point x="624.5" y="-219.2" type="curve"/>
      <point x="569.3" y="-219.2" type="line"/>
      <point x="557.9" y="-254.0"/>
      <point x="554.9" y="-284.5"/>
      <point x="554.9" y="-305.9" type="curve" smooth="yes"/>
      <point x="554.9" y="-391.0"/>
      <point x="604.0" y="-445.3"/>
    </contour>
  </outline>
</glyph>
<glyph name="OE" format="2">
  <advance width="2038.5"/>
  <unicode hex="0152"/>
  <note>
OE
</note>
  <anchor x="1027.8" y="-6.0" name="bottom"/>
  <anchor x="1027.8" y="1430.0" name="top"/>
  <outline>
    <contour>
      <point x="710.7" y="-7.2" type="curve" smooth="yes"/>
      <point x="1113.3" y="-7.2"/>
      <point x="1313.0" y="295.8"/>
      <point x="1313.0" y="715.6" type="curve" smooth="yes"/>
      <point x="1313.0" y="1135.4"/>
      <point x="1112.6" y="1441.2"/>
      <point x="710.7" y="1441.2" type="curve" smooth="yes"/>
      <point x="309.5" y="1441.2"/>
      <point x="108.4" y="1136.1"/>
      <point x="108.4" y="715.6" type="curve" smooth="yes"/>
      <point x="108.4" y="296.5"/>
      <point x="307.4" y="-7.2"/>
    </contour>
    <contour>
      <point x="710.7" y="37.5" type="curve"/>
      <point x="372.8" y="48.3"/>
      <point x="191.0" y="325.4"/>
      <point x="191.0" y="717.7" type="curve" smooth="yes"/>
      <point x="191.0" y="1114.2"/>
      <point x="377.7" y="1388.5"/>
      <point x="710.7" y="1396.5" type="curve"/>
      <point x="1043.7" y="1388.5"/>
      <point x="1230.4" y="1114.2"/>
      <point x="1230.4" y="717.7" type="curve" smooth="yes"/>
      <point x="1230.4" y="325.4"/>
      <point x="1048.6" y="48.3"/>
    </contour>
    <contour>
      <point x="1245.8" y="0.0" type="line"/>
      <point x="1940.2" y="0.0" type="line"/>
      <point x="1940.2" y="41.300000000000004" type="line"/>
      <point x="1275.4" y="41.300000000000004" type="line"/>
      <point x="1312.7" y="13.2" type="line"/>
      <point x="1312.7" y="743.7" type="line"/>
      <point x="1279.2" y="707.2" type="line"/>
      <point x="1940.2" y="707.2" type="line"/>
      <point x="1940.2" y="748.5" type="line"/>
      <point x="1275.4" y="748.5" type="line"/>
      <point x="1312.7" y="720.4" type="line"/>
      <point x="1312.7" y="1419.7" type="line"/>
      <point x="1267.8" y="1388.7" type="line"/>
      <point x="1940.2" y="1388.7" type="line"/>
      <point x="1940.2" y="1430.0" type="line"/>
      <point x="1245.8" y="1430.0" type="line"/>
    </contour>
  </outline>
</glyph>
<glyph name="Schwa" format="2">
  <advance width="1496.2"/>
  <unicode hex="018F"/>
  <anchor x="747.9" y="-6.0" name="bottom"/>
  <anchor x="747.9" y="1430.0" name="top"/>
  <outline>
    <contour>
      <point x="740.0" y="-7.2" type="curve" smooth="yes"/>
      <point x="1142.9" y="-7.2"/>
      <point x="1387.8" y="294.9"/>
      <point x="1387.8" y="714.7" type="curve" smooth="yes"/>
      <point x="1387.8" y="1134.8"/>
      <point x="1141.6" y="1440.9"/>
      <point x="740.0" y="1440.9" type="curve" smooth="yes"/>
      <point x="502.5" y="1440.9"/>
      <point x="318.6" y="1333.4"/>
      <point x="208.4" y="1157.6" type="curve"/>
      <point x="298.4" y="1157.6" type="line"/>
      <point x="398.4" y="1304.1"/>
      <point x="553.3" y="1392.5"/>
      <point x="740.0" y="1396.2" type="curve"/>
      <point x="1072.4" y="1388.8"/>
      <point x="1305.2" y="1114.2"/>
      <point x="1305.2" y="717.7" type="curve" smooth="yes"/>
      <point x="1305.2" y="325.4"/>
      <point x="1078.2" y="48.900000000000006"/>
      <point x="740.0" y="37.5" type="curve"/>
      <point x="395.2" y="49.2"/>
      <point x="174.8" y="329.9"/>
      <point x="174.8" y="725.2" type="curve"/>
      <point x="92.2" y="725.2" type="line"/>
      <point x="92.2" y="300.7"/>
      <point x="329.2" y="-7.2"/>
    </contour>
    <contour>
      <point x="163.5" y="683.9" type="line"/>
      <point x="1365.8" y="683.9" type="line"/>
      <point x="1365.8" y="725.2" type="line"/>
      <point x="163.5" y="725.2" type="line"/>
    </contour>
  </outline>
</glyph>
<glyph name="florin" format="2">
  <advance width="1216.6"/>
  <unicode hex="0192"/>
  <note>
florin
</note>
  <outline>
    <contour>
      <point x="534.1" y="361.5" type="line"/>
      <point x="593.8" y="361.5" type="line"/>
      <point x="787.7" y="1148.4" type="line" smooth="yes"/>
      <point x="851.9" y="1409.5"/>
      <point x="887.5" y="1487.3"/>
      <point x="978.0" y="1488.2" type="curve"/>
      <point x="1026.4" y="1481.2"/>
      <point x="1041.0" y="1453.6"/>
      <point x="1039.0" y="1416.0" type="curve"/>
      <point x="1089.9" y="1477.7" type="line"/>
      <point x="1071.1" y="1513.3"/>
      <point x="1040.6" y="1531.0"/>
      <point x="978.6" y="1531.0" type="curve" smooth="yes"/>
      <point x="821.7" y="1531.0"/>
      <point x="778.4" y="1354.4"/>
      <point x="728.6" y="1152.0" type="curve" smooth="yes"/>
    </contour>
    <contour>
      <point x="237.3" y="-454.1" type="curve" smooth="yes"/>
      <point x="395.4" y="-454.1"/>
      <point x="438.7" y="-272.4"/>
      <point x="487.0" y="-74.8" type="curve" smooth="yes"/>
      <point x="633.9" y="524.7" type="line"/>
      <point x="574.2" y="524.7" type="line"/>
      <point x="427.9" y="-71.8" type="line" smooth="yes"/>
      <point x="364.0" y="-332.6"/>
      <point x="328.4" y="-410.4"/>
      <point x="237.6" y="-411.3" type="curve"/>
      <point x="189.8" y="-404.6"/>
      <point x="175.2" y="-377.0"/>
      <point x="176.0" y="-339.4" type="curve"/>
      <point x="126.0" y="-400.8" type="line"/>
      <point x="144.8" y="-436.7"/>
      <point x="175.3" y="-454.1"/>
    </contour>
    <contour>
      <point x="504.3" y="875.0" type="line"/>
      <point x="879.5" y="875.0" type="line"/>
      <point x="889.8" y="914.8" type="line"/>
      <point x="515.5" y="914.8" type="line"/>
    </contour>
  </outline>
</glyph>
<glyph name="jdotless" format="2">
  <advance width="330.0"/>
  <unicode hex="0237"/>
  <anchor x="164.3" y="-532.0" name="bottom"/>
  <anchor x="164.3" y="936.5" name="top"/>
  <outline>
    <contour>
      <point x="35.0" y="-557.3" type="curve" smooth="yes"/>
      <point x="199.4" y="-557.3"/>
      <point x="196.1" y="-367.8"/>
      <point x="196.1" y="-168.7" type="curve" smooth="yes"/>
      <point x="196.1" y="935.4" type="line"/>
      <point x="133.9" y="935.4" type="line"/>
      <point x="133.9" y="-168.7" type="line" smooth="yes"/>
      <point x="133.9" y="-438.5"/>
      <point x="114.9" y="-512.4"/>
      <point x="27.7" y="-512.4" type="curve" smooth="yes"/>
      <point x="-39.2" y="-505.4"/>
      <point x="-57.1" y="-452.6"/>
      <point x="-57.1" y="-400.0" type="curve" smooth="yes"/>
      <point x="-57.1" y="-376.4"/>
      <point x="-51.900000000000006" y="-347.4"/>
      <point x="-45.400000000000006" y="-331.2" type="curve"/>
      <point x="-100.6" y="-331.2" type="line"/>
      <point x="-112.0" y="-366.0"/>
      <point x="-115.0" y="-396.5"/>
      <point x="-115.0" y="-417.9" type="curve" smooth="yes"/>
      <point x="-115.0" y="-503.0"/>
      <point x="-65.9" y="-557.3"/>
    </contour>
  </outline>
</glyph>
<glyph name="primemod" format="2">
  <advance width="146.7"/>
  <unicode hex="02B9"/>
  <outline>
    <contour>
      <point x="146.7" y="1332.2" type="curve"/>
      <point x="58.2" y="1332.2" type="line"/>
      <point x="38.0" y="1262.9"/>
      <point x="8.5" y="1113.5"/>
      <point x="0.0" y="1040.0" type="curve"/>
      <point x="59.0" y="1040.0" type="line"/>
      <point x="97.7" y="1132.4"/>
      <point x="127.0" y="1239.5"/>
    </contour>
  </outline>
</glyph>
<glyph name="gravecomb" format="2">
  <unicode hex="0300"/>
  <note>
grave
</note>
  <anchor x="154.7" y="924.5" name="_top"/>
  <anchor x="154.7" y="1286.5" name="top"/>
  <outline>
    <contour>
      <point x="239.6" y="1056.1" type="curve"/>
      <point x="258.3" y="1056.1" type="line"/>
      <point x="231.1" y="1123.9"/>
      <point x="170.1" y="1225.9"/>
      <point x="131.4" y="1280.5" type="curve"/>
      <point x="51.099999999999994" y="1280.5" type="line"/>
      <point x="99.9" y="1213.9"/>
      <point x="149.7" y="1151.0"/>
    </contour>
  </outline>
</glyph>
<glyph name="acutecomb" format="2">
  <unicode hex="0301"/>
  <note>
acute
</note>
  <anchor x="188.6" y="924.5" name="_top"/>
  <anchor x="188.6" y="1292.5" name="top"/>
  <outline>
    <contour>
      <point x="85.0" y="1056.1" type="curve"/>
      <point x="103.7" y="1056.1" type="line"/>
      <point x="193.6" y="1151.0"/>
      <point x="243.4" y="1213.9"/>
      <point x="292.2" y="1280.5" type="curve"/>
      <point x="211.9" y="1280.5" type="line"/>
      <point x="173.2" y="1225.9"/>
      <point x="112.2" y="1123.9"/>
    </contour>
  </outline>
</glyph>
<glyph name="circumflexcomb" format="2">
  <unicode hex="0302"/>
  <note>
circumflex
</note>
  <anchor x="228.2" y="924.5" name="_top"/>
  <anchor x="228.2" y="1314.6" name="top"/>
  <outline>
    <contour>
      <point x="37.099999999999994" y="1069.6" type="line"/>
      <point x="79.5" y="1069.6" type="line"/>
      <point x="222.5" y="1273.4" type="line"/>
      <point x="375.9" y="1069.6" type="line"/>
      <point x="419.3" y="1069.6" type="line"/>
      <point x="257.9" y="1326.6" type="line"/>
      <point x="196.8" y="1326.6" type="line"/>
    </contour>
  </outline>
</glyph>
<glyph name="tildecomb" format="2">
  <unicode hex="0303"/>
  <note>
tilde
</note>
  <anchor x="360.2" y="924.5" name="_top"/>
  <anchor x="360.2" y="1295.6" name="top"/>
  <outline>
    <contour>
      <point x="468.8" y="1115.9" type="curve" smooth="yes"/>
      <point x="546.8" y="1115.9"/>
      <point x="602.1" y="1169.9"/>
      <point x="634.6" y="1253.9" type="curve"/>
      <point x="616.0" y="1274.6" type="line"/>
      <point x="586.7" y="1223.9"/>
      <point x="544.3" y="1167.3"/>
      <point x="465.1" y="1167.3" type="curve" smooth="yes"/>
      <point x="386.8" y="1167.3"/>
      <point x="353.3" y="1289.6"/>
      <point x="246.6" y="1289.6" type="curve" smooth="yes"/>
      <point x="171.9" y="1289.6"/>
      <point x="111.8" y="1234.1"/>
      <point x="85.1" y="1149.7" type="curve"/>
      <point x="104.8" y="1129.9" type="line"/>
      <point x="134.4" y="1181.0"/>
      <point x="170.2" y="1237.6"/>
      <point x="248.3" y="1237.6" type="curve" smooth="yes"/>
      <point x="331.1" y="1237.6"/>
      <point x="364.2" y="1115.9"/>
    </contour>
  </outline>
</glyph>
<glyph name="macroncomb" format="2">
  <unicode hex="0304"/>
  <note>
macron
</note>
  <anchor x="300.3" y="924.5" name="_top"/>
  <anchor x="300.3" y="1183.3" name="top"/>
  <outline>
    <contour>
      <point x="56.8" y="1128.3" type="line"/>
      <point x="543.5" y="1128.3" type="line"/>
      <point x="543.5" y="1177.3" type="line"/>
      <point x="56.8" y="1177.3" type="line"/>
    </contour>
  </outline>
</glyph>
<glyph name="brevecomb" format="2">
  <unicode hex="0306"/>
  <note>
breve
</note>
  <anchor x="270.6" y="924.5" name="_top"/>
  <anchor x="270.6" y="1286.2" name="top"/>
  <outline>
    <contour>
      <point x="270.6" y="1071.8" type="curve" smooth="yes"/>
      <point x="360.3" y="1071.8"/>
      <point x="431.2" y="1122.3"/>
      <point x="469.9" y="1280.2" type="curve"/>
      <point x="434.2" y="1280.2" type="line"/>
      <point x="396.6" y="1172.8"/>
      <point x="364.5" y="1128.0"/>
      <point x="270.6" y="1128.0" type="curve" smooth="yes"/>
      <point x="176.7" y="1128.0"/>
      <point x="144.6" y="1172.8"/>
      <point x="107.0" y="1280.2" type="curve"/>
      <point x="71.3" y="1280.2" type="line"/>
      <point x="110.3" y="1122.3"/>
      <point x="180.9" y="1071.8"/>
    </contour>
  </outline>
</glyph>
<glyph name="dotaccentcomb" format="2">
  <unicode hex="0307"/>
  <anchor x="120.6" y="924.5" name="_top"/>
  <anchor x="120.6" y="1250.1" name="top"/>
  <outline>
    <contour>
      <point x="120.6" y="1131.4" type="curve" smooth="yes"/>
      <point x="152.3" y="1131.4"/>
      <point x="176.6" y="1154.6"/>
      <point x="176.6" y="1187.6" type="curve" smooth="yes"/>
      <point x="176.6" y="1221.3"/>
      <point x="151.6" y="1244.1"/>
      <point x="120.6" y="1244.1" type="curve" smooth="yes"/>
      <point x="89.6" y="1244.1"/>
      <point x="64.6" y="1221.3"/>
      <point x="64.6" y="1187.6" type="curve" smooth="yes"/>
      <point x="64.6" y="1154.6"/>
      <point x="88.9" y="1131.4"/>
    </contour>
  </outline>
</glyph>
<glyph name="dieresiscomb" format="2">
  <unicode hex="0308"/>
  <note>
dieresis
</note>
  <anchor x="233.4" y="924.5" name="_top"/>
  <anchor x="233.4" y="1250.7" name="top"/>
  <outline>
    <contour>
      <point x="368.2" y="1131.4" type="curve" smooth="yes"/>
      <point x="399.3" y="1131.4"/>
      <point x="424.5" y="1155.5"/>
      <point x="424.5" y="1187.9" type="curve" smooth="yes"/>
      <point x="424.5" y="1221.3"/>
      <point x="398.6" y="1244.7"/>
      <point x="368.2" y="1244.7" type="curve" smooth="yes"/>
      <point x="337.8" y="1244.7"/>
      <point x="311.9" y="1221.3"/>
      <point x="311.9" y="1187.9" type="curve" smooth="yes"/>
      <point x="311.9" y="1155.5"/>
      <point x="337.1" y="1131.4"/>
    </contour>
    <contour>
      <point x="98.6" y="1131.4" type="curve" smooth="yes"/>
      <point x="129.7" y="1131.4"/>
      <point x="154.9" y="1155.5"/>
      <point x="154.9" y="1187.9" type="curve" smooth="yes"/>
      <point x="154.9" y="1221.3"/>
      <point x="129.0" y="1244.7"/>
      <point x="98.6" y="1244.7" type="curve" smooth="yes"/>
      <point x="68.2" y="1244.7"/>
      <point x="42.3" y="1221.3"/>
      <point x="42.3" y="1187.9" type="curve" smooth="yes"/>
      <point x="42.3" y="1155.5"/>
      <point x="67.5" y="1131.4"/>
    </contour>
  </outline>
</glyph>
<glyph name="hookabovecomb" format="2">
  <unicode hex="0309"/>
  <anchor x="251.8" y="924.5" name="_top"/>
  <anchor x="251.8" y="1382.2" name="top"/>
  <outline>
    <contour>
      <point x="206.1" y="1120.4" type="line"/>
      <point x="297.5" y="1127.8"/>
      <point x="380.8" y="1174.9"/>
      <point x="380.8" y="1257.2" type="curve" smooth="yes"/>
      <point x="380.8" y="1326.9"/>
      <point x="322.9" y="1376.2"/>
      <point x="240.3" y="1376.2" type="curve" smooth="yes"/>
      <point x="191.8" y="1376.2"/>
      <point x="149.4" y="1361.5"/>
      <point x="122.5" y="1312.5" type="curve"/>
      <point x="146.8" y="1301.8" type="line"/>
      <point x="172.5" y="1326.3"/>
      <point x="192.3" y="1342.3"/>
      <point x="240.6" y="1342.3" type="curve" smooth="yes"/>
      <point x="300.1" y="1342.3"/>
      <point x="331.4" y="1309.1"/>
      <point x="331.4" y="1257.2" type="curve" smooth="yes"/>
      <point x="331.4" y="1200.3"/>
      <point x="294.2" y="1170.0"/>
      <point x="206.1" y="1155.6" type="curve"/>
    </contour>
    <contour>
      <point x="206.1" y="1050.6" type="line"/>
      <point x="247.1" y="1050.6" type="line"/>
      <point x="247.1" y="1146.2" type="line"/>
      <point x="206.1" y="1146.2" type="line"/>
    </contour>
  </outline>
</glyph>
<glyph name="ringcomb" format="2">
  <unicode hex="030A"/>
  <note>
ring
</note>
  <anchor x="237.3" y="924.5" name="_top"/>
  <anchor x="237.3" y="1385.9" name="top"/>
  <outline>
    <contour>
      <point x="236.6" y="1085.2" type="curve" smooth="yes"/>
      <point x="317.7" y="1085.2"/>
      <point x="385.0" y="1149.1"/>
      <point x="385.0" y="1233.6" type="curve" smooth="yes"/>
      <point x="385.0" y="1316.7"/>
      <point x="317.7" y="1382.0"/>
      <point x="236.6" y="1382.0" type="curve" smooth="yes"/>
      <point x="154.8" y="1382.0"/>
      <point x="88.2" y="1317.4"/>
      <point x="88.2" y="1233.6" type="curve" smooth="yes"/>
      <point x="88.2" y="1148.4"/>
      <point x="154.8" y="1085.2"/>
    </contour>
    <contour>
      <point x="236.6" y="1127.9" type="curve" smooth="yes"/>
      <point x="177.9" y="1127.9"/>
      <point x="130.9" y="1174.1"/>
      <point x="130.9" y="1233.6" type="curve" smooth="yes"/>
      <point x="130.9" y="1293.8"/>
      <point x="178.6" y="1339.3"/>
      <point x="236.6" y="1339.3" type="curve" smooth="yes"/>
      <point x="295.3" y="1339.3"/>
      <point x="342.3" y="1293.1"/>
      <point x="342.3" y="1233.6" type="curve" smooth="yes"/>
      <point x="342.3" y="1173.4"/>
      <point x="294.6" y="1127.9"/>
    </contour>
  </outline>
</glyph>
<glyph name="horncomb" format="2">
  <unicode hex="031B"/>
  <anchor x="324.0" y="1205.5" name="_topright"/>
  <anchor x="305.2" y="1257.5" name="topright"/>
  <outline>
    <contour>
      <point x="285.2" y="1271.5" type="curve"/>
      <point x="231.6" y="1271.5" type="line"/>
      <point x="231.9" y="1204.7"/>
      <point x="177.5" y="1144.7"/>
      <point x="100.0" y="1139.7" type="curve"/>
      <point x="100.0" y="1099.5" type="line"/>
      <point x="200.0" y="1097.8"/>
      <point x="284.9" y="1178.9"/>
    </contour>
  </outline>
</glyph>
<glyph name="cedillacomb" format="2">
  <unicode hex="0327"/>
  <anchor x="174.3" y="0.0" name="_bottom"/>
  <anchor x="174.15" y="-335.1" name="bottom"/>
  <outline>
    <contour>
      <point x="171.4" y="-337.2" type="curve" smooth="yes"/>
      <point x="251.4" y="-337.2"/>
      <point x="314.3" y="-282.8"/>
      <point x="314.3" y="-216.1" type="curve" smooth="yes"/>
      <point x="314.3" y="-154.7"/>
      <point x="261.0" y="-111.0"/>
      <point x="194.0" y="-111.0" type="curve" smooth="yes"/>
      <point x="161.8" y="-111.0"/>
      <point x="136.2" y="-121.5"/>
      <point x="87.6" y="-148.0" type="curve"/>
      <point x="66.9" y="-177.9" type="line"/>
      <point x="104.4" y="-163.0"/>
      <point x="150.7" y="-153.9"/>
      <point x="182.8" y="-153.9" type="curve" smooth="yes"/>
      <point x="234.8" y="-153.9"/>
      <point x="256.3" y="-179.4"/>
      <point x="256.3" y="-219.1" type="curve" smooth="yes"/>
      <point x="256.3" y="-267.8"/>
      <point x="229.5" y="-294.9"/>
      <point x="167.1" y="-294.9" type="curve" smooth="yes"/>
      <point x="133.3" y="-294.9"/>
      <point x="90.0" y="-287.0"/>
      <point x="39.8" y="-268.9" type="curve"/>
      <point x="39.8" y="-300.6" type="line"/>
      <point x="81.0" y="-322.8"/>
      <point x="130.4" y="-337.2"/>
    </contour>
    <contour>
      <point x="66.9" y="-177.9" type="line"/>
      <point x="148.8" y="-126.7" type="line"/>
      <point x="224.5" y="0.0" type="line"/>
      <point x="175.9" y="0.0" type="line"/>
    </contour>
  </outline>
</glyph>
<glyph name="ogonekcomb" format="2">
  <unicode hex="0328"/>
  <anchor x="253.3" y="0.0" name="_ogonek"/>
  <outline>
    <contour>
      <point x="169.8" y="-316.0" type="curve" smooth="yes"/>
      <point x="193.5" y="-316.0"/>
      <point x="254.9" y="-312.1"/>
      <point x="327.6" y="-273.4" type="curve"/>
      <point x="327.6" y="-240.7" type="line"/>
      <point x="269.0" y="-266.7"/>
      <point x="227.9" y="-276.4"/>
      <point x="199.1" y="-276.4" type="curve" smooth="yes"/>
      <point x="144.7" y="-276.4"/>
      <point x="100.2" y="-249.1"/>
      <point x="100.2" y="-186.2" type="curve" smooth="yes"/>
      <point x="100.2" y="-126.6"/>
      <point x="139.0" y="-61.3"/>
      <point x="277.7" y="0.0" type="curve"/>
      <point x="230.3" y="0.0" type="line" smooth="yes"/>
      <point x="198.1" y="0.0"/>
      <point x="42.0" y="-71.1"/>
      <point x="42.0" y="-192.2" type="curve" smooth="yes"/>
      <point x="42.0" y="-234.1"/>
      <point x="59.8" y="-316.0"/>
    </contour>
  </outline>
</glyph>
<glyph name="strokeshortcomb" format="2">
  <unicode hex="0335"/>
  <anchor x="250.9" y="751.4" name="_center"/>
  <outline>
    <contour>
      <point x="36.4" y="728.9" type="line"/>
      <point x="464.0" y="728.9" type="line"/>
      <point x="464.0" y="772.2" type="line"/>
      <point x="36.4" y="772.2" type="line"/>
    </contour>
  </outline>
</glyph>
<glyph name="strokelongcomb" format="2">
  <unicode hex="0336"/>
  <anchor x="288.45" y="750.55" name="_center"/>
  <outline>
    <contour>
      <point x="52.6" y="728.9" type="line"/>
      <point x="525.0" y="728.9" type="line"/>
      <point x="525.0" y="772.2" type="line"/>
      <point x="52.6" y="772.2" type="line"/>
    </contour>
  </outline>
</glyph>
<glyph name="slashshortcomb" format="2">
  <unicode hex="0337"/>
  <anchor x="273.7" y="710.15" name="_center"/>
  <outline>
    <contour>
      <point x="48.2" y="544.4" type="line"/>
      <point x="527.5" y="830.2" type="line"/>
      <point x="499.5" y="875.9" type="line"/>
      <point x="19.9" y="589.8" type="line"/>
    </contour>
  </outline>
</glyph>
<glyph name="slashlongcomb" format="2">
  <unicode hex="0338"/>
  <anchor x="381.9" y="471.55" name="_center"/>
  <outline>
    <contour>
      <point x="4.799999999999997" y="-97.1" type="line"/>
      <point x="66.0" y="-97.1" type="line"/>
      <point x="758.3" y="1040.2" type="line"/>
      <point x="697.1" y="1040.2" type="line"/>
    </contour>
  </outline>
</glyph>
<glyph name="Dje-cy" format="2">
  <advance width="1387.2"/>
  <unicode hex="0402"/>
  <outline>
    <contour>
      <point x="831.6" y="-25.7" type="line"/>
      <point x="1138.4" y="-25.7"/>
      <point x="1273.8" y="155.2"/>
      <point x="1273.8" y="436.0" type="curve" smooth="yes"/>
      <point x="1273.8" y="687.8"/>
      <point x="1161.6" y="832.0"/>
      <point x="923.9" y="832.0" type="curve" smooth="yes"/>
      <point x="739.4" y="832.0"/>
      <point x="572.3" y="745.4"/>
      <point x="504.9" y="552.4" type="curve"/>
      <point x="504.9" y="1430.0" type="line"/>
      <point x="438.0" y="1430.0" type="line"/>
      <point x="438.0" y="0.0" type="line"/>
      <point x="504.9" y="0.0" type="line"/>
      <point x="504.9" y="387.0" type="line" smooth="yes"/>
      <point x="504.9" y="612.0"/>
      <point x="680.7" y="788.0"/>
      <point x="909.9" y="788.0" type="curve" smooth="yes"/>
      <point x="1118.2" y="788.0"/>
      <point x="1206.9" y="659.8"/>
      <point x="1206.9" y="430.0" type="curve" smooth="yes"/>
      <point x="1206.9" y="185.3"/>
      <point x="1104.7" y="16.200000000000003"/>
      <point x="836.2" y="16.200000000000003" type="curve"/>
    </contour>
    <contour>
      <point x="69.2" y="1388.7" type="line"/>
      <point x="874.3" y="1388.7" type="line"/>
      <point x="874.3" y="1430.0" type="line"/>
      <point x="69.2" y="1430.0" type="line"/>
    </contour>
  </outline>
</glyph>
<glyph name="Lje-cy" format="2">
  <advance width="1976.1"/>
  <unicode hex="0409"/>
  <outline>
    <contour>
      <point x="1143.7" y="41.300000000000004" type="line"/>
      <point x="1129.6" y="0.0" type="line"/>
      <point x="1419.4" y="0.0" type="line" smooth="yes"/>
      <point x="1569.8" y="0.0"/>
      <point x="1680.4" y="30.8"/>
      <point x="1753.6" y="87.8" type="curve" smooth="yes"/>
      <point x="1840.9" y="155.7"/>
      <point x="1882.2" y="277.1"/>
      <point x="1882.2" y="423.1" type="curve" smooth="yes"/>
      <point x="1882.2" y="569.1"/>
      <point x="1841.9" y="691.5"/>
      <point x="1753.6" y="758.4" type="curve" smooth="yes"/>
      <point x="1680.1" y="814.4"/>
      <point x="1569.8" y="846.9"/>
      <point x="1419.4" y="846.2" type="curve" smooth="yes"/>
      <point x="1153.1" y="845.5" type="line"/>
      <point x="1157.0" y="804.2" type="line"/>
      <point x="1379.6" y="804.9" type="line" smooth="yes"/>
      <point x="1691.9" y="805.6"/>
      <point x="1810.0" y="687.0"/>
      <point x="1810.0" y="423.1" type="curve" smooth="yes"/>
      <point x="1810.0" y="159.2"/>
      <point x="1691.9" y="41.300000000000004"/>
      <point x="1379.6" y="41.300000000000004" type="curve" smooth="yes"/>
    </contour>
    <contour>
      <point x="466.0" y="1430.0" type="line"/>
      <point x="467.2" y="1006.9"/>
      <point x="465.2" y="750.1"/>
      <point x="426.5" y="549.6" type="curve" smooth="yes"/>
      <point x="386.3" y="309.5"/>
      <point x="293.8" y="59.1"/>
      <point x="141.9" y="59.1" type="curve" smooth="yes"/>
      <point x="79.4" y="59.1" type="line"/>
      <point x="79.4" y="0.0" type="line"/>
      <point x="138.9" y="0.0" type="line" smooth="yes"/>
      <point x="297.9" y="0.0"/>
      <point x="420.3" y="218.2"/>
      <point x="472.3" y="542.5" type="curve" smooth="yes"/>
      <point x="519.4" y="801.6"/>
      <point x="512.5" y="1116.1"/>
      <point x="511.5" y="1409.2" type="curve"/>
      <point x="480.6" y="1388.7" type="line"/>
      <point x="1147.9" y="1388.7" type="line"/>
      <point x="1117.0" y="1412.6" type="line"/>
      <point x="1117.0" y="0.30000000000000004" type="line"/>
      <point x="1183.9" y="0.30000000000000004" type="line"/>
      <point x="1183.9" y="1430.0" type="line"/>
    </contour>
  </outline>
</glyph>
<glyph name="Nje-cy" format="2">
  <advance width="1994.1"/>
  <unicode hex="040A"/>
  <outline>
    <contour>
      <point x="165.4" y="0.0" type="line"/>
      <point x="238.3" y="0.0" type="line"/>
      <point x="238.3" y="732.5" type="line"/>
      <point x="213.6" y="711.2" type="line"/>
      <point x="1167.5" y="711.2" type="line"/>
      <point x="1147.9" y="732.5" type="line"/>
      <point x="1147.9" y="0.0" type="line"/>
      <point x="1220.5" y="0.0" type="line"/>
      <point x="1220.5" y="1430.0" type="line"/>
      <point x="1147.9" y="1430.0" type="line"/>
      <point x="1147.9" y="731.2" type="line"/>
      <point x="1167.5" y="752.5" type="line"/>
      <point x="213.6" y="752.5" type="line"/>
      <point x="238.3" y="731.2" type="line"/>
      <point x="238.3" y="1430.0" type="line"/>
      <point x="165.4" y="1430.0" type="line"/>
    </contour>
    <contour>
      <point x="1161.7" y="41.300000000000004" type="line"/>
      <point x="1147.6" y="0.0" type="line"/>
      <point x="1437.4" y="0.0" type="line" smooth="yes"/>
      <point x="1587.8" y="0.0"/>
      <point x="1698.4" y="30.8"/>
      <point x="1771.6" y="87.8" type="curve" smooth="yes"/>
      <point x="1858.9" y="155.7"/>
      <point x="1900.2" y="277.1"/>
      <point x="1900.2" y="423.1" type="curve" smooth="yes"/>
      <point x="1900.2" y="569.1"/>
      <point x="1859.9" y="691.5"/>
      <point x="1771.6" y="758.4" type="curve" smooth="yes"/>
      <point x="1698.1" y="814.4"/>
      <point x="1587.8" y="846.9"/>
      <point x="1437.4" y="846.2" type="curve" smooth="yes"/>
      <point x="1171.1" y="845.5" type="line"/>
      <point x="1175.0" y="804.2" type="line"/>
      <point x="1397.6" y="804.9" type="line" smooth="yes"/>
      <point x="1709.9" y="805.6"/>
      <point x="1828.0" y="687.0"/>
      <point x="1828.0" y="423.1" type="curve" smooth="yes"/>
      <point x="1828.0" y="159.2"/>
      <point x="1709.9" y="41.300000000000004"/>
      <point x="1397.6" y="41.300000000000004" type="curve" smooth="yes"/>
    </contour>
  </outline>
</glyph>
<glyph name="Tshe-cy" format="2">
  <advance width="1387.2"/>
  <unicode hex="040B"/>
  <outline>
    <contour>
      <point x="504.9" y="1430.0" type="line"/>
      <point x="438.0" y="1430.0" type="line"/>
      <point x="438.0" y="0.0" type="line"/>
      <point x="504.9" y="0.0" type="line"/>
      <point x="504.9" y="387.0" type="line" smooth="yes"/>
      <point x="504.9" y="612.0"/>
      <point x="680.7" y="788.0"/>
      <point x="909.9" y="788.0" type="curve" smooth="yes"/>
      <point x="1118.2" y="788.0"/>
      <point x="1206.9" y="643.0"/>
      <point x="1206.9" y="436.0" type="curve" smooth="yes"/>
      <point x="1206.9" y="0.0" type="line"/>
      <point x="1273.8" y="0.0" type="line"/>
      <point x="1273.8" y="442.0" type="line" smooth="yes"/>
      <point x="1273.8" y="679.3"/>
      <point x="1164.9" y="832.0"/>
      <point x="923.9" y="832.0" type="curve" smooth="yes"/>
      <point x="709.5" y="832.0"/>
      <point x="509.9" y="711.0"/>
      <point x="478.9" y="434.0" type="curve"/>
      <point x="504.9" y="486.0" type="line"/>
    </contour>
    <contour>
      <point x="69.2" y="1388.7" type="line"/>
      <point x="874.3" y="1388.7" type="line"/>
      <point x="874.3" y="1430.0" type="line"/>
      <point x="69.2" y="1430.0" type="line"/>
    </contour>
  </outline>
</glyph>
<glyph name="Be-cy" format="2">
  <advance width="1099.6"/>
  <unicode hex="0411"/>
  <outline>
    <contour>
      <point x="175.3" y="0.0" type="line"/>
      <point x="588.6" y="1.4" type="line" smooth="yes"/>
      <point x="843.1" y="0.7"/>
      <point x="1010.3" y="163.3"/>
      <point x="1010.3" y="393.9" type="curve" smooth="yes"/>
      <point x="1010.3" y="624.5"/>
      <point x="843.1" y="787.1"/>
      <point x="588.6" y="786.4" type="curve" smooth="yes"/>
      <point x="211.3" y="783.6" type="line"/>
      <point x="242.2" y="752.7" type="line"/>
      <point x="242.2" y="1430.7" type="line"/>
      <point x="175.3" y="1430.7" type="line"/>
    </contour>
    <contour>
      <point x="242.2" y="17.400000000000002" type="line"/>
      <point x="242.2" y="776.7" type="line"/>
      <point x="211.3" y="743.7" type="line"/>
      <point x="531.0" y="744.4" type="line" smooth="yes"/>
      <point x="789.6" y="745.1"/>
      <point x="932.3" y="613.3"/>
      <point x="932.3" y="393.9" type="curve" smooth="yes"/>
      <point x="932.3" y="174.5"/>
      <point x="789.6" y="43.400000000000006"/>
      <point x="531.0" y="43.400000000000006" type="curve" smooth="yes"/>
      <point x="211.3" y="43.400000000000006" type="line"/>
    </contour>
    <contour>
      <point x="898.3" y="1388.7" type="line"/>
      <point x="898.3" y="1430.0" type="line"/>
      <point x="175.3" y="1430.0" type="line"/>
      <point x="175.3" y="1388.7" type="line"/>
    </contour>
  </outline>
</glyph>
<glyph name="De-cy" format="2">
  <advance width="1456.0"/>
  <unicode hex="0414"/>
  <outline>
    <contour>
      <point x="100.5" y="0.0" type="line"/>
      <point x="1373.4" y="0.0" type="line"/>
      <point x="1373.4" y="41.300000000000004" type="line"/>
      <point x="1173.5" y="41.300000000000004" type="line"/>
      <point x="1203.4" y="17.0" type="line"/>
      <point x="1203.4" y="1430.0" type="line"/>
      <point x="495.5" y="1430.0" type="line"/>
      <point x="495.5" y="1388.7" type="line"/>
      <point x="1166.4" y="1388.7" type="line"/>
      <point x="1136.5" y="1416.0" type="line"/>
      <point x="1136.5" y="17.0" type="line"/>
      <point x="1166.4" y="41.300000000000004" type="line"/>
      <point x="100.5" y="41.300000000000004" type="line"/>
    </contour>
    <contour>
      <point x="275.2" y="23.3" type="line"/>
      <point x="503.4" y="365.1"/>
      <point x="548.7" y="843.0"/>
      <point x="547.7" y="1414.3" type="curve"/>
      <point x="495.5" y="1414.3" type="line"/>
      <point x="497.1" y="844.3"/>
      <point x="449.5" y="368.29999999999995"/>
      <point x="215.5" y="29.300000000000004" type="curve"/>
    </contour>
    <component base="_cyrillicdescender01.case" xOffset="1193.9"/>
    <component base="_cyrillicdescender01.case" xScale="-1.0" xOffset="262.1"/>
  </outline>
</glyph>
<glyph name="Zhe-cy" format="2">
  <advance width="1729.4"/>
  <unicode hex="0416"/>
  <anchor x="1695.4" y="-3.5" name="bottomright"/>
  <anchor x="865.4" y="1433.5" name="top"/>
  <outline>
    <contour>
      <point x="1502.0" y="0.0" type="line"/>
      <point x="1586.0" y="0.0" type="line"/>
      <point x="1021.0" y="749.0" type="line"/>
      <point x="970.0" y="721.0" type="line"/>
    </contour>
    <contour>
      <point x="816.1" y="0.0" type="line"/>
      <point x="883.9" y="0.0" type="line"/>
      <point x="883.9" y="1430.0" type="line"/>
      <point x="816.1" y="1430.0" type="line"/>
    </contour>
    <contour>
      <point x="864.0" y="706.0" type="line"/>
      <point x="1023.0" y="706.0" type="line"/>
      <point x="1023.0" y="744.0" type="line"/>
      <point x="864.0" y="744.0" type="line"/>
    </contour>
    <contour>
      <point x="965.0" y="731.0" type="line"/>
      <point x="1029.0" y="737.0" type="line"/>
      <point x="1529.0" y="1430.0" type="line"/>
      <point x="1464.0" y="1430.0" type="line"/>
    </contour>
    <contour>
      <point x="198.0" y="0.0" type="line"/>
      <point x="730.0" y="721.0" type="line"/>
      <point x="679.0" y="749.0" type="line"/>
      <point x="114.0" y="0.0" type="line"/>
    </contour>
    <contour>
      <point x="836.0" y="706.0" type="line"/>
      <point x="836.0" y="744.0" type="line"/>
      <point x="684.0" y="744.0" type="line"/>
      <point x="684.0" y="706.0" type="line"/>
    </contour>
    <contour>
      <point x="735.0" y="731.0" type="line"/>
      <point x="236.0" y="1430.0" type="line"/>
      <point x="171.0" y="1430.0" type="line"/>
      <point x="671.0" y="737.0" type="line"/>
    </contour>
  </outline>
</glyph>
<glyph name="Ze-cy" format="2">
  <advance width="1098.2"/>
  <unicode hex="0417"/>
  <anchor x="549.1" y="0.0" name="bottom"/>
  <anchor x="549.1" y="1430.0" name="top"/>
  <outline>
    <contour>
      <point x="522.9" y="-33.0" type="curve" smooth="yes"/>
      <point x="810.6" y="-33.0"/>
      <point x="991.4" y="103.2"/>
      <point x="991.4" y="382.8" type="curve" smooth="yes"/>
      <point x="991.4" y="635.0"/>
      <point x="877.3" y="738.4"/>
      <point x="610.7" y="765.4" type="curve"/>
      <point x="536.2" y="743.8" type="line"/>
      <point x="813.6" y="752.9"/>
      <point x="932.6" y="852.0"/>
      <point x="932.6" y="1098.9" type="curve" smooth="yes"/>
      <point x="932.6" y="1340.6"/>
      <point x="796.8" y="1455.0"/>
      <point x="559.2" y="1455.0" type="curve" smooth="yes"/>
      <point x="369.3" y="1455.0"/>
      <point x="256.0" y="1382.0"/>
      <point x="188.8" y="1250.3" type="curve"/>
      <point x="232.6" y="1216.7" type="line"/>
      <point x="280.7" y="1351.1"/>
      <point x="393.0" y="1410.3"/>
      <point x="554.9" y="1410.3" type="curve" smooth="yes"/>
      <point x="759.3" y="1410.3"/>
      <point x="860.0" y="1315.3"/>
      <point x="860.0" y="1096.3" type="curve" smooth="yes"/>
      <point x="860.0" y="872.3"/>
      <point x="754.6" y="777.4"/>
      <point x="508.5" y="777.4" type="curve" smooth="yes"/>
      <point x="420.6" y="777.4" type="line"/>
      <point x="420.6" y="736.1" type="line"/>
      <point x="513.2" y="736.1" type="line" smooth="yes"/>
      <point x="789.7" y="736.1"/>
      <point x="908.6" y="635.8"/>
      <point x="908.6" y="379.4" type="curve" smooth="yes"/>
      <point x="908.6" y="129.0"/>
      <point x="766.7" y="11.700000000000003"/>
      <point x="529.2" y="11.700000000000003" type="curve" smooth="yes"/>
      <point x="293.3" y="11.700000000000003"/>
      <point x="189.3" y="127.4"/>
      <point x="137.1" y="298.8" type="curve"/>
      <point x="81.9" y="269.9" type="line"/>
      <point x="139.4" y="94.0"/>
      <point x="244.7" y="-33.0"/>
    </contour>
  </outline>
</glyph>
<glyph name="Ii-cy" format="2">
  <advance width="1473.9"/>
  <unicode hex="0418"/>
  <anchor x="736.8" y="-6.0" name="bottom"/>
  <anchor x="1453.9" y="0.0" name="bottomright"/>
  <anchor x="737.1" y="1430.0" name="top"/>
  <outline>
    <contour>
      <point x="1308.5" y="0.0" type="line"/>
      <point x="1308.5" y="1430.0" type="line"/>
      <point x="1211.9" y="1430.0" type="line"/>
      <point x="189.9" y="44.1" type="line"/>
      <point x="208.5" y="18.200000000000003" type="line"/>
      <point x="208.5" y="1430.0" type="line"/>
      <point x="165.4" y="1430.0" type="line"/>
      <point x="165.4" y="0.0" type="line"/>
      <point x="251.3" y="0.0" type="line"/>
      <point x="1289.7" y="1399.6" type="line"/>
      <point x="1265.4" y="1403.4" type="line"/>
      <point x="1265.4" y="0.0" type="line"/>
    </contour>
  </outline>
</glyph>
<glyph name="Ka-cy" format="2">
  <advance width="1096.5"/>
  <unicode hex="041A"/>
  <anchor x="1090.5" y="0.0" name="bottomright"/>
  <anchor x="548.4" y="1430.0" name="top"/>
  <outline>
    <contour>
      <point x="165.4" y="0.0" type="line"/>
      <point x="232.3" y="0.0" type="line"/>
      <point x="232.3" y="1430.0" type="line"/>
      <point x="165.4" y="1430.0" type="line"/>
    </contour>
    <contour>
      <point x="221.3" y="668.0" type="line"/>
      <point x="968.3" y="1430.0" type="line"/>
      <point x="911.2" y="1430.0" type="line"/>
      <point x="213.3" y="717.0" type="line"/>
    </contour>
    <contour>
      <point x="898.0" y="0.0" type="line"/>
      <point x="1016.3" y="0.0" type="line"/>
      <point x="274.3" y="753.0" type="line"/>
      <point x="218.3" y="690.0" type="line"/>
    </contour>
  </outline>
</glyph>
<glyph name="El-cy" format="2">
  <advance width="1349.3"/>
  <unicode hex="041B"/>
  <outline>
    <contour>
      <point x="466.0" y="1430.0" type="line"/>
      <point x="467.2" y="1006.9"/>
      <point x="465.2" y="750.1"/>
      <point x="426.5" y="549.6" type="curve" smooth="yes"/>
      <point x="387.0" y="309.5"/>
      <point x="293.8" y="59.1"/>
      <point x="141.9" y="59.1" type="curve" smooth="yes"/>
      <point x="79.4" y="59.1" type="line"/>
      <point x="79.4" y="0.0" type="line"/>
      <point x="138.9" y="0.0" type="line" smooth="yes"/>
      <point x="297.9" y="0.0"/>
      <point x="420.3" y="218.2"/>
      <point x="472.3" y="542.5" type="curve" smooth="yes"/>
      <point x="519.4" y="801.6"/>
      <point x="512.5" y="1116.1"/>
      <point x="511.5" y="1409.2" type="curve"/>
      <point x="480.6" y="1388.7" type="line"/>
      <point x="1147.9" y="1388.7" type="line"/>
      <point x="1117.0" y="1412.6" type="line"/>
      <point x="1117.0" y="0.0" type="line"/>
      <point x="1183.9" y="0.0" type="line"/>
      <point x="1183.9" y="1430.0" type="line"/>
    </contour>
  </outline>
</glyph>
<glyph name="Pe-cy" format="2">
  <advance width="1377.9"/>
  <unicode hex="041F"/>
  <anchor x="1357.9" y="0.0" name="bottomright"/>
  <outline>
    <contour>
      <point x="165.4" y="0.0" type="line"/>
      <point x="238.3" y="0.0" type="line"/>
      <point x="238.3" y="1388.7" type="line"/>
      <point x="1139.9" y="1388.7" type="line"/>
      <point x="1139.9" y="0.0" type="line"/>
      <point x="1212.5" y="0.0" type="line"/>
      <point x="1212.5" y="1430.0" type="line"/>
      <point x="165.4" y="1430.0" type="line"/>
    </contour>
  </outline>
</glyph>
<glyph name="U-cy" format="2">
  <advance width="994.0"/>
  <unicode hex="0423"/>
  <guideline x="662.0" y="959.5" angle="68.37"/>
  <guideline x="679.1" y="956.1" angle="248.3564"/>
  <anchor x="497.0" y="1430.0" name="top"/>
  <outline>
    <contour>
      <point x="207.3" y="0.0" type="line"/>
      <point x="261.4" y="0.0" type="line"/>
      <point x="344.3" y="0.0"/>
      <point x="394.8" y="36.1"/>
      <point x="437.1" y="153.1" type="curve" smooth="yes"/>
      <point x="910.7" y="1430.0" type="line"/>
      <point x="862.3" y="1430.0" type="line"/>
      <point x="408.7" y="212.1" type="line" smooth="yes"/>
      <point x="359.5" y="76.9"/>
      <point x="339.3" y="45.0"/>
      <point x="247.3" y="45.0" type="curve" smooth="yes"/>
      <point x="207.3" y="45.0" type="line"/>
    </contour>
    <contour>
      <point x="507.7" y="447.0" type="line"/>
      <point x="546.7" y="523.1" type="line"/>
      <point x="154.3" y="1430.0" type="line"/>
      <point x="83.3" y="1430.0" type="line"/>
    </contour>
  </outline>
</glyph>
<glyph name="Ef-cy" format="2">
  <advance width="1244.8"/>
  <unicode hex="0424"/>
  <outline>
    <contour>
      <point x="621.4" y="207.0" type="curve"/>
      <point x="621.4" y="248.2" type="line"/>
      <point x="363.4" y="248.2"/>
      <point x="181.4" y="437.6"/>
      <point x="181.4" y="712.0" type="curve" smooth="yes"/>
      <point x="181.4" y="990.0"/>
      <point x="365.2" y="1181.8"/>
      <point x="621.4" y="1181.8" type="curve"/>
      <point x="621.4" y="1223.0" type="line"/>
      <point x="315.4" y="1223.0"/>
      <point x="98.4" y="1006.7"/>
      <point x="98.4" y="703.0" type="curve" smooth="yes"/>
      <point x="98.4" y="410.9"/>
      <point x="313.0" y="207.0"/>
    </contour>
    <contour>
      <point x="589.1" y="0.0" type="line"/>
      <point x="656.7" y="0.0" type="line"/>
      <point x="656.7" y="1430.0" type="line"/>
      <point x="589.1" y="1430.0" type="line"/>
    </contour>
    <contour>
      <point x="621.4" y="207.0" type="line"/>
      <point x="930.5" y="207.0"/>
      <point x="1146.4" y="410.9"/>
      <point x="1146.4" y="703.0" type="curve" smooth="yes"/>
      <point x="1146.4" y="1006.1"/>
      <point x="928.4" y="1223.0"/>
      <point x="621.4" y="1223.0" type="curve"/>
      <point x="621.4" y="1181.8" type="line"/>
      <point x="877.3" y="1181.8"/>
      <point x="1061.4" y="985.1"/>
      <point x="1061.4" y="703.0" type="curve" smooth="yes"/>
      <point x="1061.4" y="433.1"/>
      <point x="880.3" y="248.2"/>
      <point x="621.4" y="248.2" type="curve"/>
    </contour>
  </outline>
</glyph>
<glyph name="Che-cy" format="2">
  <advance width="1118.3"/>
  <unicode hex="0427"/>
  <anchor x="1083.3" y="0.0" name="bottomright"/>
  <anchor x="559.3" y="1430.0" name="top"/>
  <outline>
    <contour>
      <point x="885.1" y="0.0" type="line"/>
      <point x="952.0" y="0.0" type="line"/>
      <point x="952.0" y="1430.0" type="line"/>
      <point x="885.1" y="1430.0" type="line"/>
      <point x="885.1" y="1043.0" type="line" smooth="yes"/>
      <point x="885.1" y="818.0"/>
      <point x="709.3" y="642.0"/>
      <point x="480.1" y="642.0" type="curve" smooth="yes"/>
      <point x="271.8" y="642.0"/>
      <point x="183.1" y="787.0"/>
      <point x="183.1" y="994.0" type="curve" smooth="yes"/>
      <point x="183.1" y="1430.0" type="line"/>
      <point x="116.2" y="1430.0" type="line"/>
      <point x="116.2" y="988.0" type="line" smooth="yes"/>
      <point x="116.2" y="750.7"/>
      <point x="225.1" y="598.0"/>
      <point x="466.1" y="598.0" type="curve" smooth="yes"/>
      <point x="680.5" y="598.0"/>
      <point x="880.1" y="719.0"/>
      <point x="911.1" y="996.0" type="curve"/>
      <point x="885.1" y="944.0" type="line"/>
    </contour>
  </outline>
</glyph>
<glyph name="Sha-cy" format="2">
  <advance width="1660.6"/>
  <unicode hex="0428"/>
  <outline>
    <contour>
      <point x="165.4" y="0.0" type="line"/>
      <point x="1495.2" y="0.0" type="line"/>
      <point x="1495.2" y="1430.0" type="line"/>
      <point x="1422.6" y="1430.0" type="line"/>
      <point x="1422.6" y="41.300000000000004" type="line"/>
      <point x="238.3" y="41.300000000000004" type="line"/>
      <point x="238.3" y="1430.0" type="line"/>
      <point x="165.4" y="1430.0" type="line"/>
    </contour>
    <contour>
      <point x="797.0" y="0.0" type="line"/>
      <point x="863.9" y="0.0" type="line"/>
      <point x="863.9" y="1430.0" type="line"/>
      <point x="797.0" y="1430.0" type="line"/>
    </contour>
  </outline>
</glyph>
<glyph name="Softsign-cy" format="2">
  <advance width="1012.7"/>
  <unicode hex="042C"/>
  <outline>
    <contour>
      <point x="175.9" y="0.0" type="line"/>
      <point x="456.0" y="0.0" type="line" smooth="yes"/>
      <point x="606.4" y="0.0"/>
      <point x="717.0" y="30.8"/>
      <point x="790.2" y="87.8" type="curve" smooth="yes"/>
      <point x="877.5" y="155.7"/>
      <point x="918.8" y="277.1"/>
      <point x="918.8" y="423.1" type="curve" smooth="yes"/>
      <point x="918.8" y="569.1"/>
      <point x="878.5" y="691.5"/>
      <point x="790.2" y="758.4" type="curve" smooth="yes"/>
      <point x="716.7" y="814.4"/>
      <point x="606.4" y="846.9"/>
      <point x="456.0" y="846.2" type="curve" smooth="yes"/>
      <point x="198.7" y="845.5" type="line"/>
      <point x="242.8" y="823.1" type="line"/>
      <point x="242.8" y="1430.0" type="line"/>
      <point x="175.9" y="1430.0" type="line"/>
    </contour>
    <contour>
      <point x="242.8" y="14.6" type="line"/>
      <point x="242.8" y="831.6" type="line"/>
      <point x="202.6" y="804.2" type="line"/>
      <point x="416.2" y="804.9" type="line" smooth="yes"/>
      <point x="728.5" y="805.6"/>
      <point x="846.6" y="687.0"/>
      <point x="846.6" y="423.1" type="curve" smooth="yes"/>
      <point x="846.6" y="159.2"/>
      <point x="728.5" y="41.300000000000004"/>
      <point x="416.2" y="41.300000000000004" type="curve" smooth="yes"/>
      <point x="190.0" y="41.300000000000004" type="line"/>
    </contour>
  </outline>
</glyph>
<glyph name="be-cy" format="2">
  <advance width="1004.7"/>
  <unicode hex="0431"/>
  <outline>
    <contour>
      <point x="506.0" y="-25.2" type="curve" smooth="yes"/>
      <point x="758.6" y="-25.2"/>
      <point x="926.3" y="166.9"/>
      <point x="926.3" y="448.2" type="curve" smooth="yes"/>
      <point x="926.3" y="730.3"/>
      <point x="756.8" y="946.7"/>
      <point x="506.0" y="946.7" type="curve" smooth="yes"/>
      <point x="340.1" y="946.7"/>
      <point x="260.0" y="877.4"/>
      <point x="155.8" y="737.0" type="curve"/>
      <point x="182.5" y="731.1" type="line"/>
      <point x="250.7" y="971.3"/>
      <point x="332.6" y="1178.1"/>
      <point x="523.7" y="1252.6" type="curve" smooth="yes"/>
      <point x="646.2" y="1301.8"/>
      <point x="815.7" y="1282.1"/>
      <point x="923.7" y="1430.2" type="curve"/>
      <point x="862.7" y="1441.2" type="line"/>
      <point x="799.0" y="1339.3"/>
      <point x="646.3" y="1338.4"/>
      <point x="537.7" y="1300.3" type="curve" smooth="yes"/>
      <point x="287.0" y="1225.0"/>
      <point x="87.7" y="912.5"/>
      <point x="87.7" y="448.2" type="curve" smooth="yes"/>
      <point x="87.7" y="166.9"/>
      <point x="253.7" y="-25.2"/>
    </contour>
    <contour>
      <point x="506.0" y="17.6" type="curve" smooth="yes"/>
      <point x="302.2" y="17.6"/>
      <point x="158.8" y="170.5"/>
      <point x="158.8" y="456.5" type="curve" smooth="yes"/>
      <point x="158.8" y="732.2"/>
      <point x="303.0" y="904.6"/>
      <point x="506.0" y="904.6" type="curve" smooth="yes"/>
      <point x="708.7" y="904.6"/>
      <point x="853.2" y="725.1"/>
      <point x="853.2" y="448.2" type="curve" smooth="yes"/>
      <point x="853.2" y="163.4"/>
      <point x="710.7" y="17.6"/>
    </contour>
  </outline>
</glyph>
<glyph name="ve-cy" format="2">
  <advance width="822.8"/>
  <unicode hex="0432"/>
  <outline>
    <contour>
      <point x="123.7" y="0.0" type="line"/>
      <point x="406.3" y="0.0" type="line" smooth="yes"/>
      <point x="620.8" y="0.0"/>
      <point x="746.0" y="96.1"/>
      <point x="746.0" y="259.8" type="curve" smooth="yes"/>
      <point x="746.0" y="395.5"/>
      <point x="659.2" y="490.4"/>
      <point x="532.2" y="505.8" type="curve"/>
      <point x="533.7" y="482.5" type="line"/>
      <point x="636.1" y="508.9"/>
      <point x="711.9" y="578.7"/>
      <point x="711.9" y="693.9" type="curve" smooth="yes"/>
      <point x="711.9" y="838.9"/>
      <point x="593.3" y="935.4"/>
      <point x="415.5" y="935.4" type="curve" smooth="yes"/>
      <point x="123.7" y="935.4" type="line"/>
    </contour>
    <contour>
      <point x="187.1" y="9.7" type="line"/>
      <point x="187.1" y="500.5" type="line"/>
      <point x="150.6" y="476.6" type="line"/>
      <point x="430.9" y="476.6" type="line" smooth="yes"/>
      <point x="579.9" y="476.6"/>
      <point x="677.3" y="391.0"/>
      <point x="677.3" y="264.8" type="curve" smooth="yes"/>
      <point x="677.3" y="124.30000000000001"/>
      <point x="563.5" y="38.7"/>
      <point x="380.6" y="38.7" type="curve" smooth="yes"/>
      <point x="156.3" y="38.7" type="line"/>
    </contour>
    <contour>
      <point x="187.1" y="488.8" type="line"/>
      <point x="187.1" y="926.1" type="line"/>
      <point x="140.8" y="896.0" type="line"/>
      <point x="404.2" y="896.0" type="line" smooth="yes"/>
      <point x="579.4" y="896.0"/>
      <point x="644.2" y="791.2"/>
      <point x="644.2" y="687.6" type="curve" smooth="yes"/>
      <point x="644.2" y="563.1"/>
      <point x="553.0" y="513.0"/>
      <point x="416.7" y="513.0" type="curve" smooth="yes"/>
      <point x="148.1" y="513.0" type="line"/>
    </contour>
  </outline>
</glyph>
<glyph name="ge-cy" format="2">
  <advance width="667.8"/>
  <unicode hex="0433"/>
  <anchor x="647.8" y="0.0" name="bottomright"/>
  <anchor x="151.6" y="495.0" name="center"/>
  <anchor x="333.9" y="935.4" name="top"/>
  <outline>
    <contour>
      <point x="121.0" y="935.4" type="line"/>
      <point x="121.0" y="-0.30000000000000004" type="line"/>
      <point x="185.0" y="-0.30000000000000004" type="line"/>
      <point x="185.0" y="923.5" type="line"/>
      <point x="144.9" y="896.6" type="line"/>
      <point x="614.9" y="896.6" type="line"/>
      <point x="614.9" y="935.4" type="line"/>
    </contour>
  </outline>
</glyph>
<glyph name="de-cy" format="2">
  <advance width="1071.8"/>
  <unicode hex="0434"/>
  <outline>
    <contour>
      <point x="74.4" y="0.0" type="line"/>
      <point x="998.0" y="0.0" type="line"/>
      <point x="998.0" y="36.7" type="line"/>
      <point x="836.1" y="36.7" type="line"/>
      <point x="872.3" y="11.9" type="line"/>
      <point x="872.3" y="935.4" type="line"/>
      <point x="340.6" y="935.4" type="line"/>
      <point x="340.6" y="895.6" type="line"/>
      <point x="850.0" y="895.6" type="line"/>
      <point x="809.8" y="924.4" type="line"/>
      <point x="809.8" y="11.9" type="line"/>
      <point x="850.0" y="40.1" type="line"/>
      <point x="74.4" y="40.1" type="line"/>
    </contour>
    <contour>
      <point x="198.5" y="21.1" type="line"/>
      <point x="366.8" y="223.5"/>
      <point x="385.4" y="529.0"/>
      <point x="386.0" y="922.6" type="curve"/>
      <point x="340.6" y="922.3" type="line"/>
      <point x="341.0" y="530.2"/>
      <point x="320.5" y="226.5"/>
      <point x="145.0" y="25.900000000000006" type="curve"/>
    </contour>
    <component base="_cyrillicdescender02" xOffset="805.4"/>
    <component base="_cyrillicdescender02" xScale="-1.0" xOffset="263.6"/>
  </outline>
</glyph>
